<svg width="68" height="68" viewBox="0 0 68 68" fill="none" xmlns="http://www.w3.org/2000/svg">
<path d="M50.2536 41.4287L43.3799 47.7489C39.8455 50.83 35.693 53.1194 31.2009 54.4635L33.0247 62.9725C33.1179 63.407 33.3119 63.8135 33.5911 64.1591C33.8704 64.5048 34.227 64.78 34.6321 64.9624C35.0373 65.1449 35.4797 65.2295 35.9236 65.2095C36.3675 65.1894 36.8004 65.0653 37.1875 64.8471L48.2525 58.6063C49.8098 57.6601 51.0263 56.2436 51.7265 54.5612C52.4267 52.8789 52.5744 51.0176 52.1483 49.2458L50.2536 41.4287ZM20.5859 24.865L26.5039 17.8387L19.1236 16.058C17.3294 15.4324 15.3693 15.4771 13.6055 16.184C11.8417 16.891 10.3933 18.2123 9.52788 19.9039L3.29401 30.9536C3.07558 31.3407 2.95127 31.7737 2.93113 32.2176C2.91099 32.6616 2.99558 33.1041 3.17807 33.5093C3.36055 33.9145 3.63581 34.2711 3.9816 34.5503C4.32739 34.8295 4.73401 35.0234 5.1686 35.1164L13.8747 36.9827C15.3181 32.5522 17.5961 28.439 20.5859 24.865V24.865ZM47.4122 24.9794C48.2528 24.9794 49.0745 24.7302 49.7734 24.2632C50.4723 23.7962 51.017 23.1324 51.3387 22.3558C51.6604 21.5793 51.7445 20.7247 51.5806 19.9003C51.4166 19.0759 51.0118 18.3186 50.4174 17.7242C49.823 17.1299 49.0658 16.7251 48.2413 16.5611C47.4169 16.3971 46.5624 16.4813 45.7858 16.803C45.0092 17.1246 44.3455 17.6694 43.8785 18.3683C43.4115 19.0672 43.1622 19.8889 43.1622 20.7294C43.1626 21.8565 43.6105 22.9373 44.4075 23.7342C45.2044 24.5311 46.2852 24.979 47.4122 24.9794V24.9794Z" fill="#5D26C1"/>
<path d="M64.0364 5.84233C63.9085 5.35704 63.6542 4.91437 63.2993 4.55951C62.9445 4.20465 62.5018 3.95032 62.0165 3.82247C56.2043 2.31164 50.0836 2.47365 44.3594 4.28983C38.6353 6.10601 33.5408 9.50245 29.6628 14.0878L20.5859 24.865C16.0515 30.2733 13.1749 36.8758 12.3018 43.8793C12.2458 44.3097 12.2894 44.7472 12.4292 45.1581C12.569 45.569 12.8014 45.9423 13.1083 46.2492L21.8919 55.0328C22.1549 55.296 22.4672 55.5048 22.8109 55.6472C23.1546 55.7897 23.523 55.863 23.8951 55.863C23.9767 55.863 24.0583 55.8588 24.1414 55.8519C31.2524 55.2643 37.9911 52.426 43.3797 47.7489L53.7584 38.2058C58.36 34.338 61.7689 29.2431 63.5884 23.5138C65.4079 17.7846 65.5632 11.6564 64.0364 5.84233V5.84233ZM47.4121 24.9793C46.5716 24.9793 45.7499 24.73 45.051 24.263C44.3521 23.796 43.8073 23.1323 43.4857 22.3557C43.164 21.5791 43.0798 20.7246 43.2438 19.9001C43.4078 19.0757 43.8126 18.3185 44.4069 17.7241C45.0013 17.1297 45.7586 16.7249 46.583 16.5609C47.4074 16.397 48.262 16.4811 49.0385 16.8028C49.8151 17.1245 50.4789 17.6692 50.9459 18.3681C51.4129 19.067 51.6621 19.8887 51.6621 20.7293C51.6617 21.8563 51.2138 22.9371 50.4169 23.734C49.62 24.531 48.5392 24.9789 47.4121 24.9793V24.9793Z" fill="#A17FE0"/>
</svg>
