<svg width="69" height="63" viewBox="0 0 69 63" fill="none" xmlns="http://www.w3.org/2000/svg">
<path d="M58.65 11.1506H10.35C4.63387 11.1506 0 15.5941 0 21.0753V30.0765L23.589 37.6164H45.411L69 30.0765V21.0753C69 15.5941 64.3661 11.1506 58.65 11.1506Z" fill="#A17FE0"/>
<path d="M27.6 10.3973V6.93151H41.4V10.3973H48.3V6.93151C48.2957 3.10514 45.209 0.00436685 41.4 0H27.6C23.791 0.00436685 20.7043 3.10514 20.7 6.93151V10.3973H27.6ZM23.589 38.1233L0 30.2242V51.9863C0.0062445 57.726 4.63642 62.3773 10.35 62.3836H58.65C64.3636 62.3773 68.9938 57.726 69 51.9863V30.2242L45.411 38.1233H23.589Z" fill="#5D26C1"/>
</svg>
