<svg width="86" height="87" viewBox="0 0 86 87" fill="none" xmlns="http://www.w3.org/2000/svg">
<path d="M14.3334 58C10.3753 58 7.16669 54.7541 7.16669 50.75C7.16669 46.7459 10.3753 43.5 14.3334 43.5C18.2914 43.5 21.5 46.7459 21.5 50.75C21.4949 54.7519 18.2893 57.9948 14.3334 58ZM14.3334 21.75C10.3753 21.75 7.16669 18.5041 7.16669 14.5C7.16669 10.4959 10.3753 7.25 14.3334 7.25C18.2914 7.25 21.5 10.4959 21.5 14.5C21.4949 18.5019 18.2893 21.7448 14.3334 21.75ZM50.1667 21.75C46.2086 21.75 43 18.5041 43 14.5C43 10.4959 46.2086 7.25 50.1667 7.25C54.1247 7.25 57.3334 10.4959 57.3334 14.5C57.3282 18.5019 54.1226 21.7448 50.1667 21.75ZM50.1667 58C46.2086 58 43 54.7541 43 50.75C43 46.7459 46.2086 43.5 50.1667 43.5C54.1247 43.5 57.3334 46.7459 57.3334 50.75C57.3282 54.7519 54.1226 57.9948 50.1667 58Z" fill="#5D26C1"/>
<path d="M35.8334 79.75C31.8753 79.75 28.6667 76.5041 28.6667 72.5C28.6667 68.4959 31.8753 65.25 35.8334 65.25C39.7914 65.25 43 68.4959 43 72.5C42.9949 76.5019 39.7893 79.7448 35.8334 79.75ZM35.8334 43.5C31.8753 43.5 28.6667 40.2541 28.6667 36.25C28.6667 32.2459 31.8753 29 35.8334 29C39.7914 29 43 32.2459 43 36.25C42.9949 40.2519 39.7893 43.4948 35.8334 43.5ZM71.6667 43.5C67.7086 43.5 64.5 40.2541 64.5 36.25C64.5 32.2459 67.7086 29 71.6667 29C75.6247 29 78.8334 32.2459 78.8334 36.25C78.8282 40.2519 75.6226 43.4948 71.6667 43.5ZM71.6667 79.75C67.7086 79.75 64.5 76.5041 64.5 72.5C64.5 68.4959 67.7086 65.25 71.6667 65.25C75.6247 65.25 78.8334 68.4959 78.8334 72.5C78.8282 76.5019 75.6226 79.7448 71.6667 79.75Z" fill="#5D26C1"/>
<path d="M43.9973 18.125C42.6676 15.8955 42.6676 13.1045 43.9973 10.875H20.5027C21.8324 13.1045 21.8324 15.8955 20.5027 18.125H43.9973ZM14.3333 43.5C15.5953 43.5073 16.8324 43.8556 17.9167 44.5089V20.7411C15.7128 22.0863 12.9539 22.0863 10.75 20.7411V44.5089C11.8342 43.8556 13.0714 43.5073 14.3333 43.5Z" fill="#A17FE0"/>
<path d="M71.6667 65.25C72.9286 65.2573 74.1658 65.6056 75.25 66.2589V42.4911C73.0462 43.8363 70.2872 43.8363 68.0833 42.4911V66.2589C69.1676 65.6056 70.4047 65.2573 71.6667 65.25ZM35.8333 65.25C37.0953 65.2573 38.3324 65.6056 39.4167 66.2589V42.4911C37.2128 43.8363 34.4539 43.8363 32.25 42.4911V66.2589C33.3342 65.6056 34.5714 65.2573 35.8333 65.25Z" fill="#5D26C1"/>
<path d="M43.9973 47.125H39.4167V54.375H43.9973C42.6676 52.1455 42.6676 49.3545 43.9973 47.125ZM32.25 54.375V47.125H20.5027C21.8324 49.3545 21.8324 52.1455 20.5027 54.375H32.25Z" fill="#A17FE0"/>
<path d="M65.4973 68.875H42.0027C43.3324 71.1044 43.3324 73.8956 42.0027 76.125H65.4973C64.1676 73.8956 64.1676 71.1044 65.4973 68.875ZM65.4973 39.875C64.1676 37.6455 64.1676 34.8545 65.4973 32.625H42.0027C43.3324 34.8545 43.3324 37.6455 42.0027 39.875H65.4973Z" fill="#5D26C1"/>
<path d="M53.75 32.6251V20.7412C51.5461 22.0864 48.7872 22.0864 46.5833 20.7412V32.6251H53.75ZM46.5833 39.8751V44.509C48.7872 43.1638 51.5461 43.1638 53.75 44.509V39.8751H46.5833Z" fill="#A17FE0"/>
</svg>
