<svg width="72" height="72" viewBox="0 0 72 72" fill="none" xmlns="http://www.w3.org/2000/svg">
<path d="M5 36H0H5ZM16.625 36L11.625 36L16.625 36ZM36 55.375L36 60.375L36 55.375ZM55.375 36L60.375 36L55.375 36ZM36 0C26.4522 0 17.2955 3.79285 10.5442 10.5442L17.6152 17.6152C22.4912 12.7393 29.1044 10 36 10V0ZM10.5442 10.5442C3.79285 17.2955 0 26.4522 0 36H10C10 29.1044 12.7393 22.4912 17.6152 17.6152L10.5442 10.5442ZM0 36C0 45.5478 3.79285 54.7045 10.5442 61.4558L17.6152 54.3848C12.7393 49.5088 10 42.8956 10 36H0ZM10.5442 61.4558C17.2955 68.2072 26.4522 72 36 72V62C29.1044 62 22.4912 59.2607 17.6152 54.3848L10.5442 61.4558ZM36 72C45.5478 72 54.7045 68.2072 61.4558 61.4558L54.3848 54.3848C49.5088 59.2607 42.8956 62 36 62V72ZM61.4558 61.4558C68.2072 54.7045 72 45.5478 72 36H62C62 42.8956 59.2607 49.5088 54.3848 54.3848L61.4558 61.4558ZM72 36C72 26.4522 68.2072 17.2955 61.4558 10.5442L54.3848 17.6152C59.2607 22.4912 62 29.1044 62 36H72ZM61.4558 10.5442C54.7045 3.79285 45.5478 0 36 0V10C42.8956 10 49.5088 12.7393 54.3848 17.6152L61.4558 10.5442ZM36 11.625C29.5353 11.625 23.3355 14.1931 18.7643 18.7643L25.8353 25.8353C28.5312 23.1395 32.1875 21.625 36 21.625L36 11.625ZM18.7643 18.7643C14.1931 23.3355 11.625 29.5353 11.625 36L21.625 36C21.625 32.1875 23.1395 28.5312 25.8353 25.8353L18.7643 18.7643ZM11.625 36C11.625 42.4647 14.1931 48.6645 18.7643 53.2357L25.8353 46.1647C23.1395 43.4688 21.625 39.8125 21.625 36L11.625 36ZM18.7643 53.2357C23.3355 57.8069 29.5354 60.375 36 60.375L36 50.375C32.1875 50.375 28.5312 48.8605 25.8353 46.1647L18.7643 53.2357ZM36 60.375C42.4646 60.375 48.6645 57.8069 53.2357 53.2357L46.1647 46.1647C43.4688 48.8605 39.8125 50.375 36 50.375L36 60.375ZM53.2357 53.2357C57.8069 48.6645 60.375 42.4646 60.375 36L50.375 36C50.375 39.8125 48.8605 43.4688 46.1647 46.1647L53.2357 53.2357ZM60.375 36C60.375 29.5354 57.8069 23.3355 53.2357 18.7643L46.1647 25.8353C48.8605 28.5312 50.375 32.1875 50.375 36L60.375 36ZM53.2357 18.7643C48.6645 14.1931 42.4647 11.625 36 11.625L36 21.625C39.8125 21.625 43.4688 23.1395 46.1647 25.8353L53.2357 18.7643ZM21.2515 16.5957C13.915 22.4648 9.52818 29.7758 8.73928 38.4536C7.96702 46.9484 10.7066 56.0644 16.1588 65.6057L24.8412 60.6443C19.9601 52.1023 18.1788 45.0724 18.6982 39.3589C19.201 33.8284 21.9183 28.8685 27.4985 24.4043L21.2515 16.5957ZM50.7485 55.4043C58.0639 49.552 62.4682 42.3182 63.2603 33.6899C64.0351 25.2511 61.2854 16.1997 55.8412 6.67243L47.1588 11.6338C52.048 20.1899 53.8191 27.1453 53.3022 32.7757C52.8027 38.2167 50.1028 43.1147 44.5015 47.5957L50.7485 55.4043Z" fill="white"/>
</svg>
