<svg width="58" height="74" viewBox="0 0 58 74" fill="none" xmlns="http://www.w3.org/2000/svg">
<path d="M15.6667 15.6667V47.6667M15.6667 15.6667H31.6667C34.4956 15.6667 37.2088 16.7905 39.2091 18.7909C41.2095 20.7912 42.3333 23.5044 42.3333 26.3333C42.3333 29.1623 41.2095 31.8754 39.2091 33.8758C37.2088 35.8762 34.4956 37 31.6667 37H15.6667V15.6667ZM15.6667 47.6667C12.8377 47.6667 10.1246 48.7905 8.12419 50.7909C6.1238 52.7913 5 55.5044 5 58.3333M15.6667 47.6667H37C41.2435 47.6667 45.3131 45.4191 48.3137 41.4183C51.3143 37.4175 53 31.9913 53 26.3333C53 20.6754 51.3143 15.2492 48.3137 11.2484C45.3131 7.24761 41.2435 5 37 5H5V58.3333M5 58.3333C5 61.1623 6.1238 63.8754 8.12419 65.8758C10.1246 67.8762 12.8377 69 15.6667 69V53" stroke="white" stroke-width="10" stroke-linecap="square" stroke-linejoin="round"/>
</svg>
