<svg width="80" height="60" viewBox="0 0 80 60" fill="none" xmlns="http://www.w3.org/2000/svg">
<path fill-rule="evenodd" clip-rule="evenodd" d="M0 0L49.5238 60C66.3553 60 80 46.5685 80 30C80 13.4315 66.3553 0 49.5238 0H0ZM52.9438 52.2498C63.9451 50.6251 72.381 41.2823 72.381 30C72.381 17.5736 62.1475 7.5 49.5238 7.5H36.9841C42.4131 13.471 45.7143 21.356 45.7143 30C45.7143 33.9091 45.0378 37.6671 43.7932 41.1635L52.9438 52.2498ZM37.8026 33.9057C37.9953 32.632 38.0952 31.3279 38.0952 30C38.0952 20.4513 32.9159 12.0934 25.1718 7.5H16.0074L37.8026 33.9057Z" fill="white"/>
</svg>
