<svg width="361" height="287" viewBox="0 0 361 287" fill="none" xmlns="http://www.w3.org/2000/svg">
<circle cx="10" cy="162" r="10" fill="#5D26C1"/>
<circle cx="349" cy="122" r="6" fill="#5D26C1"/>
<circle cx="116" cy="265" r="6" fill="#59C173"/>
<rect x="248.659" width="33" height="8" rx="4" transform="rotate(45 248.659 0)" fill="#59C173"/>
<mask id="mask0" mask-type="alpha" maskUnits="userSpaceOnUse" x="26" y="16" width="286" height="212">
<path d="M32.2391 138.185C60.1153 175.851 74.0533 194.685 76.4154 197.193C82.8365 204.011 75.7945 197.626 83.2066 203.351C85.9332 205.457 95.9195 211.436 115.892 223.394C120.692 226.268 126.256 228 132.694 228C159.813 228 230.375 217.905 267.983 212.217C272.222 211.576 274.341 211.255 282.52 207.188C286.13 205.393 298.757 195.41 301.336 192.311C307.18 185.291 305.316 189.919 306.061 188.068C309.95 178.413 312.642 165.183 310.587 148.078C308.588 131.436 267.002 125.527 257.535 97.3181C247.968 68.8128 243.184 54.5601 242.616 53.1239C229.886 20.9601 226.13 18.2592 191.587 16.4244C190.045 16.3425 189.021 16.3425 186.973 16.3425H117.856C91.6614 16.3425 78.5639 16.3425 67.1411 21.5018C57.6593 25.7845 48.1542 33.906 42.4446 42.6035C35.5662 53.0815 33.723 64.7504 30.0366 88.0883C27.9775 101.124 26.5445 113.361 26.5445 122.171C26.5445 128.091 28.7166 133.426 32.2391 138.185Z" fill="white"/>
</mask>
<g mask="url(#mask0)">
<path fill-rule="evenodd" clip-rule="evenodd" d="M-80.5895 152.714L-80.5866 152.717L-80.5838 152.72C-79.6468 153.656 -78.1291 153.656 -77.1922 152.72L-77.1893 152.717L194.297 -118.769L194.3 -118.772C195.235 -119.709 195.235 -121.226 194.3 -122.163L194.297 -122.166L194.294 -122.169C193.357 -123.105 191.839 -123.105 190.902 -122.169L190.899 -122.166L-80.5866 149.32L-80.5895 149.323C-81.5251 150.26 -81.5251 151.777 -80.5895 152.714ZM-70.3975 162.906L-70.3947 162.909L-70.3918 162.912C-69.4548 163.848 -67.9372 163.848 -67.0002 162.912L-66.9974 162.909L204.489 -108.577L204.491 -108.58C205.427 -109.517 205.427 -111.034 204.491 -111.971L204.489 -111.974L204.486 -111.977C203.549 -112.913 202.031 -112.913 201.094 -111.977L201.091 -111.974L-70.3947 159.512L-70.3975 159.515C-71.3331 160.452 -71.3331 161.969 -70.3975 162.906ZM-60.2027 173.101L-60.2056 173.098C-61.1412 172.161 -61.1412 170.644 -60.2056 169.707L-60.2027 169.704L211.283 -101.782L211.286 -101.785C212.223 -102.721 213.741 -102.721 214.678 -101.785L214.681 -101.782L214.683 -101.779C215.619 -100.842 215.619 -99.3247 214.683 -98.3877L214.681 -98.3849L-56.8054 173.101L-56.8083 173.104C-57.7452 174.04 -59.2629 174.04 -60.1999 173.104L-60.2027 173.101ZM-50.0136 183.29L-50.0108 183.293L-50.0079 183.296C-49.0709 184.232 -47.5533 184.232 -46.6163 183.296L-46.6135 183.293L224.873 -88.1929L224.875 -88.1958C225.811 -89.1327 225.811 -90.6504 224.875 -91.5874L224.873 -91.5902L224.87 -91.5931C223.933 -92.5287 222.415 -92.5287 221.478 -91.5931L221.475 -91.5902L-50.0108 179.896L-50.0136 179.899C-50.9492 180.836 -50.9492 182.353 -50.0136 183.29ZM-39.8188 193.485L-39.8217 193.482C-40.7572 192.545 -40.7572 191.028 -39.8217 190.091L-39.8188 190.088L231.667 -81.3983L231.67 -81.4011C232.607 -82.3367 234.125 -82.3367 235.062 -81.4011L235.064 -81.3983L235.067 -81.3954C236.003 -80.4584 236.003 -78.9408 235.067 -78.0038L235.064 -78.001L-36.4215 193.485L-36.4244 193.488C-37.3613 194.423 -38.879 194.423 -39.8159 193.488L-39.8188 193.485ZM-29.6297 203.674L-29.6269 203.677L-29.624 203.68C-28.687 204.615 -27.1694 204.615 -26.2324 203.68L-26.2296 203.677L245.256 -67.809L245.259 -67.8119C246.195 -68.7488 246.195 -70.2665 245.259 -71.2035L245.256 -71.2063L245.254 -71.2092C244.317 -72.1448 242.799 -72.1448 241.862 -71.2092L241.859 -71.2063L-29.6269 200.28L-29.6297 200.283C-30.5653 201.219 -30.5653 202.737 -29.6297 203.674ZM-19.4349 213.869L-19.4378 213.866C-20.3733 212.929 -20.3733 211.411 -19.4378 210.474L-19.4349 210.472L252.051 -61.0144L252.054 -61.0172C252.991 -61.9528 254.509 -61.9528 255.446 -61.0172L255.448 -61.0144L255.451 -61.0115C256.387 -60.0745 256.387 -58.5569 255.451 -57.6199L255.448 -57.6171L-16.0376 213.869L-16.0404 213.872C-16.9774 214.807 -18.4951 214.807 -19.432 213.872L-19.4349 213.869ZM-9.24581 224.058L-9.24295 224.061L-9.24009 224.064C-8.30312 224.999 -6.78546 224.999 -5.84849 224.064L-5.84564 224.061L265.64 -47.4251L265.643 -47.4279C266.579 -48.3649 266.579 -49.8826 265.643 -50.8195L265.64 -50.8224L265.637 -50.8253C264.701 -51.7609 263.183 -51.7608 262.246 -50.8253L262.243 -50.8224L-9.24295 220.664L-9.24581 220.666C-10.1814 221.603 -10.1814 223.121 -9.24581 224.058ZM0.949003 234.253L0.946139 234.25C0.0105614 233.313 0.0105621 231.795 0.946141 230.858L0.949003 230.856L272.435 -40.6305L272.438 -40.6333C273.375 -41.5689 274.892 -41.5689 275.829 -40.6333L275.832 -40.6305L275.835 -40.6276C276.771 -39.6906 276.771 -38.173 275.835 -37.236L275.832 -37.2331L4.34631 234.253L4.34346 234.256C3.40649 235.191 1.88884 235.191 0.951863 234.256L0.949003 234.253ZM11.1381 244.442L11.141 244.445L11.1438 244.448C12.0808 245.383 13.5984 245.383 14.5354 244.448L14.5383 244.445L286.024 -27.0412L286.027 -27.044C286.963 -27.981 286.963 -29.4987 286.027 -30.4356L286.024 -30.4385L286.021 -30.4414C285.084 -31.3769 283.567 -31.3769 282.63 -30.4414L282.627 -30.4385L11.141 241.047L11.1381 241.05C10.2025 241.987 10.2025 243.505 11.1381 244.442ZM21.3329 254.637L21.33 254.634C20.3945 253.697 20.3945 252.179 21.33 251.242L21.3329 251.239L292.819 -20.2466L292.822 -20.2494C293.759 -21.185 295.276 -21.185 296.213 -20.2494L296.216 -20.2466L296.219 -20.2437C297.155 -19.3067 297.155 -17.7891 296.219 -16.8521L296.216 -16.8492L24.7302 254.637L24.7274 254.64C23.7904 255.575 22.2727 255.575 21.3358 254.64L21.3329 254.637ZM31.522 264.826L31.5249 264.829L31.5277 264.832C32.4647 265.767 33.9823 265.767 34.9193 264.832L34.9222 264.829L306.408 -6.65729L306.411 -6.66014C307.347 -7.59712 307.347 -9.11477 306.411 -10.0517L306.408 -10.0546L306.405 -10.0575C305.468 -10.993 303.951 -10.993 303.014 -10.0575L303.011 -10.0546L31.5249 261.431L31.522 261.434C30.5864 262.371 30.5864 263.889 31.522 264.826ZM41.7168 275.021L41.7139 275.018C40.7784 274.081 40.7784 272.563 41.7139 271.626L41.7168 271.623L313.203 0.137339L313.206 0.13449C314.143 -0.801097 315.66 -0.801097 316.597 0.13449L316.6 0.13735L316.603 0.140209C317.539 1.07718 317.539 2.59483 316.603 3.53181L316.6 3.53466L45.1141 275.021L45.1113 275.024C44.1743 275.959 42.6566 275.959 41.7197 275.023L41.7168 275.021ZM51.9059 285.21L51.9088 285.213L51.9116 285.215C52.8486 286.151 54.3662 286.151 55.3032 285.215L55.3061 285.213L326.792 13.7266L326.795 13.7238C327.73 12.7868 327.73 11.2691 326.795 10.3322L326.792 10.3293L326.789 10.3264C325.852 9.39086 324.335 9.39086 323.398 10.3264L323.395 10.3293L51.9088 281.815L51.9059 281.818C50.9703 282.755 50.9703 284.273 51.9059 285.21ZM62.1007 295.405L62.0979 295.402C61.1623 294.465 61.1623 292.947 62.0979 292.01L62.1007 292.007L333.587 20.5213L333.59 20.5184C334.527 19.5828 336.044 19.5828 336.981 20.5184L336.984 20.5213L336.987 20.5241C337.922 21.4611 337.922 22.9787 336.987 23.9157L336.984 23.9186L65.498 295.405L65.4952 295.407C64.5582 296.343 63.0406 296.343 62.1036 295.407L62.1007 295.405ZM72.2898 305.594L72.2927 305.597L72.2955 305.599C73.2325 306.535 74.7501 306.535 75.6871 305.599L75.69 305.597L347.176 34.1105L347.179 34.1077C348.114 33.1707 348.114 31.653 347.179 30.7161L347.176 30.7132L347.173 30.7104C346.236 29.7748 344.718 29.7748 343.781 30.7104L343.779 30.7132L72.2927 302.199L72.2898 302.202C71.3542 303.139 71.3542 304.657 72.2898 305.594ZM82.4846 315.788L82.4818 315.786C81.5462 314.849 81.5462 313.331 82.4818 312.394L82.4846 312.391L353.971 40.9052L353.973 40.9023C354.91 39.9667 356.428 39.9667 357.365 40.9023L357.368 40.9052L357.371 40.908C358.306 41.845 358.306 43.3626 357.371 44.2996L357.368 44.3025L85.8819 315.788L85.8791 315.791C84.9421 316.727 83.4245 316.727 82.4875 315.791L82.4846 315.788ZM92.6737 325.978L92.6766 325.98L92.6794 325.983C93.6164 326.919 95.1341 326.919 96.071 325.983L96.0739 325.98L367.56 54.4944L367.563 54.4916C368.498 53.5546 368.498 52.0369 367.563 51.1L367.56 51.0971L367.557 51.0943C366.62 50.1587 365.102 50.1587 364.165 51.0943L364.163 51.0971L92.6766 322.583L92.6737 322.586C91.7381 323.523 91.7381 325.041 92.6737 325.978ZM102.869 336.172L102.866 336.17C101.93 335.233 101.93 333.715 102.866 332.778L102.869 332.775L374.355 61.2891L374.357 61.2862C375.294 60.3506 376.812 60.3506 377.749 61.2862L377.752 61.2891L377.755 61.2919C378.69 62.2289 378.69 63.7466 377.755 64.6835L377.752 64.6864L106.266 336.172L106.263 336.175C105.326 337.111 103.808 337.111 102.871 336.175L102.869 336.172ZM113.058 346.361L113.06 346.364L113.063 346.367C114 347.303 115.518 347.303 116.455 346.367L116.458 346.364L387.944 74.8783L387.947 74.8755C388.882 73.9385 388.882 72.4209 387.947 71.4839L387.944 71.481L387.941 71.4782C387.004 70.5426 385.486 70.5426 384.549 71.4782L384.546 71.481L113.06 342.967L113.058 342.97C112.122 343.907 112.122 345.424 113.058 346.361Z" fill="#373E68"/>
</g>
<path d="M320.763 164.257C319.766 129.453 319.268 112.051 310.201 95.1045C302.831 81.3304 288.651 67.5506 274.671 60.5783C257.472 52 237.018 52 196.111 52H154.948C127.584 52 113.902 52 97.0704 60.1411C85.1808 65.8917 64.8917 86.1808 59.1411 98.0704C51 114.902 51 119.963 51 130.083C51 144.725 58.9613 167.979 67.2408 188.203C72.2016 200.321 74.682 206.38 80.4735 214.344C84.6615 220.103 93.1493 228.531 98.9374 232.679C106.942 238.415 113.331 240.979 126.111 246.107C150.145 255.751 179.958 266.209 201.207 268.569C229.213 271.68 258.158 252.326 274.019 239.413C286.562 229.201 292.834 224.095 293.452 223.57C295.534 221.806 293.05 223.969 295.083 222.15C295.688 221.609 296.858 220.52 299.198 218.342C307.959 210.188 318.293 197.538 320.299 181.987C320.858 177.648 320.971 171.517 320.763 164.257Z" fill="#5D26C1"/>
<ellipse cx="186.5" cy="136" rx="122.5" ry="110" fill="#59C173"/>
<g filter="url(#filter0_bd)">
<rect x="51" y="51" width="272" height="179" rx="20.8" fill="#3A61F0" fill-opacity="0.24"/>
<rect x="51.5" y="51.5" width="271" height="178" rx="20.3" stroke="white" stroke-opacity="0.08"/>
</g>
<path d="M92.6027 75.2189C94.5815 74.0777 97.0185 74.0777 98.9973 75.2189L109.225 81.1173C111.207 82.2601 112.428 84.3738 112.428 86.6614V98.4458C112.428 100.733 111.207 102.847 109.225 103.99L98.9973 109.888C97.0185 111.029 94.5815 111.029 92.6027 109.888L82.375 103.99C80.3933 102.847 79.1723 100.733 79.1723 98.4458V86.6614C79.1723 84.3738 80.3933 82.2601 82.375 81.1173L92.6027 75.2189Z" fill="#59C173"/>
<rect x="76.6" y="154.884" width="44.8" height="12.7857" rx="6.39286" fill="#A17FE0"/>
<rect x="76.6" y="188.447" width="70.4" height="12.7857" rx="6.39286" fill="white"/>
<ellipse cx="291" cy="196.438" rx="8" ry="7.99107" fill="white"/>
<rect x="127.8" y="154.884" width="44.8" height="12.7857" rx="6.39286" fill="#A17FE0"/>
<rect x="179" y="154.884" width="44.8" height="12.7857" rx="6.39286" fill="#A17FE0"/>
<rect x="230.2" y="154.884" width="44.8" height="12.7857" rx="6.39286" fill="#A17FE0"/>
<defs>
<filter id="filter0_bd" x="13" y="24.9045" width="348" height="262.096" filterUnits="userSpaceOnUse" color-interpolation-filters="sRGB">
<feFlood flood-opacity="0" result="BackgroundImageFix"/>
<feGaussianBlur in="BackgroundImage" stdDeviation="13.0478"/>
<feComposite in2="SourceAlpha" operator="in" result="effect1_backgroundBlur"/>
<feColorMatrix in="SourceAlpha" type="matrix" values="0 0 0 0 0 0 0 0 0 0 0 0 0 0 0 0 0 0 127 0"/>
<feOffset dy="19"/>
<feGaussianBlur stdDeviation="19"/>
<feColorMatrix type="matrix" values="0 0 0 0 0 0 0 0 0 0 0 0 0 0 0 0 0 0 0.08 0"/>
<feBlend mode="normal" in2="effect1_backgroundBlur" result="effect2_dropShadow"/>
<feBlend mode="normal" in="SourceGraphic" in2="effect2_dropShadow" result="shape"/>
</filter>
</defs>
</svg>
