<svg width="1027" height="788" viewBox="0 0 1027 788" fill="none" xmlns="http://www.w3.org/2000/svg">
<rect width="1027" height="788" rx="32" fill="#5D26C1" fill-opacity="0.7"/>
<path d="M746 188C772.51 188 794 209.49 794 236V524C794 537.255 783.255 548 770 548H282C255.49 548 234 526.51 234 500V212C234 198.745 244.745 188 258 188L746 188Z" fill="#A17FE0"/>
<path d="M387 240.784V247.6H401.4C406.248 247.6 407.112 250.864 407.112 252.208C407.112 256.528 403.8 256.336 400.92 256.336H387V263.152H400.824C403.944 263.152 407.112 263.872 407.112 267.712C407.112 271.6 404.376 271.888 401.064 271.888H387V278.704H403.608C410.04 278.704 412.488 274.912 412.488 269.632C412.488 266.176 410.52 263.584 408.36 262.144C411.336 260.8 412.488 258.016 412.488 254.896C412.488 251.68 411 249.088 408.456 247.312V247.216H411.816V240.784H387ZM411.816 307.372V300.556H398.808C393.768 300.556 391.704 298.972 391.704 295.276C391.704 292.108 393.72 290.908 397.8 290.908H411.816V284.092H396.552C390.408 284.092 386.328 285.916 386.328 293.164C386.328 296.044 387.672 299.02 390.456 300.748V300.892H387V307.372H411.816ZM395.064 311.345C388.488 311.633 386.328 317.249 386.328 323.009C386.328 328.673 388.44 334.337 394.968 334.337C399.576 334.337 401.016 330.449 401.928 326.465C402.84 322.577 403.176 318.737 405.624 318.737C407.64 318.737 407.928 320.993 407.928 322.529C407.928 324.977 407.208 326.993 404.568 327.185V333.665C410.664 333.137 412.488 328.145 412.488 322.721C412.488 317.393 410.856 311.921 404.52 311.921C400.152 311.921 398.76 315.857 397.896 319.793C396.84 324.689 396.12 327.521 394.056 327.521C391.656 327.521 390.888 325.025 390.888 323.057C390.888 320.369 392.088 317.873 395.064 317.825V311.345ZM387 338.326V345.142H400.008C405.048 345.142 407.112 346.726 407.112 350.422C407.112 353.59 405.096 354.79 401.016 354.79H387V361.606H402.264C408.408 361.606 412.488 359.782 412.488 352.534C412.488 349.99 411.144 347.014 408.36 345.286V345.142H421.272V338.326H387ZM399.384 366.012C391.512 366.012 386.328 371.052 386.328 378.828C386.328 386.652 391.512 391.692 399.384 391.692C407.304 391.692 412.488 386.652 412.488 378.828C412.488 371.052 407.304 366.012 399.384 366.012ZM399.384 372.828C403.368 372.828 407.352 374.22 407.352 378.828C407.352 383.484 403.368 384.876 399.384 384.876C395.448 384.876 391.464 383.484 391.464 378.828C391.464 374.22 395.448 372.828 399.384 372.828Z" fill="white"/>
<path d="M350.398 249.898C350.398 251.636 350.909 253.852 351.352 254.909L352.92 254.432C352.716 253.818 352.034 251.841 352.034 249.966C352.034 244.136 355.307 241.034 361.102 241.034C366.795 241.034 370.205 244.205 370.205 249.557C370.205 254.977 366.386 257.534 362.568 257.534C358.682 257.534 356.943 257.125 356.943 255.386C356.943 254.364 357.795 253.818 358.75 253.818H366.455V252.011H365.5V251.909C366.25 251.67 366.898 250.341 366.727 248.636C366.455 246.08 364.341 244.136 361.273 244.136C358.034 244.136 355.545 245.67 355.443 248.636C355.375 250.58 356.33 251.602 357.318 252.011V252.114C355.852 252.318 355.341 254.159 355.341 255.352C355.341 258.966 359.227 259.307 362.534 259.307C367.205 259.307 371.807 256.034 371.807 249.659C371.807 243.08 367.818 239.159 361.17 239.159C354.284 239.159 350.398 242.943 350.398 249.898ZM357.182 248.909C357.182 246.693 359.193 245.909 361.375 245.909C363.352 245.909 365.057 247.034 365.057 248.977C365.057 251.023 364.239 252.114 361.375 252.114C358.545 252.114 357.182 251.193 357.182 248.909ZM355 262.317V264.329H363.182C365.099 264.329 366.455 265.727 366.455 267.295C366.455 268.82 365.457 269.886 363.966 269.886H355V271.931H363.523C365.21 271.931 366.455 272.988 366.455 274.829C366.455 276.261 365.696 277.488 363.761 277.488H355V279.499H363.761C366.838 279.499 368.261 277.846 368.261 275.511C368.261 273.636 367.401 272.263 366.045 271.59V271.454C367.443 270.806 368.261 269.664 368.261 267.942C368.261 266.238 367.443 264.977 366.045 264.431V264.261H368.091V262.317H355ZM360.352 291.427C357.898 291.427 356.773 289.552 356.773 288.052C356.773 286.381 358 285.188 359.909 285.188H368.091V283.177H359.773C356.432 283.177 354.83 284.95 354.83 287.404C354.83 289.381 355.886 290.677 357.216 291.29V291.427H355V293.438H368.091V291.427H360.352ZM365.159 306.395C367.017 305.764 368.261 304.349 368.261 301.759C368.261 298.997 366.693 296.952 364.477 296.952C362.67 296.952 361.46 298.026 360.898 300.429L360.386 302.611C360.08 303.932 359.449 304.554 358.545 304.554C357.42 304.554 356.5 303.361 356.5 301.486C356.5 299.841 357.207 298.81 358.614 298.452L358.136 296.543C355.912 297.011 354.727 298.844 354.727 301.52C354.727 304.562 356.389 306.634 358.648 306.634C360.472 306.634 361.622 305.491 362.193 303.156L362.67 301.213C363.054 299.662 363.574 298.963 364.58 298.963C365.705 298.963 366.523 300.156 366.523 301.759C366.523 303.514 365.551 304.239 364.648 304.588L365.159 306.395ZM362.875 311.673C365.159 311.673 366.455 313.13 366.455 315.116C366.455 317.008 365.261 318.15 363.182 318.15H355V320.161H363.318C366.685 320.161 368.261 318.371 368.261 315.695C368.261 313.633 367.401 312.457 366.045 311.843V311.673H372.455V309.661H355V311.673H362.875ZM354.727 329.159C354.727 332.705 357.42 335.091 361.477 335.091C365.568 335.091 368.261 332.705 368.261 329.159C368.261 325.614 365.568 323.227 361.477 323.227C357.42 323.227 354.727 325.614 354.727 329.159ZM356.534 329.159C356.534 326.466 358.852 325.239 361.477 325.239C364.102 325.239 366.455 326.466 366.455 329.159C366.455 331.852 364.102 333.08 361.477 333.08C358.852 333.08 356.534 331.852 356.534 329.159Z" fill="white"/>
<path fill-rule="evenodd" clip-rule="evenodd" d="M297.519 250.338H292.787C289.926 250.338 287.618 247.995 287.618 245.146C287.618 242.322 289.905 240 292.74 240C294.532 240 296.109 240.92 297.025 242.313C297.94 240.92 299.517 240 301.309 240C303.101 240 304.678 240.92 305.593 242.313C306.509 240.92 308.086 240 309.877 240C312.707 240 315 242.293 315 245.123V253.877C315 256.707 312.707 259 309.877 259C308.086 259 306.509 258.08 305.593 256.687C304.678 258.08 303.101 259 301.309 259C298.48 259 296.186 256.707 296.186 253.877V253.784C296.186 252.457 296.691 251.248 297.519 250.338ZM304.755 245.112L304.755 245.123V248.662L301.324 248.662C301.319 248.662 301.314 248.662 301.309 248.662C301.304 248.662 301.299 248.662 301.294 248.662L297.863 248.662V245.123C297.863 243.219 299.406 241.676 301.309 241.676C303.209 241.676 304.749 243.214 304.755 245.112ZM301.296 250.338C299.399 250.345 297.863 251.885 297.863 253.784V253.877C297.863 255.781 299.406 257.324 301.309 257.324C303.209 257.324 304.749 255.786 304.755 253.888C304.755 253.884 304.755 253.881 304.755 253.877V253.771C304.748 251.878 303.215 250.345 301.322 250.338H301.296ZM306.431 253.888C306.437 255.786 307.978 257.324 309.877 257.324C311.781 257.324 313.324 255.781 313.324 253.877V250.338H306.431V253.768C306.431 253.773 306.431 253.779 306.431 253.784V253.877C306.431 253.881 306.431 253.884 306.431 253.888ZM306.431 248.662V245.123L306.431 245.112C306.437 243.214 307.978 241.676 309.877 241.676C311.781 241.676 313.324 243.219 313.324 245.123V248.662H306.431ZM289.294 245.146C289.294 243.237 290.843 241.676 292.74 241.676C294.643 241.676 296.186 243.219 296.186 245.123V248.662H292.787C290.864 248.662 289.294 247.081 289.294 245.146Z" fill="#5D26C1"/>
<path d="M309.048 308.831C309.418 309.079 309.906 309.052 310.247 308.766C310.484 308.567 310.61 308.276 310.604 307.98C310.835 308.088 311.075 308.183 311.321 308.262C311.717 308.389 312.149 308.258 312.409 307.934C312.668 307.609 312.699 307.158 312.488 306.801C312.043 306.048 311.701 305.227 311.481 304.358C312.425 303.278 313 301.859 313 300.309C313 296.929 310.268 294.181 306.889 294.181C306.872 294.181 306.854 294.181 306.836 294.181C307.315 290.696 309.108 287.636 311.699 285.514C311.953 285.307 312.088 284.988 312.062 284.661C312.036 284.335 311.852 284.041 311.569 283.876C310.665 283.35 309.615 283.047 308.497 283.047C307.539 283.047 306.631 283.269 305.823 283.663C305.803 283.606 305.777 283.551 305.745 283.497C305.565 283.192 305.238 283.005 304.884 283.005H304.818C303.032 283.005 301.428 283.773 300.311 284.996C300.054 284.808 299.721 284.753 299.414 284.851C297.818 285.365 296.507 286.52 295.784 288.014C295.271 286.856 294.986 285.574 294.986 284.224C294.986 283.849 295.008 283.48 295.05 283.117C295.105 282.654 294.832 282.215 294.393 282.058C293.954 281.902 293.466 282.069 293.215 282.462C291.665 284.887 290.762 287.768 290.762 290.861C290.762 300.961 299.112 306.456 306.297 306.456C306.355 306.456 306.413 306.455 306.471 306.454C307.201 307.372 308.07 308.176 309.044 308.828L309.044 308.829L309.048 308.831Z" stroke="#5D26C1" stroke-width="2" stroke-linejoin="round"/>
<path fill-rule="evenodd" clip-rule="evenodd" d="M307.361 336.451C308.518 337.608 309.168 339.176 309.168 340.812C309.168 342.448 308.518 344.017 307.361 345.174C306.205 346.33 304.636 346.98 303 346.98C301.364 346.98 299.795 346.33 298.639 345.174C297.482 344.017 296.832 342.448 296.832 340.812C296.832 339.176 297.482 337.608 298.639 336.451C299.795 335.294 301.364 334.644 303 334.644C304.636 334.644 306.205 335.294 307.361 336.451ZM299.301 339.28C299.1 339.766 298.996 340.286 298.996 340.812C298.996 341.874 299.418 342.893 300.169 343.644C300.92 344.394 301.938 344.816 303 344.816C304.062 344.816 305.08 344.394 305.831 343.644C306.582 342.893 307.004 341.874 307.004 340.812C307.004 340.286 306.9 339.766 306.699 339.28C306.498 338.794 306.203 338.353 305.831 337.981C305.459 337.609 305.018 337.314 304.532 337.113C304.047 336.912 303.526 336.808 303 336.808C302.474 336.808 301.954 336.912 301.468 337.113C300.982 337.314 300.541 337.609 300.169 337.981C299.797 338.353 299.502 338.794 299.301 339.28Z" fill="#5D26C1"/>
<path d="M308.249 348.348C308.523 348.621 308.893 348.775 309.28 348.775C309.667 348.775 310.038 348.621 310.311 348.348C310.584 348.075 310.738 347.704 310.738 347.317C310.738 346.93 310.584 346.559 310.311 346.286C310.038 346.013 309.667 345.859 309.28 345.859C308.893 345.859 308.523 346.013 308.249 346.286C307.976 346.559 307.822 346.93 307.822 347.317C307.822 347.704 307.976 348.075 308.249 348.348Z" fill="#5D26C1"/>
<path fill-rule="evenodd" clip-rule="evenodd" d="M314.928 335.865C314.987 337.145 315 337.553 315 340.812C315 344.072 314.986 344.48 314.928 345.759C314.87 347.037 314.667 347.91 314.37 348.673C314.069 349.474 313.596 350.199 312.986 350.798C312.387 351.409 311.661 351.881 310.861 352.182C310.097 352.479 309.225 352.682 307.947 352.74C306.667 352.799 306.259 352.812 303 352.812C299.741 352.812 299.333 352.798 298.053 352.74C296.775 352.682 295.903 352.479 295.139 352.182C294.351 351.876 293.681 351.465 293.014 350.798C292.404 350.199 291.931 349.474 291.63 348.673C291.333 347.91 291.131 347.037 291.072 345.76C291.013 344.48 291 344.072 291 340.812C291 337.553 291.014 337.145 291.072 335.865C291.13 334.588 291.333 333.715 291.63 332.952C291.937 332.163 292.347 331.493 293.014 330.826C293.613 330.216 294.339 329.744 295.139 329.442C295.903 329.146 296.775 328.943 298.053 328.884C299.333 328.826 299.74 328.812 303 328.812C306.26 328.812 306.667 328.826 307.947 328.884C309.225 328.942 310.097 329.146 310.861 329.442C311.661 329.744 312.387 330.216 312.986 330.826C313.596 331.426 314.069 332.151 314.37 332.952C314.667 333.715 314.869 334.588 314.928 335.865ZM312.768 345.662C312.825 344.396 312.838 344.016 312.838 340.812C312.838 337.608 312.825 337.228 312.768 335.963C312.715 334.793 312.519 334.158 312.355 333.735C312.137 333.175 311.877 332.775 311.457 332.355C311.037 331.936 310.637 331.675 310.077 331.458C309.655 331.293 309.019 331.098 307.849 331.044C306.584 330.987 306.204 330.974 303 330.974C299.796 330.974 299.416 330.987 298.151 331.044C296.981 331.098 296.345 331.293 295.923 331.458C295.401 331.65 294.93 331.956 294.543 332.355C294.144 332.742 293.838 333.214 293.645 333.735C293.481 334.158 293.285 334.793 293.232 335.963C293.175 337.228 293.162 337.608 293.162 340.812C293.162 344.017 293.175 344.396 293.232 345.662C293.285 346.832 293.481 347.467 293.645 347.89C293.863 348.45 294.123 348.85 294.543 349.27C294.93 349.668 295.401 349.975 295.923 350.167C296.345 350.332 296.981 350.527 298.151 350.58C299.416 350.638 299.796 350.65 303 350.65C306.204 350.65 306.584 350.638 307.849 350.58C309.019 350.527 309.655 350.332 310.077 350.167C310.637 349.95 311.037 349.69 311.457 349.27C311.877 348.85 312.137 348.45 312.355 347.89C312.519 347.467 312.715 346.832 312.768 345.662Z" fill="#5D26C1"/>
<path fill-rule="evenodd" clip-rule="evenodd" d="M315 390C315 383.375 309.625 378 303 378C296.375 378 291 383.375 291 390C291 396.612 296.375 402 303 402C309.625 402 315 396.612 315 390ZM309.469 397.926C307.725 399.358 305.499 400.217 303.091 400.243C303.156 399.905 303.846 396.521 303.416 393.111C303.586 393.033 303.768 392.967 303.95 392.889C304.445 392.681 304.952 392.447 305.434 392.213C306.97 395.987 309.182 397.705 309.469 397.926ZM313.23 390C313.23 392.603 312.254 394.985 310.653 396.794C310.393 396.612 308.323 395.063 306.957 391.419C310.041 389.74 312.566 387.879 312.957 387.592C313.139 388.36 313.23 389.167 313.23 390ZM312.267 385.64C311.902 385.913 309.364 387.735 306.345 389.44C305.069 384.651 305.095 380.421 305.095 379.965C308.271 380.629 310.913 382.777 312.267 385.64ZM302.987 379.744C303.091 379.744 303.195 379.744 303.299 379.744C303.286 380.187 303.221 385.158 304.757 390.273C304.184 390.573 303.599 390.846 303.013 391.106C302.974 390.976 302.935 390.833 302.896 390.703C301.191 385.419 296.531 382.607 296.141 382.373C297.95 380.746 300.358 379.744 302.987 379.744ZM292.744 390C292.744 387.631 293.551 385.445 294.905 383.714C295.282 383.896 299.291 385.978 301.308 391.757C301.321 391.783 301.321 391.796 301.334 391.822C297.599 393.267 294.462 393.853 293.564 394.009C293.03 392.772 292.744 391.419 292.744 390ZM294.501 395.714C295.126 395.61 298.119 395.063 301.803 393.722C302.31 396.937 301.477 399.748 301.36 400.1C298.51 399.657 296.05 398.017 294.501 395.714Z" fill="#A17FE0"/>
<g filter="url(#filter0_i)">
<path d="M746 198C766.987 198 784 215.013 784 236V524C784 531.732 777.732 538 770 538H282C261.013 538 244 520.987 244 500V212C244 204.268 250.268 198 258 198L746 198Z" fill="#A17FE0"/>
</g>
<path d="M416.728 260.901L425.03 260.995L425.214 244.773L442.069 244.964L441.885 261.186L450.169 261.28L450.613 222.009L442.329 221.916L442.146 238.118L425.291 237.928L425.474 221.725L417.172 221.631L416.728 260.901ZM456.861 261.355L465.029 261.448L465.362 231.995L457.194 231.903L456.861 261.355ZM461.34 228.152C463.775 228.18 465.79 226.342 465.816 224.061C465.842 221.798 463.869 219.915 461.433 219.888C459.017 219.861 457.002 221.698 456.977 223.961C456.951 226.242 458.924 228.125 461.34 228.152Z" fill="url(#paint0_linear)"/>
<g filter="url(#filter1_i)">
<path d="M339.5 297.5C339.5 284.245 350.245 273.5 363.5 273.5H554.5C567.755 273.5 578.5 284.245 578.5 297.5V366.5C578.5 367.052 578.052 367.5 577.5 367.5H363.5C350.245 367.5 339.5 356.755 339.5 343.5V297.5Z" fill="url(#paint1_linear)"/>
</g>
<g filter="url(#filter2_d)">
<path d="M417.077 368.26C417.077 367.708 417.525 367.26 418.077 367.26H577.077C577.629 367.26 578.077 367.708 578.077 368.26V391.26C578.077 404.515 567.332 415.26 554.077 415.26H441.077C427.822 415.26 417.077 404.515 417.077 391.26V368.26Z" fill="#A17FE0"/>
</g>
<path d="M451.352 399.575C454.249 399.608 456.178 397.857 456.546 395.542L454.534 395.52C454.143 396.947 452.94 397.786 451.372 397.768C448.986 397.741 447.474 395.747 447.509 392.713C447.542 389.747 449.132 387.822 451.484 387.848C453.257 387.868 454.301 388.971 454.595 390.168L456.606 390.19C456.293 387.732 454.232 386.072 451.471 386.041C447.926 386.001 445.542 388.77 445.497 392.758C445.452 396.678 447.67 399.533 451.352 399.575ZM463.291 399.744C465.575 399.77 466.782 398.556 467.201 397.708L467.303 397.71L467.283 399.482L469.294 399.505L469.392 390.881C469.439 386.722 466.274 386.209 464.603 386.19C462.626 386.167 460.369 386.824 459.319 389.198L461.22 389.902C461.674 388.952 462.734 387.941 464.652 387.963C466.501 387.984 467.402 388.974 467.383 390.653L467.382 390.721C467.371 391.693 466.383 391.597 463.994 391.876C461.561 392.164 458.905 392.671 458.871 395.671C458.842 398.228 460.803 399.716 463.291 399.744ZM463.618 397.941C462.016 397.923 460.865 397.194 460.881 395.796C460.898 394.262 462.301 393.801 463.872 393.614C464.725 393.521 467.012 393.308 467.357 392.903L467.336 394.744C467.318 396.38 466.004 397.968 463.618 397.941ZM475.065 391.695C475.091 389.411 476.52 388.131 478.446 388.153C480.313 388.174 481.433 389.406 481.409 391.46L481.317 399.641L483.328 399.664L483.422 391.346C483.46 388.005 481.697 386.383 479.046 386.353C477.069 386.331 475.832 387.203 475.203 388.526L475.033 388.524L475.056 386.478L473.113 386.456L472.965 399.546L474.976 399.569L475.065 391.695ZM495.853 391.93C495.879 389.646 497.351 388.367 499.336 388.389C501.228 388.411 502.357 389.617 502.333 391.696L502.241 399.877L504.252 399.9L504.346 391.583C504.384 388.216 502.612 386.619 499.936 386.589C497.874 386.566 496.688 387.413 496.059 388.761L495.889 388.759L495.961 382.351L493.95 382.328L493.753 399.782L495.764 399.804L495.853 391.93ZM513.417 400.277C516.076 400.307 518.034 398.999 518.67 397.029L516.733 396.462C516.206 397.819 515.014 398.488 513.437 398.47C511.077 398.443 509.466 396.899 509.404 394.094L518.906 394.202L518.916 393.35C518.971 388.475 516.092 386.772 513.365 386.741C509.82 386.701 507.436 389.47 507.391 393.492C507.345 397.515 509.633 400.234 513.417 400.277ZM509.424 392.356C509.583 390.321 511.044 388.522 513.345 388.548C515.527 388.572 516.906 390.224 516.881 392.44L509.424 392.356ZM524.108 382.669L522.097 382.646L521.899 400.1L523.911 400.122L524.108 382.669ZM527.539 405.073L529.55 405.096L529.628 398.176L529.799 398.178C530.234 398.898 531.068 400.476 533.591 400.505C536.863 400.542 539.177 397.943 539.224 393.784C539.271 389.659 537.016 387.008 533.71 386.971C531.153 386.942 530.351 388.501 529.901 389.178L529.662 389.175L529.685 387.096L527.742 387.074L527.539 405.073ZM529.646 393.641C529.679 390.71 530.996 388.747 533.451 388.775C536.007 388.804 537.244 390.966 537.213 393.727C537.182 396.522 535.861 398.723 533.339 398.695C530.918 398.667 529.612 396.607 529.646 393.641ZM544.899 395.45L546.944 395.473L546.945 395.371C547.003 393.258 547.559 392.344 549.07 391.423C550.58 390.528 551.481 389.226 551.502 387.343C551.532 384.684 549.611 382.719 546.611 382.685C543.85 382.654 541.641 384.333 541.48 387.229L543.628 387.254C543.778 385.244 545.194 384.442 546.591 384.457C548.194 384.476 549.477 385.547 549.458 387.217C549.443 388.572 548.656 389.535 547.652 390.129C545.97 391.124 544.962 392.101 544.9 395.348L544.899 395.45ZM545.933 400.508C546.776 400.517 547.474 399.835 547.484 398.991C547.493 398.147 546.811 397.449 545.967 397.44C545.124 397.43 544.425 398.113 544.416 398.956C544.406 399.8 545.089 400.498 545.933 400.508Z" fill="white"/>
<g clip-path="url(#clip0)">
<g filter="url(#filter3_d)">
<path fill-rule="evenodd" clip-rule="evenodd" d="M414.338 499.481V504.213C414.338 507.074 411.995 509.382 409.146 509.382C406.322 509.382 404 507.095 404 504.26C404 502.468 404.92 500.891 406.313 499.975C404.92 499.06 404 497.483 404 495.691C404 493.899 404.92 492.322 406.313 491.407C404.92 490.491 404 488.914 404 487.123C404 484.293 406.293 482 409.123 482H417.877C420.707 482 423 484.293 423 487.123C423 488.914 422.08 490.491 420.687 491.407C422.08 492.322 423 493.899 423 495.691C423 498.52 420.707 500.814 417.877 500.814H417.784C416.457 500.814 415.248 500.309 414.338 499.481ZM409.112 492.245L409.123 492.245H412.662L412.662 495.676C412.662 495.681 412.662 495.686 412.662 495.691C412.662 495.696 412.662 495.701 412.662 495.706L412.662 499.137H409.123C407.219 499.137 405.676 497.594 405.676 495.691C405.676 493.791 407.214 492.251 409.112 492.245ZM414.338 495.704C414.345 497.601 415.885 499.137 417.784 499.137H417.877C419.781 499.137 421.324 497.594 421.324 495.691C421.324 493.791 419.786 492.251 417.888 492.245C417.884 492.245 417.881 492.245 417.877 492.245H417.771C415.878 492.252 414.345 493.785 414.338 495.678V495.704ZM417.888 490.569C419.786 490.563 421.324 489.022 421.324 487.123C421.324 485.219 419.781 483.676 417.877 483.676H414.338V490.569H417.768C417.773 490.569 417.779 490.569 417.784 490.569H417.877C417.881 490.569 417.884 490.569 417.888 490.569ZM412.662 490.569H409.123L409.112 490.569C407.214 490.563 405.676 489.022 405.676 487.123C405.676 485.219 407.219 483.676 409.123 483.676H412.662V490.569ZM409.146 507.706C407.237 507.706 405.676 506.157 405.676 504.26C405.676 502.357 407.219 500.814 409.123 500.814H412.662V504.213C412.662 506.136 411.081 507.706 409.146 507.706Z" fill="#5D26C1"/>
</g>
</g>
<g filter="url(#filter4_d)">
<path d="M492.831 487.952C493.079 487.582 493.052 487.094 492.766 486.753C492.567 486.516 492.276 486.39 491.98 486.396C492.088 486.165 492.183 485.925 492.262 485.679C492.389 485.283 492.258 484.851 491.934 484.591C491.609 484.332 491.158 484.301 490.801 484.512C490.048 484.957 489.227 485.299 488.358 485.519C487.278 484.575 485.859 484 484.309 484C480.929 484 478.181 486.732 478.181 490.111C478.181 490.128 478.181 490.146 478.181 490.164C474.696 489.685 471.636 487.892 469.514 485.301C469.307 485.047 468.988 484.912 468.661 484.938C468.335 484.964 468.041 485.148 467.876 485.431C467.35 486.335 467.047 487.385 467.047 488.503C467.047 489.461 467.269 490.369 467.663 491.177C467.606 491.197 467.551 491.223 467.497 491.255C467.192 491.435 467.005 491.762 467.005 492.116V492.182C467.005 493.968 467.773 495.572 468.996 496.689C468.808 496.946 468.753 497.279 468.851 497.586C469.365 499.182 470.52 500.493 472.014 501.216C470.856 501.729 469.574 502.014 468.224 502.014C467.849 502.014 467.48 501.992 467.117 501.95C466.654 501.895 466.215 502.168 466.058 502.607C465.902 503.046 466.069 503.534 466.462 503.785C468.887 505.335 471.768 506.238 474.861 506.238C484.961 506.238 490.456 497.888 490.456 490.703C490.456 490.645 490.455 490.587 490.454 490.529C491.372 489.799 492.176 488.93 492.828 487.956L492.829 487.956L492.831 487.952Z" stroke="#5D26C1" stroke-width="2" stroke-linejoin="round"/>
</g>
<g filter="url(#filter5_d)">
<path fill-rule="evenodd" clip-rule="evenodd" d="M540.451 489.639C541.608 488.482 543.177 487.832 544.813 487.832C546.448 487.832 548.017 488.482 549.174 489.639C550.331 490.795 550.981 492.364 550.981 494C550.981 495.636 550.331 497.205 549.174 498.361C548.017 499.518 546.448 500.168 544.813 500.168C543.177 500.168 541.608 499.518 540.451 498.361C539.294 497.205 538.645 495.636 538.645 494C538.645 492.364 539.294 490.795 540.451 489.639ZM543.28 497.699C543.766 497.9 544.287 498.004 544.813 498.004C545.874 498.004 546.893 497.582 547.644 496.831C548.395 496.08 548.817 495.062 548.817 494C548.817 492.938 548.395 491.92 547.644 491.169C546.893 490.418 545.874 489.996 544.813 489.996C544.287 489.996 543.766 490.1 543.28 490.301C542.794 490.502 542.353 490.797 541.981 491.169C541.609 491.541 541.315 491.982 541.113 492.468C540.912 492.953 540.809 493.474 540.809 494C540.809 494.526 540.912 495.046 541.113 495.532C541.315 496.018 541.609 496.459 541.981 496.831C542.353 497.203 542.794 497.498 543.28 497.699Z" fill="#5D26C1"/>
<path d="M552.348 488.751C552.622 488.477 552.775 488.107 552.775 487.72C552.775 487.333 552.622 486.962 552.348 486.689C552.075 486.416 551.704 486.262 551.317 486.262C550.931 486.262 550.56 486.416 550.286 486.689C550.013 486.962 549.859 487.333 549.859 487.72C549.859 488.107 550.013 488.477 550.286 488.751C550.56 489.024 550.931 489.178 551.317 489.178C551.704 489.178 552.075 489.024 552.348 488.751Z" fill="#5D26C1"/>
<path fill-rule="evenodd" clip-rule="evenodd" d="M539.865 482.072C541.145 482.013 541.553 482 544.812 482C548.073 482 548.48 482.014 549.759 482.072C551.037 482.13 551.91 482.333 552.673 482.63C553.474 482.931 554.199 483.404 554.799 484.014C555.409 484.613 555.881 485.339 556.183 486.139C556.479 486.903 556.682 487.775 556.74 489.053C556.799 490.333 556.812 490.741 556.812 494C556.812 497.259 556.799 497.667 556.74 498.947C556.682 500.225 556.479 501.097 556.183 501.861C555.876 502.649 555.465 503.319 554.799 503.986C554.199 504.596 553.474 505.069 552.673 505.37C551.91 505.667 551.037 505.869 549.76 505.928C548.48 505.987 548.072 506 544.812 506C541.553 506 541.145 505.986 539.865 505.928C538.588 505.87 537.715 505.667 536.952 505.37C536.163 505.063 535.493 504.653 534.826 503.986C534.216 503.387 533.744 502.661 533.442 501.861C533.146 501.097 532.943 500.225 532.885 498.947C532.826 497.667 532.812 497.26 532.812 494C532.812 490.74 532.827 490.333 532.885 489.053C532.943 487.775 533.146 486.903 533.442 486.139C533.744 485.339 534.216 484.613 534.826 484.014C535.426 483.404 536.151 482.931 536.952 482.63C537.715 482.333 538.588 482.131 539.865 482.072ZM549.662 484.232C548.397 484.175 548.017 484.162 544.812 484.162C541.609 484.162 541.229 484.175 539.963 484.232C538.793 484.285 538.158 484.481 537.735 484.645C537.175 484.863 536.775 485.123 536.355 485.543C535.936 485.963 535.675 486.363 535.458 486.923C535.293 487.345 535.098 487.981 535.045 489.151C534.987 490.416 534.975 490.796 534.975 494C534.975 497.204 534.987 497.584 535.045 498.849C535.098 500.019 535.293 500.655 535.458 501.077C535.65 501.599 535.957 502.07 536.355 502.457C536.742 502.856 537.214 503.162 537.735 503.355C538.158 503.519 538.793 503.715 539.963 503.768C541.229 503.825 541.608 503.838 544.812 503.838C548.017 503.838 548.397 503.825 549.662 503.768C550.832 503.715 551.467 503.519 551.89 503.355C552.45 503.137 552.85 502.877 553.27 502.457C553.668 502.07 553.975 501.599 554.167 501.077C554.332 500.655 554.527 500.019 554.581 498.849C554.638 497.584 554.651 497.204 554.651 494C554.651 490.796 554.638 490.416 554.581 489.151C554.527 487.981 554.332 487.345 554.167 486.923C553.95 486.363 553.69 485.963 553.27 485.543C552.85 485.123 552.45 484.863 551.89 484.645C551.467 484.481 550.832 484.285 549.662 484.232Z" fill="#5D26C1"/>
</g>
<g filter="url(#filter6_d)">
<path fill-rule="evenodd" clip-rule="evenodd" d="M614 482C607.375 482 602 487.375 602 494C602 500.625 607.375 506 614 506C620.612 506 626 500.625 626 494C626 487.375 620.612 482 614 482ZM621.926 487.531C623.358 489.275 624.217 491.501 624.243 493.909C623.905 493.844 620.521 493.154 617.111 493.584C617.033 493.414 616.967 493.232 616.889 493.05C616.681 492.555 616.447 492.048 616.213 491.566C619.987 490.03 621.705 487.818 621.926 487.531ZM614 483.77C616.603 483.77 618.985 484.746 620.794 486.347C620.612 486.607 619.063 488.677 615.419 490.043C613.74 486.959 611.879 484.434 611.592 484.043C612.36 483.861 613.167 483.77 614 483.77ZM609.64 484.733C609.913 485.098 611.735 487.636 613.44 490.655C608.651 491.931 604.421 491.905 603.965 491.905C604.629 488.729 606.777 486.087 609.64 484.733ZM603.744 494.013C603.744 493.909 603.744 493.805 603.744 493.701C604.187 493.714 609.158 493.779 614.273 492.243C614.573 492.816 614.846 493.401 615.106 493.987C614.976 494.026 614.833 494.065 614.703 494.104C609.419 495.809 606.607 500.469 606.373 500.859C604.746 499.05 603.744 496.642 603.744 494.013ZM614 504.256C611.631 504.256 609.445 503.449 607.714 502.095C607.896 501.718 609.978 497.709 615.757 495.692C615.783 495.679 615.796 495.679 615.822 495.666C617.267 499.401 617.853 502.538 618.009 503.436C616.772 503.97 615.419 504.256 614 504.256ZM619.714 502.499C619.61 501.874 619.063 498.881 617.722 495.197C620.937 494.69 623.748 495.523 624.1 495.64C623.657 498.49 622.017 500.95 619.714 502.499Z" fill="#A17FE0"/>
</g>
<path d="M353.282 344.19L361.585 344.283L361.768 328.061L378.623 328.252L378.44 344.474L386.723 344.568L387.167 305.297L378.884 305.204L378.701 321.407L361.846 321.216L362.029 305.013L353.726 304.919L353.282 344.19ZM406.716 345.369C415.652 345.47 421.282 339.416 421.384 330.346C421.487 321.219 415.996 315.059 407.06 314.958C398.125 314.857 392.495 320.891 392.392 330.019C392.289 339.088 397.781 345.268 406.716 345.369ZM406.826 339.042C402.704 338.995 400.637 335.194 400.695 330.055C400.753 324.916 402.905 321.143 407.028 321.19C411.074 321.236 413.14 325.056 413.082 330.195C413.024 335.334 410.872 339.087 406.826 339.042ZM431.602 345.075L440.231 345.173L445.503 326.707L445.867 326.711L450.72 345.291L459.368 345.389L467.696 316.027L459.451 315.933L454.742 335.556L454.493 335.553L449.883 315.825L441.772 315.734L436.793 335.468L436.524 335.465L432.184 315.625L423.92 315.532L431.602 345.075ZM493.211 345.772L501.303 345.863L509.052 320.272L509.359 320.276L516.547 346.035L524.639 346.127L536.319 306.984L527.25 306.881L520.44 334.151L520.095 334.147L513.252 306.723L505.486 306.635L498.006 333.84L497.68 333.836L491.488 306.477L482.419 306.374L493.211 345.772ZM550.418 346.994C557.704 347.076 562.653 343.584 563.865 338.132L556.316 337.548C555.466 339.782 553.344 340.928 550.621 340.898C546.537 340.851 543.979 338.118 544.028 333.727L544.029 333.708L564.086 333.935L564.111 331.691C564.224 321.682 558.221 316.667 550.436 316.579C541.769 316.481 536.081 322.572 535.978 331.661C535.872 340.999 541.348 346.891 550.418 346.994ZM544.086 328.646C544.296 325.292 546.877 322.637 550.501 322.678C554.048 322.718 556.474 325.277 556.454 328.786L544.086 328.646Z" fill="#A17FE0"/>
<g filter="url(#filter7_dd)">
<circle cx="514" cy="594" r="6" fill="#A17FE0"/>
</g>
<g filter="url(#filter8_d)">
<circle cx="478" cy="594" r="6" fill="#A17FE0"/>
</g>
<g filter="url(#filter9_i)">
<circle cx="478" cy="594" r="6" fill="#A17FE0"/>
</g>
<g filter="url(#filter10_dd)">
<circle cx="550" cy="594" r="6" fill="#A17FE0"/>
</g>
<g filter="url(#filter11_d)">
<circle cx="288" cy="468" r="3" transform="rotate(90 288 468)" fill="white"/>
</g>
<g filter="url(#filter12_dd)">
<circle cx="714" cy="268" r="40" transform="rotate(90 714 268)" fill="#A17FE0"/>
</g>
<g filter="url(#filter13_di)">
<circle cx="714" cy="268" r="30" transform="rotate(90 714 268)" fill="#A17FE0"/>
</g>
<g filter="url(#filter14_d)">
<rect x="727" y="266" width="4" height="26" rx="2" transform="rotate(90 727 266)" fill="#5D26C1"/>
<rect x="716" y="281" width="4" height="26" rx="2" transform="rotate(-180 716 281)" fill="#5D26C1"/>
</g>
<g style="mix-blend-mode:overlay" opacity="0.05">
<path d="M781 435C781.552 435 782 435.448 782 436V523C782 530.18 776.18 536 769 536H281C261.118 536 245 519.882 245 500V435L781 435Z" fill="white"/>
</g>
<rect opacity="0.04" x="782" y="435" width="1" height="537" transform="rotate(90 782 435)" fill="white"/>
<defs>
<filter id="filter0_i" x="244" y="198" width="550" height="350" filterUnits="userSpaceOnUse" color-interpolation-filters="sRGB">
<feFlood flood-opacity="0" result="BackgroundImageFix"/>
<feBlend mode="normal" in="SourceGraphic" in2="BackgroundImageFix" result="shape"/>
<feColorMatrix in="SourceAlpha" type="matrix" values="0 0 0 0 0 0 0 0 0 0 0 0 0 0 0 0 0 0 127 0" result="hardAlpha"/>
<feOffset dx="10" dy="10"/>
<feGaussianBlur stdDeviation="15"/>
<feComposite in2="hardAlpha" operator="arithmetic" k2="-1" k3="1"/>
<feColorMatrix type="matrix" values="0 0 0 0 0 0 0 0 0 0.347813 0 0 0 0 0.6625 0 0 0 0.4 0"/>
<feBlend mode="multiply" in2="shape" result="effect1_innerShadow"/>
</filter>
<filter id="filter1_i" x="339.5" y="273.5" width="239" height="95" filterUnits="userSpaceOnUse" color-interpolation-filters="sRGB">
<feFlood flood-opacity="0" result="BackgroundImageFix"/>
<feBlend mode="normal" in="SourceGraphic" in2="BackgroundImageFix" result="shape"/>
<feColorMatrix in="SourceAlpha" type="matrix" values="0 0 0 0 0 0 0 0 0 0 0 0 0 0 0 0 0 0 127 0" result="hardAlpha"/>
<feOffset dy="2"/>
<feGaussianBlur stdDeviation="0.5"/>
<feComposite in2="hardAlpha" operator="arithmetic" k2="-1" k3="1"/>
<feColorMatrix type="matrix" values="0 0 0 0 1 0 0 0 0 1 0 0 0 0 1 0 0 0 0.5 0"/>
<feBlend mode="normal" in2="shape" result="effect1_innerShadow"/>
</filter>
<filter id="filter2_d" x="377.077" y="327.26" width="281" height="168" filterUnits="userSpaceOnUse" color-interpolation-filters="sRGB">
<feFlood flood-opacity="0" result="BackgroundImageFix"/>
<feColorMatrix in="SourceAlpha" type="matrix" values="0 0 0 0 0 0 0 0 0 0 0 0 0 0 0 0 0 0 127 0"/>
<feOffset dx="20" dy="20"/>
<feGaussianBlur stdDeviation="30"/>
<feColorMatrix type="matrix" values="0 0 0 0 0 0 0 0 0 0.347813 0 0 0 0 0.6625 0 0 0 0.4 0"/>
<feBlend mode="multiply" in2="BackgroundImageFix" result="effect1_dropShadow"/>
<feBlend mode="normal" in="SourceGraphic" in2="effect1_dropShadow" result="shape"/>
</filter>
<filter id="filter3_d" x="403" y="481" width="23" height="31.3824" filterUnits="userSpaceOnUse" color-interpolation-filters="sRGB">
<feFlood flood-opacity="0" result="BackgroundImageFix"/>
<feColorMatrix in="SourceAlpha" type="matrix" values="0 0 0 0 0 0 0 0 0 0 0 0 0 0 0 0 0 0 127 0"/>
<feOffset dx="1" dy="1"/>
<feGaussianBlur stdDeviation="1"/>
<feColorMatrix type="matrix" values="0 0 0 0 0.283333 0 0 0 0 0.828 0 0 0 0 1 0 0 0 0.25 0"/>
<feBlend mode="overlay" in2="BackgroundImageFix" result="effect1_dropShadow"/>
<feBlend mode="normal" in="SourceGraphic" in2="effect1_dropShadow" result="shape"/>
</filter>
<filter id="filter4_d" x="464" y="482" width="33.0002" height="28.2381" filterUnits="userSpaceOnUse" color-interpolation-filters="sRGB">
<feFlood flood-opacity="0" result="BackgroundImageFix"/>
<feColorMatrix in="SourceAlpha" type="matrix" values="0 0 0 0 0 0 0 0 0 0 0 0 0 0 0 0 0 0 127 0"/>
<feOffset dx="1" dy="1"/>
<feGaussianBlur stdDeviation="1"/>
<feColorMatrix type="matrix" values="0 0 0 0 0.283333 0 0 0 0 0.828 0 0 0 0 1 0 0 0 0.25 0"/>
<feBlend mode="overlay" in2="BackgroundImageFix" result="effect1_dropShadow"/>
<feBlend mode="normal" in="SourceGraphic" in2="effect1_dropShadow" result="shape"/>
</filter>
<filter id="filter5_d" x="531.812" y="481" width="28" height="28" filterUnits="userSpaceOnUse" color-interpolation-filters="sRGB">
<feFlood flood-opacity="0" result="BackgroundImageFix"/>
<feColorMatrix in="SourceAlpha" type="matrix" values="0 0 0 0 0 0 0 0 0 0 0 0 0 0 0 0 0 0 127 0"/>
<feOffset dx="1" dy="1"/>
<feGaussianBlur stdDeviation="1"/>
<feColorMatrix type="matrix" values="0 0 0 0 0.283333 0 0 0 0 0.828 0 0 0 0 1 0 0 0 0.25 0"/>
<feBlend mode="overlay" in2="BackgroundImageFix" result="effect1_dropShadow"/>
<feBlend mode="normal" in="SourceGraphic" in2="effect1_dropShadow" result="shape"/>
</filter>
<filter id="filter6_d" x="601" y="481" width="28" height="28" filterUnits="userSpaceOnUse" color-interpolation-filters="sRGB">
<feFlood flood-opacity="0" result="BackgroundImageFix"/>
<feColorMatrix in="SourceAlpha" type="matrix" values="0 0 0 0 0 0 0 0 0 0 0 0 0 0 0 0 0 0 127 0"/>
<feOffset dx="1" dy="1"/>
<feGaussianBlur stdDeviation="1"/>
<feColorMatrix type="matrix" values="0 0 0 0 0.283333 0 0 0 0 0.828 0 0 0 0 1 0 0 0 0.25 0"/>
<feBlend mode="overlay" in2="BackgroundImageFix" result="effect1_dropShadow"/>
<feBlend mode="normal" in="SourceGraphic" in2="effect1_dropShadow" result="shape"/>
</filter>
<filter id="filter7_dd" x="501" y="581" width="29" height="29" filterUnits="userSpaceOnUse" color-interpolation-filters="sRGB">
<feFlood flood-opacity="0" result="BackgroundImageFix"/>
<feColorMatrix in="SourceAlpha" type="matrix" values="0 0 0 0 0 0 0 0 0 0 0 0 0 0 0 0 0 0 127 0"/>
<feOffset dx="2" dy="2"/>
<feGaussianBlur stdDeviation="4"/>
<feColorMatrix type="matrix" values="0 0 0 0 0 0 0 0 0 0.347813 0 0 0 0 0.6625 0 0 0 1 0"/>
<feBlend mode="multiply" in2="BackgroundImageFix" result="effect1_dropShadow"/>
<feColorMatrix in="SourceAlpha" type="matrix" values="0 0 0 0 0 0 0 0 0 0 0 0 0 0 0 0 0 0 127 0"/>
<feOffset dx="-1" dy="-1"/>
<feGaussianBlur stdDeviation="3"/>
<feColorMatrix type="matrix" values="0 0 0 0 0.283333 0 0 0 0 0.828 0 0 0 0 1 0 0 0 1 0"/>
<feBlend mode="overlay" in2="effect1_dropShadow" result="effect2_dropShadow"/>
<feBlend mode="normal" in="SourceGraphic" in2="effect2_dropShadow" result="shape"/>
</filter>
<filter id="filter8_d" x="472" y="588" width="14" height="14" filterUnits="userSpaceOnUse" color-interpolation-filters="sRGB">
<feFlood flood-opacity="0" result="BackgroundImageFix"/>
<feColorMatrix in="SourceAlpha" type="matrix" values="0 0 0 0 0 0 0 0 0 0 0 0 0 0 0 0 0 0 127 0"/>
<feOffset dx="1" dy="1"/>
<feGaussianBlur stdDeviation="0.5"/>
<feColorMatrix type="matrix" values="0 0 0 0 0.283333 0 0 0 0 0.828 0 0 0 0 1 0 0 0 0.25 0"/>
<feBlend mode="overlay" in2="BackgroundImageFix" result="effect1_dropShadow"/>
<feBlend mode="normal" in="SourceGraphic" in2="effect1_dropShadow" result="shape"/>
</filter>
<filter id="filter9_i" x="472" y="588" width="13" height="13" filterUnits="userSpaceOnUse" color-interpolation-filters="sRGB">
<feFlood flood-opacity="0" result="BackgroundImageFix"/>
<feBlend mode="normal" in="SourceGraphic" in2="BackgroundImageFix" result="shape"/>
<feColorMatrix in="SourceAlpha" type="matrix" values="0 0 0 0 0 0 0 0 0 0 0 0 0 0 0 0 0 0 127 0" result="hardAlpha"/>
<feOffset dx="1" dy="1"/>
<feGaussianBlur stdDeviation="2"/>
<feComposite in2="hardAlpha" operator="arithmetic" k2="-1" k3="1"/>
<feColorMatrix type="matrix" values="0 0 0 0 0 0 0 0 0 0.347813 0 0 0 0 0.6625 0 0 0 0.5 0"/>
<feBlend mode="multiply" in2="shape" result="effect1_innerShadow"/>
</filter>
<filter id="filter10_dd" x="535" y="579" width="31" height="31" filterUnits="userSpaceOnUse" color-interpolation-filters="sRGB">
<feFlood flood-opacity="0" result="BackgroundImageFix"/>
<feColorMatrix in="SourceAlpha" type="matrix" values="0 0 0 0 0 0 0 0 0 0 0 0 0 0 0 0 0 0 127 0"/>
<feOffset dx="2" dy="2"/>
<feGaussianBlur stdDeviation="4"/>
<feColorMatrix type="matrix" values="0 0 0 0 0 0 0 0 0 0.347813 0 0 0 0 0.6625 0 0 0 1 0"/>
<feBlend mode="multiply" in2="BackgroundImageFix" result="effect1_dropShadow"/>
<feColorMatrix in="SourceAlpha" type="matrix" values="0 0 0 0 0 0 0 0 0 0 0 0 0 0 0 0 0 0 127 0"/>
<feOffset dx="-1" dy="-1"/>
<feGaussianBlur stdDeviation="4"/>
<feColorMatrix type="matrix" values="0 0 0 0 0.283333 0 0 0 0 0.828 0 0 0 0 1 0 0 0 1 0"/>
<feBlend mode="overlay" in2="effect1_dropShadow" result="effect2_dropShadow"/>
<feBlend mode="normal" in="SourceGraphic" in2="effect2_dropShadow" result="shape"/>
</filter>
<filter id="filter11_d" x="280" y="460" width="18" height="18" filterUnits="userSpaceOnUse" color-interpolation-filters="sRGB">
<feFlood flood-opacity="0" result="BackgroundImageFix"/>
<feColorMatrix in="SourceAlpha" type="matrix" values="0 0 0 0 0 0 0 0 0 0 0 0 0 0 0 0 0 0 127 0"/>
<feOffset dx="1" dy="1"/>
<feGaussianBlur stdDeviation="3"/>
<feColorMatrix type="matrix" values="0 0 0 0 0 0 0 0 0 0.347813 0 0 0 0 0.6625 0 0 0 0.25 0"/>
<feBlend mode="multiply" in2="BackgroundImageFix" result="effect1_dropShadow"/>
<feBlend mode="normal" in="SourceGraphic" in2="effect1_dropShadow" result="shape"/>
</filter>
<filter id="filter12_dd" x="600" y="154" width="234" height="234" filterUnits="userSpaceOnUse" color-interpolation-filters="sRGB">
<feFlood flood-opacity="0" result="BackgroundImageFix"/>
<feColorMatrix in="SourceAlpha" type="matrix" values="0 0 0 0 0 0 0 0 0 0 0 0 0 0 0 0 0 0 127 0"/>
<feOffset dx="20" dy="20"/>
<feGaussianBlur stdDeviation="30"/>
<feColorMatrix type="matrix" values="0 0 0 0 0.631373 0 0 0 0 0.498039 0 0 0 0 0.878431 0 0 0 1 0"/>
<feBlend mode="multiply" in2="BackgroundImageFix" result="effect1_dropShadow"/>
<feColorMatrix in="SourceAlpha" type="matrix" values="0 0 0 0 0 0 0 0 0 0 0 0 0 0 0 0 0 0 127 0"/>
<feOffset dx="-14" dy="-14"/>
<feGaussianBlur stdDeviation="30"/>
<feColorMatrix type="matrix" values="0 0 0 0 0.364706 0 0 0 0 0.14902 0 0 0 0 0.756863 0 0 0 1 0"/>
<feBlend mode="overlay" in2="effect1_dropShadow" result="effect2_dropShadow"/>
<feBlend mode="normal" in="SourceGraphic" in2="effect2_dropShadow" result="shape"/>
</filter>
<filter id="filter13_di" x="644" y="198" width="180" height="180" filterUnits="userSpaceOnUse" color-interpolation-filters="sRGB">
<feFlood flood-opacity="0" result="BackgroundImageFix"/>
<feColorMatrix in="SourceAlpha" type="matrix" values="0 0 0 0 0 0 0 0 0 0 0 0 0 0 0 0 0 0 127 0"/>
<feOffset dx="20" dy="20"/>
<feGaussianBlur stdDeviation="30"/>
<feColorMatrix type="matrix" values="0 0 0 0 0 0 0 0 0 0.347813 0 0 0 0 0.6625 0 0 0 0.4 0"/>
<feBlend mode="multiply" in2="BackgroundImageFix" result="effect1_dropShadow"/>
<feBlend mode="normal" in="SourceGraphic" in2="effect1_dropShadow" result="shape"/>
<feColorMatrix in="SourceAlpha" type="matrix" values="0 0 0 0 0 0 0 0 0 0 0 0 0 0 0 0 0 0 127 0" result="hardAlpha"/>
<feOffset dx="1" dy="1"/>
<feGaussianBlur stdDeviation="1"/>
<feComposite in2="hardAlpha" operator="arithmetic" k2="-1" k3="1"/>
<feColorMatrix type="matrix" values="0 0 0 0 1 0 0 0 0 1 0 0 0 0 1 0 0 0 0.5 0"/>
<feBlend mode="overlay" in2="shape" result="effect2_innerShadow"/>
</filter>
<filter id="filter14_d" x="700" y="254" width="30" height="30" filterUnits="userSpaceOnUse" color-interpolation-filters="sRGB">
<feFlood flood-opacity="0" result="BackgroundImageFix"/>
<feColorMatrix in="SourceAlpha" type="matrix" values="0 0 0 0 0 0 0 0 0 0 0 0 0 0 0 0 0 0 127 0"/>
<feOffset dx="1" dy="1"/>
<feGaussianBlur stdDeviation="1"/>
<feColorMatrix type="matrix" values="0 0 0 0 0.283333 0 0 0 0 0.828 0 0 0 0 1 0 0 0 0.25 0"/>
<feBlend mode="overlay" in2="BackgroundImageFix" result="effect1_dropShadow"/>
<feBlend mode="normal" in="SourceGraphic" in2="effect1_dropShadow" result="shape"/>
</filter>
<linearGradient id="paint0_linear" x1="523.895" y1="210.11" x2="523.161" y2="275.106" gradientUnits="userSpaceOnUse">
<stop stop-color="#A17FE0"/>
<stop offset="1" stop-color="white"/>
</linearGradient>
<linearGradient id="paint1_linear" x1="459" y1="273.5" x2="459" y2="367.5" gradientUnits="userSpaceOnUse">
<stop stop-color="#A17FE0"/>
<stop offset="1" stop-color="white"/>
</linearGradient>
<clipPath id="clip0">
<rect width="32" height="32" fill="white" transform="translate(398 480)"/>
</clipPath>
</defs>
</svg>
