<svg width="721" height="788" viewBox="0 0 721 788" fill="none" xmlns="http://www.w3.org/2000/svg">
<rect width="721" height="788" rx="32" fill="#5D26C1" fill-opacity="0.7"/>
<path d="M196 139C196 112.49 217.49 91 244 91H532C545.255 91 556 101.745 556 115V603C556 629.51 534.51 651 508 651H220C206.745 651 196 640.255 196 627V139Z" fill="#A17FE0"/>
<path d="M248.784 498H255.6V483.6C255.6 478.752 258.864 477.888 260.208 477.888C264.528 477.888 264.336 481.2 264.336 484.08V498H271.152V484.176C271.152 481.056 271.872 477.888 275.712 477.888C279.6 477.888 279.888 480.624 279.888 483.936V498H286.704V481.392C286.704 474.96 282.912 472.512 277.632 472.512C274.176 472.512 271.584 474.48 270.144 476.64C268.8 473.664 266.016 472.512 262.896 472.512C259.68 472.512 257.088 474 255.312 476.544H255.216V473.184H248.784V498ZM315.372 473.184H308.556V486.192C308.556 491.232 306.972 493.296 303.276 493.296C300.108 493.296 298.908 491.28 298.908 487.2V473.184H292.092V488.448C292.092 494.592 293.916 498.672 301.164 498.672C304.044 498.672 307.02 497.328 308.748 494.544H308.892V498H315.372V473.184ZM319.345 489.936C319.633 496.512 325.249 498.672 331.009 498.672C336.673 498.672 342.337 496.56 342.337 490.032C342.337 485.424 338.449 483.984 334.465 483.072C330.577 482.16 326.737 481.824 326.737 479.376C326.737 477.36 328.993 477.072 330.529 477.072C332.977 477.072 334.993 477.792 335.185 480.432H341.665C341.137 474.336 336.145 472.512 330.721 472.512C325.393 472.512 319.921 474.144 319.921 480.48C319.921 484.848 323.857 486.24 327.793 487.104C332.689 488.16 335.521 488.88 335.521 490.944C335.521 493.344 333.025 494.112 331.057 494.112C328.369 494.112 325.873 492.912 325.825 489.936H319.345ZM346.326 498H353.142V484.992C353.142 479.952 354.726 477.888 358.422 477.888C361.59 477.888 362.79 479.904 362.79 483.984V498H369.606V482.736C369.606 476.592 367.782 472.512 360.534 472.512C357.99 472.512 355.014 473.856 353.286 476.64H353.142V463.728H346.326V498ZM374.012 485.616C374.012 493.488 379.052 498.672 386.828 498.672C394.652 498.672 399.692 493.488 399.692 485.616C399.692 477.696 394.652 472.512 386.828 472.512C379.052 472.512 374.012 477.696 374.012 485.616ZM380.828 485.616C380.828 481.632 382.22 477.648 386.828 477.648C391.484 477.648 392.876 481.632 392.876 485.616C392.876 489.552 391.484 493.536 386.828 493.536C382.22 493.536 380.828 489.552 380.828 485.616Z" fill="white"/>
<path d="M257.898 534.602C259.636 534.602 261.852 534.091 262.909 533.648L262.432 532.08C261.818 532.284 259.841 532.966 257.966 532.966C252.136 532.966 249.034 529.693 249.034 523.898C249.034 518.205 252.205 514.795 257.557 514.795C262.977 514.795 265.534 518.614 265.534 522.432C265.534 526.318 265.125 528.057 263.386 528.057C262.364 528.057 261.818 527.205 261.818 526.25V518.545H260.011V519.5H259.909C259.67 518.75 258.341 518.102 256.636 518.273C254.08 518.545 252.136 520.659 252.136 523.727C252.136 526.966 253.67 529.455 256.636 529.557C258.58 529.625 259.602 528.67 260.011 527.682H260.114C260.318 529.148 262.159 529.659 263.352 529.659C266.966 529.659 267.307 525.773 267.307 522.466C267.307 517.795 264.034 513.193 257.659 513.193C251.08 513.193 247.159 517.182 247.159 523.83C247.159 530.716 250.943 534.602 257.898 534.602ZM256.909 527.818C254.693 527.818 253.909 525.807 253.909 523.625C253.909 521.648 255.034 519.943 256.977 519.943C259.023 519.943 260.114 520.761 260.114 523.625C260.114 526.455 259.193 527.818 256.909 527.818ZM270.317 530H272.329V521.818C272.329 519.901 273.727 518.545 275.295 518.545C276.82 518.545 277.886 519.543 277.886 521.034V530H279.931V521.477C279.931 519.79 280.988 518.545 282.829 518.545C284.261 518.545 285.488 519.304 285.488 521.239V530H287.499V521.239C287.499 518.162 285.846 516.739 283.511 516.739C281.636 516.739 280.263 517.599 279.59 518.955H279.454C278.806 517.557 277.664 516.739 275.942 516.739C274.238 516.739 272.977 517.557 272.431 518.955H272.261V516.909H270.317V530ZM299.427 524.648C299.427 527.102 297.552 528.227 296.052 528.227C294.381 528.227 293.188 527 293.188 525.091V516.909H291.177V525.227C291.177 528.568 292.95 530.17 295.404 530.17C297.381 530.17 298.677 529.114 299.29 527.784H299.427V530H301.438V516.909H299.427V524.648ZM314.395 519.841C313.764 517.983 312.349 516.739 309.759 516.739C306.997 516.739 304.952 518.307 304.952 520.523C304.952 522.33 306.026 523.54 308.429 524.102L310.611 524.614C311.932 524.92 312.554 525.551 312.554 526.455C312.554 527.58 311.361 528.5 309.486 528.5C307.841 528.5 306.81 527.793 306.452 526.386L304.543 526.864C305.011 529.088 306.844 530.273 309.52 530.273C312.562 530.273 314.634 528.611 314.634 526.352C314.634 524.528 313.491 523.378 311.156 522.807L309.213 522.33C307.662 521.946 306.963 521.426 306.963 520.42C306.963 519.295 308.156 518.477 309.759 518.477C311.514 518.477 312.239 519.449 312.588 520.352L314.395 519.841ZM319.673 522.125C319.673 519.841 321.13 518.545 323.116 518.545C325.008 518.545 326.15 519.739 326.15 521.818V530H328.161V521.682C328.161 518.315 326.371 516.739 323.695 516.739C321.633 516.739 320.457 517.599 319.843 518.955H319.673V512.545H317.661V530H319.673V522.125ZM337.159 530.273C340.705 530.273 343.091 527.58 343.091 523.523C343.091 519.432 340.705 516.739 337.159 516.739C333.614 516.739 331.227 519.432 331.227 523.523C331.227 527.58 333.614 530.273 337.159 530.273ZM337.159 528.466C334.466 528.466 333.239 526.148 333.239 523.523C333.239 520.898 334.466 518.545 337.159 518.545C339.852 518.545 341.08 520.898 341.08 523.523C341.08 526.148 339.852 528.466 337.159 528.466Z" fill="white"/>
<path fill-rule="evenodd" clip-rule="evenodd" d="M258.338 587.481V592.213C258.338 595.074 255.995 597.382 253.146 597.382C250.322 597.382 248 595.095 248 592.26C248 590.468 248.92 588.891 250.313 587.975C248.92 587.06 248 585.483 248 583.691C248 581.899 248.92 580.322 250.313 579.407C248.92 578.491 248 576.914 248 575.123C248 572.293 250.293 570 253.123 570H261.877C264.707 570 267 572.293 267 575.123C267 576.914 266.08 578.491 264.687 579.407C266.08 580.322 267 581.899 267 583.691C267 586.52 264.707 588.814 261.877 588.814H261.784C260.457 588.814 259.248 588.309 258.338 587.481ZM253.112 580.245L253.123 580.245H256.662L256.662 583.676C256.662 583.681 256.662 583.686 256.662 583.691C256.662 583.696 256.662 583.701 256.662 583.706L256.662 587.137H253.123C251.219 587.137 249.676 585.594 249.676 583.691C249.676 581.791 251.214 580.251 253.112 580.245ZM258.338 583.704C258.345 585.601 259.885 587.137 261.784 587.137H261.877C263.781 587.137 265.324 585.594 265.324 583.691C265.324 581.791 263.786 580.251 261.888 580.245C261.884 580.245 261.881 580.245 261.877 580.245H261.771C259.878 580.252 258.345 581.785 258.338 583.678V583.704ZM261.888 578.569C263.786 578.563 265.324 577.022 265.324 575.123C265.324 573.219 263.781 571.676 261.877 571.676H258.338V578.569H261.768C261.773 578.569 261.779 578.569 261.784 578.569H261.877C261.881 578.569 261.884 578.569 261.888 578.569ZM256.662 578.569H253.123L253.112 578.569C251.214 578.563 249.676 577.022 249.676 575.123C249.676 573.219 251.219 571.676 253.123 571.676H256.662V578.569ZM253.146 595.706C251.237 595.706 249.676 594.157 249.676 592.26C249.676 590.357 251.219 588.814 253.123 588.814H256.662V592.213C256.662 594.136 255.081 595.706 253.146 595.706Z" fill="#5D26C1"/>
<path d="M316.831 575.952C317.078 575.583 317.052 575.094 316.766 574.753C316.567 574.516 316.276 574.39 315.98 574.396C316.088 574.165 316.183 573.925 316.262 573.679C316.389 573.283 316.258 572.851 315.934 572.591C315.609 572.332 315.158 572.301 314.801 572.512C314.048 572.957 313.227 573.299 312.358 573.519C311.278 572.575 309.859 572 308.309 572C304.929 572 302.181 574.732 302.181 578.111C302.181 578.128 302.181 578.146 302.181 578.164C298.696 577.685 295.636 575.892 293.514 573.301C293.307 573.047 292.988 572.912 292.661 572.938C292.335 572.964 292.041 573.148 291.876 573.431C291.35 574.335 291.047 575.385 291.047 576.503C291.047 577.461 291.269 578.369 291.663 579.177C291.606 579.197 291.551 579.223 291.497 579.255C291.192 579.435 291.005 579.762 291.005 580.116V580.182C291.005 581.968 291.773 583.572 292.996 584.689C292.808 584.946 292.753 585.279 292.851 585.586C293.365 587.182 294.52 588.493 296.014 589.216C294.856 589.729 293.574 590.014 292.224 590.014C291.849 590.014 291.48 589.992 291.117 589.95C290.654 589.895 290.215 590.168 290.058 590.607C289.902 591.046 290.069 591.534 290.462 591.785C292.887 593.335 295.768 594.238 298.861 594.238C308.961 594.238 314.456 585.888 314.456 578.703C314.456 578.645 314.455 578.587 314.454 578.529C315.372 577.799 316.176 576.93 316.828 575.956L316.829 575.956L316.831 575.952Z" stroke="#5D26C1" stroke-width="2" stroke-linejoin="round"/>
<path fill-rule="evenodd" clip-rule="evenodd" d="M344.451 577.639C345.608 576.482 347.177 575.832 348.813 575.832C350.448 575.832 352.017 576.482 353.174 577.639C354.331 578.795 354.981 580.364 354.981 582C354.981 583.636 354.331 585.205 353.174 586.361C352.017 587.518 350.448 588.168 348.813 588.168C347.177 588.168 345.608 587.518 344.451 586.361C343.294 585.205 342.645 583.636 342.645 582C342.645 580.364 343.294 578.795 344.451 577.639ZM347.28 585.699C347.766 585.9 348.287 586.004 348.813 586.004C349.874 586.004 350.893 585.582 351.644 584.831C352.395 584.08 352.817 583.062 352.817 582C352.817 580.938 352.395 579.92 351.644 579.169C350.893 578.418 349.874 577.996 348.813 577.996C348.287 577.996 347.766 578.1 347.28 578.301C346.794 578.502 346.353 578.797 345.981 579.169C345.609 579.541 345.315 579.982 345.113 580.468C344.912 580.953 344.809 581.474 344.809 582C344.809 582.526 344.912 583.046 345.113 583.532C345.315 584.018 345.609 584.459 345.981 584.831C346.353 585.203 346.794 585.498 347.28 585.699Z" fill="#5D26C1"/>
<path d="M356.348 576.751C356.622 576.477 356.775 576.107 356.775 575.72C356.775 575.333 356.622 574.962 356.348 574.689C356.075 574.416 355.704 574.262 355.317 574.262C354.931 574.262 354.56 574.416 354.286 574.689C354.013 574.962 353.859 575.333 353.859 575.72C353.859 576.107 354.013 576.477 354.286 576.751C354.56 577.024 354.931 577.178 355.317 577.178C355.704 577.178 356.075 577.024 356.348 576.751Z" fill="#5D26C1"/>
<path fill-rule="evenodd" clip-rule="evenodd" d="M343.865 570.072C345.145 570.013 345.553 570 348.812 570C352.073 570 352.48 570.014 353.759 570.072C355.037 570.13 355.91 570.333 356.673 570.63C357.474 570.931 358.199 571.404 358.799 572.014C359.409 572.613 359.881 573.339 360.183 574.139C360.479 574.903 360.682 575.775 360.74 577.053C360.799 578.333 360.812 578.741 360.812 582C360.812 585.259 360.799 585.667 360.74 586.947C360.682 588.225 360.479 589.097 360.183 589.861C359.876 590.649 359.465 591.319 358.799 591.986C358.199 592.596 357.474 593.069 356.673 593.37C355.91 593.667 355.037 593.869 353.76 593.928C352.48 593.987 352.072 594 348.812 594C345.553 594 345.145 593.986 343.865 593.928C342.588 593.87 341.715 593.667 340.952 593.37C340.163 593.063 339.493 592.653 338.826 591.986C338.216 591.387 337.744 590.661 337.442 589.861C337.146 589.097 336.943 588.225 336.885 586.947C336.826 585.667 336.812 585.26 336.812 582C336.812 578.74 336.827 578.333 336.885 577.053C336.943 575.775 337.146 574.903 337.442 574.139C337.744 573.339 338.216 572.613 338.826 572.014C339.426 571.404 340.151 570.931 340.952 570.63C341.715 570.333 342.588 570.131 343.865 570.072ZM353.662 572.232C352.397 572.175 352.017 572.162 348.812 572.162C345.609 572.162 345.229 572.175 343.963 572.232C342.793 572.285 342.158 572.481 341.735 572.645C341.175 572.863 340.775 573.123 340.355 573.543C339.936 573.963 339.675 574.363 339.458 574.923C339.293 575.345 339.098 575.981 339.045 577.151C338.987 578.416 338.975 578.796 338.975 582C338.975 585.204 338.987 585.584 339.045 586.849C339.098 588.019 339.293 588.655 339.458 589.077C339.65 589.599 339.957 590.07 340.355 590.457C340.742 590.856 341.214 591.162 341.735 591.355C342.158 591.519 342.793 591.715 343.963 591.768C345.229 591.825 345.608 591.838 348.812 591.838C352.017 591.838 352.397 591.825 353.662 591.768C354.832 591.715 355.467 591.519 355.89 591.355C356.45 591.137 356.85 590.877 357.27 590.457C357.668 590.07 357.975 589.599 358.167 589.077C358.332 588.655 358.527 588.019 358.581 586.849C358.638 585.584 358.651 585.204 358.651 582C358.651 578.796 358.638 578.416 358.581 577.151C358.527 575.981 358.332 575.345 358.167 574.923C357.95 574.363 357.69 573.963 357.27 573.543C356.85 573.123 356.45 572.863 355.89 572.645C355.467 572.481 354.832 572.285 353.662 572.232Z" fill="#5D26C1"/>
<path fill-rule="evenodd" clip-rule="evenodd" d="M398 570C391.375 570 386 575.375 386 582C386 588.625 391.375 594 398 594C404.612 594 410 588.625 410 582C410 575.375 404.612 570 398 570ZM405.926 575.531C407.358 577.275 408.217 579.501 408.243 581.909C407.905 581.844 404.521 581.154 401.111 581.584C401.033 581.414 400.967 581.232 400.889 581.05C400.681 580.555 400.447 580.048 400.213 579.566C403.987 578.03 405.705 575.818 405.926 575.531ZM398 571.77C400.603 571.77 402.985 572.746 404.794 574.347C404.612 574.607 403.063 576.677 399.419 578.043C397.74 574.959 395.879 572.434 395.592 572.043C396.36 571.861 397.167 571.77 398 571.77ZM393.64 572.733C393.913 573.098 395.735 575.636 397.44 578.655C392.651 579.931 388.421 579.905 387.965 579.905C388.629 576.729 390.777 574.087 393.64 572.733ZM387.744 582.013C387.744 581.909 387.744 581.805 387.744 581.701C388.187 581.714 393.158 581.779 398.273 580.243C398.573 580.816 398.846 581.401 399.106 581.987C398.976 582.026 398.833 582.065 398.703 582.104C393.419 583.809 390.607 588.469 390.373 588.859C388.746 587.05 387.744 584.642 387.744 582.013ZM398 592.256C395.631 592.256 393.445 591.449 391.714 590.095C391.896 589.718 393.978 585.709 399.757 583.692C399.783 583.679 399.796 583.679 399.822 583.666C401.267 587.401 401.853 590.538 402.009 591.436C400.772 591.97 399.419 592.256 398 592.256ZM403.714 590.499C403.61 589.874 403.063 586.881 401.722 583.197C404.937 582.69 407.748 583.523 408.1 583.64C407.657 586.49 406.017 588.95 403.714 590.499Z" fill="#A17FE0"/>
<g filter="url(#filter0_i)">
<path d="M206 139C206 118.013 223.013 101 244 101H532C539.732 101 546 107.268 546 115V603C546 623.987 528.987 641 508 641H220C212.268 641 206 634.732 206 627V139Z" fill="#A17FE0"/>
</g>
<path d="M243.913 344H252.217V327.777H269.072V344H277.357V304.727H269.072V320.931H252.217V304.727H243.913V344ZM284.049 344H292.218V314.545H284.049V344ZM288.153 310.749C290.588 310.749 292.582 308.888 292.582 306.607C292.582 304.344 290.588 302.484 288.153 302.484C285.737 302.484 283.742 304.344 283.742 306.607C283.742 308.888 285.737 310.749 288.153 310.749Z" fill="url(#paint0_linear)"/>
<g filter="url(#filter1_i)">
<path d="M166 386C166 372.745 176.745 362 190 362H381C394.255 362 405 372.745 405 386V455C405 455.552 404.552 456 404 456H190C176.745 456 166 445.255 166 432V386Z" fill="url(#paint1_linear)"/>
</g>
<g filter="url(#filter2_d)">
<path d="M244 457C244 456.448 244.448 456 245 456H404C404.552 456 405 456.448 405 457V480C405 493.255 394.255 504 381 504H268C254.745 504 244 493.255 244 480V457Z" fill="#A17FE0"/>
</g>
<path d="M280.159 487.273C283.057 487.273 284.966 485.5 285.307 483.182H283.295C282.92 484.614 281.727 485.466 280.159 485.466C277.773 485.466 276.239 483.489 276.239 480.455C276.239 477.489 277.807 475.545 280.159 475.545C281.932 475.545 282.989 476.636 283.295 477.83H285.307C284.966 475.375 282.886 473.739 280.125 473.739C276.58 473.739 274.227 476.534 274.227 480.523C274.227 484.443 276.477 487.273 280.159 487.273ZM292.099 487.307C294.384 487.307 295.577 486.08 295.986 485.227H296.088V487H298.099V478.375C298.099 474.216 294.929 473.739 293.259 473.739C291.281 473.739 289.031 474.42 288.009 476.807L289.918 477.489C290.361 476.534 291.409 475.511 293.327 475.511C295.176 475.511 296.088 476.491 296.088 478.17V478.239C296.088 479.21 295.099 479.125 292.713 479.432C290.284 479.747 287.634 480.284 287.634 483.284C287.634 485.841 289.611 487.307 292.099 487.307ZM292.406 485.5C290.804 485.5 289.645 484.784 289.645 483.386C289.645 481.852 291.043 481.375 292.611 481.17C293.463 481.068 295.747 480.83 296.088 480.42V482.261C296.088 483.898 294.793 485.5 292.406 485.5ZM303.782 479.125C303.782 476.841 305.197 475.545 307.123 475.545C308.989 475.545 310.123 476.764 310.123 478.818V487H312.134V478.682C312.134 475.341 310.353 473.739 307.702 473.739C305.725 473.739 304.498 474.625 303.884 475.955H303.714V473.909H301.771V487H303.782V479.125ZM324.571 479.125C324.571 476.841 326.028 475.545 328.014 475.545C329.906 475.545 331.048 476.739 331.048 478.818V487H333.06V478.682C333.06 475.315 331.27 473.739 328.594 473.739C326.531 473.739 325.355 474.599 324.741 475.955H324.571V469.545H322.56V487H324.571V479.125ZM342.228 487.273C344.887 487.273 346.83 485.943 347.444 483.966L345.501 483.42C344.989 484.784 343.805 485.466 342.228 485.466C339.867 485.466 338.239 483.94 338.146 481.136H347.648V480.284C347.648 475.409 344.751 473.739 342.023 473.739C338.478 473.739 336.126 476.534 336.126 480.557C336.126 484.58 338.444 487.273 342.228 487.273ZM338.146 479.398C338.282 477.361 339.722 475.545 342.023 475.545C344.205 475.545 345.603 477.182 345.603 479.398H338.146ZM352.719 469.545H350.708V487H352.719V469.545ZM356.403 491.909H358.415V484.989H358.585C359.028 485.705 359.881 487.273 362.403 487.273C365.676 487.273 367.96 484.648 367.96 480.489C367.96 476.364 365.676 473.739 362.369 473.739C359.812 473.739 359.028 475.307 358.585 475.989H358.347V473.909H356.403V491.909ZM358.381 480.455C358.381 477.523 359.676 475.545 362.131 475.545C364.688 475.545 365.949 477.693 365.949 480.455C365.949 483.25 364.653 485.466 362.131 485.466C359.71 485.466 358.381 483.42 358.381 480.455ZM373.653 482.091H375.699V481.989C375.733 479.875 376.278 478.955 377.778 478.017C379.278 477.105 380.165 475.793 380.165 473.909C380.165 471.25 378.222 469.307 375.222 469.307C372.46 469.307 370.27 471.011 370.142 473.909H372.29C372.418 471.898 373.824 471.08 375.222 471.08C376.824 471.08 378.119 472.136 378.119 473.807C378.119 475.162 377.344 476.134 376.347 476.739C374.676 477.753 373.679 478.741 373.653 481.989V482.091ZM374.744 487.136C375.588 487.136 376.278 486.446 376.278 485.602C376.278 484.759 375.588 484.068 374.744 484.068C373.901 484.068 373.21 484.759 373.21 485.602C373.21 486.446 373.901 487.136 374.744 487.136Z" fill="white"/>
<g clip-path="url(#clip0)">
<g filter="url(#filter3_d)">
<path fill-rule="evenodd" clip-rule="evenodd" d="M276.338 577.481V582.213C276.338 585.074 273.995 587.382 271.146 587.382C268.322 587.382 266 585.095 266 582.26C266 580.468 266.92 578.891 268.313 577.975C266.92 577.06 266 575.483 266 573.691C266 571.899 266.92 570.322 268.313 569.407C266.92 568.491 266 566.914 266 565.123C266 562.293 268.293 560 271.123 560H279.877C282.707 560 285 562.293 285 565.123C285 566.914 284.08 568.491 282.687 569.407C284.08 570.322 285 571.899 285 573.691C285 576.52 282.707 578.814 279.877 578.814H279.784C278.457 578.814 277.248 578.309 276.338 577.481ZM271.112 570.245L271.123 570.245H274.662L274.662 573.676C274.662 573.681 274.662 573.686 274.662 573.691C274.662 573.696 274.662 573.701 274.662 573.706L274.662 577.137H271.123C269.219 577.137 267.676 575.594 267.676 573.691C267.676 571.791 269.214 570.251 271.112 570.245ZM276.338 573.704C276.345 575.601 277.885 577.137 279.784 577.137H279.877C281.781 577.137 283.324 575.594 283.324 573.691C283.324 571.791 281.786 570.251 279.888 570.245C279.884 570.245 279.881 570.245 279.877 570.245H279.771C277.878 570.252 276.345 571.785 276.338 573.678V573.704ZM279.888 568.569C281.786 568.563 283.324 567.022 283.324 565.123C283.324 563.219 281.781 561.676 279.877 561.676H276.338V568.569H279.768C279.773 568.569 279.779 568.569 279.784 568.569H279.877C279.881 568.569 279.884 568.569 279.888 568.569ZM274.662 568.569H271.123L271.112 568.569C269.214 568.563 267.676 567.022 267.676 565.123C267.676 563.219 269.219 561.676 271.123 561.676H274.662V568.569ZM271.146 585.706C269.237 585.706 267.676 584.157 267.676 582.26C267.676 580.357 269.219 578.814 271.123 578.814H274.662V582.213C274.662 584.136 273.081 585.706 271.146 585.706Z" fill="#5D26C1"/>
</g>
</g>
<g filter="url(#filter4_d)">
<path d="M354.831 565.952C355.078 565.583 355.052 565.094 354.766 564.753C354.567 564.516 354.276 564.39 353.98 564.396C354.088 564.165 354.183 563.925 354.262 563.679C354.389 563.283 354.258 562.851 353.934 562.591C353.609 562.332 353.158 562.301 352.801 562.512C352.048 562.957 351.227 563.299 350.358 563.519C349.278 562.575 347.859 562 346.309 562C342.929 562 340.181 564.732 340.181 568.111C340.181 568.128 340.181 568.146 340.181 568.164C336.696 567.685 333.636 565.892 331.514 563.301C331.307 563.047 330.988 562.912 330.661 562.938C330.335 562.964 330.041 563.148 329.876 563.431C329.35 564.335 329.047 565.385 329.047 566.503C329.047 567.461 329.269 568.369 329.663 569.177C329.606 569.197 329.551 569.223 329.497 569.255C329.192 569.435 329.005 569.762 329.005 570.116V570.182C329.005 571.968 329.773 573.572 330.996 574.689C330.808 574.946 330.753 575.279 330.851 575.586C331.365 577.182 332.52 578.493 334.014 579.216C332.856 579.729 331.574 580.014 330.224 580.014C329.849 580.014 329.48 579.992 329.117 579.95C328.654 579.895 328.215 580.168 328.058 580.607C327.902 581.046 328.069 581.534 328.462 581.785C330.887 583.335 333.768 584.238 336.861 584.238C346.961 584.238 352.456 575.888 352.456 568.703C352.456 568.645 352.455 568.587 352.454 568.529C353.372 567.799 354.176 566.93 354.828 565.956L354.829 565.956L354.831 565.952Z" stroke="#5D26C1" stroke-width="2" stroke-linejoin="round"/>
</g>
<g filter="url(#filter5_d)">
<path fill-rule="evenodd" clip-rule="evenodd" d="M402.451 567.639C403.608 566.482 405.177 565.832 406.813 565.832C408.448 565.832 410.017 566.482 411.174 567.639C412.331 568.795 412.981 570.364 412.981 572C412.981 573.636 412.331 575.205 411.174 576.361C410.017 577.518 408.448 578.168 406.813 578.168C405.177 578.168 403.608 577.518 402.451 576.361C401.294 575.205 400.645 573.636 400.645 572C400.645 570.364 401.294 568.795 402.451 567.639ZM405.28 575.699C405.766 575.9 406.287 576.004 406.813 576.004C407.874 576.004 408.893 575.582 409.644 574.831C410.395 574.08 410.817 573.062 410.817 572C410.817 570.938 410.395 569.92 409.644 569.169C408.893 568.418 407.874 567.996 406.813 567.996C406.287 567.996 405.766 568.1 405.28 568.301C404.794 568.502 404.353 568.797 403.981 569.169C403.609 569.541 403.315 569.982 403.113 570.468C402.912 570.953 402.809 571.474 402.809 572C402.809 572.526 402.912 573.046 403.113 573.532C403.315 574.018 403.609 574.459 403.981 574.831C404.353 575.203 404.794 575.498 405.28 575.699Z" fill="#5D26C1"/>
<path d="M414.348 566.751C414.622 566.477 414.775 566.107 414.775 565.72C414.775 565.333 414.622 564.962 414.348 564.689C414.075 564.416 413.704 564.262 413.317 564.262C412.931 564.262 412.56 564.416 412.286 564.689C412.013 564.962 411.859 565.333 411.859 565.72C411.859 566.107 412.013 566.477 412.286 566.751C412.56 567.024 412.931 567.178 413.317 567.178C413.704 567.178 414.075 567.024 414.348 566.751Z" fill="#5D26C1"/>
<path fill-rule="evenodd" clip-rule="evenodd" d="M401.865 560.072C403.145 560.013 403.553 560 406.812 560C410.073 560 410.48 560.014 411.759 560.072C413.037 560.13 413.91 560.333 414.673 560.63C415.474 560.931 416.199 561.404 416.799 562.014C417.409 562.613 417.881 563.339 418.183 564.139C418.479 564.903 418.682 565.775 418.74 567.053C418.799 568.333 418.812 568.741 418.812 572C418.812 575.259 418.799 575.667 418.74 576.947C418.682 578.225 418.479 579.097 418.183 579.861C417.876 580.649 417.465 581.319 416.799 581.986C416.199 582.596 415.474 583.069 414.673 583.37C413.91 583.667 413.037 583.869 411.76 583.928C410.48 583.987 410.072 584 406.812 584C403.553 584 403.145 583.986 401.865 583.928C400.588 583.87 399.715 583.667 398.952 583.37C398.163 583.063 397.493 582.653 396.826 581.986C396.216 581.387 395.744 580.661 395.442 579.861C395.146 579.097 394.943 578.225 394.885 576.947C394.826 575.667 394.812 575.26 394.812 572C394.812 568.74 394.827 568.333 394.885 567.053C394.943 565.775 395.146 564.903 395.442 564.139C395.744 563.339 396.216 562.613 396.826 562.014C397.426 561.404 398.151 560.931 398.952 560.63C399.715 560.333 400.588 560.131 401.865 560.072ZM411.662 562.232C410.397 562.175 410.017 562.162 406.812 562.162C403.609 562.162 403.229 562.175 401.963 562.232C400.793 562.285 400.158 562.481 399.735 562.645C399.175 562.863 398.775 563.123 398.355 563.543C397.936 563.963 397.675 564.363 397.458 564.923C397.293 565.345 397.098 565.981 397.045 567.151C396.987 568.416 396.975 568.796 396.975 572C396.975 575.204 396.987 575.584 397.045 576.849C397.098 578.019 397.293 578.655 397.458 579.077C397.65 579.599 397.957 580.07 398.355 580.457C398.742 580.856 399.214 581.162 399.735 581.355C400.158 581.519 400.793 581.715 401.963 581.768C403.229 581.825 403.608 581.838 406.812 581.838C410.017 581.838 410.397 581.825 411.662 581.768C412.832 581.715 413.467 581.519 413.89 581.355C414.45 581.137 414.85 580.877 415.27 580.457C415.668 580.07 415.975 579.599 416.167 579.077C416.332 578.655 416.527 578.019 416.581 576.849C416.638 575.584 416.651 575.204 416.651 572C416.651 568.796 416.638 568.416 416.581 567.151C416.527 565.981 416.332 565.345 416.167 564.923C415.95 564.363 415.69 563.963 415.27 563.543C414.85 563.123 414.45 562.863 413.89 562.645C413.467 562.481 412.832 562.285 411.662 562.232Z" fill="#5D26C1"/>
</g>
<g filter="url(#filter6_d)">
<path fill-rule="evenodd" clip-rule="evenodd" d="M476 560C469.375 560 464 565.375 464 572C464 578.625 469.375 584 476 584C482.612 584 488 578.625 488 572C488 565.375 482.612 560 476 560ZM483.926 565.531C485.358 567.275 486.217 569.501 486.243 571.909C485.905 571.844 482.521 571.154 479.111 571.584C479.033 571.414 478.967 571.232 478.889 571.05C478.681 570.555 478.447 570.048 478.213 569.566C481.987 568.03 483.705 565.818 483.926 565.531ZM476 561.77C478.603 561.77 480.985 562.746 482.794 564.347C482.612 564.607 481.063 566.677 477.419 568.043C475.74 564.959 473.879 562.434 473.592 562.043C474.36 561.861 475.167 561.77 476 561.77ZM471.64 562.733C471.913 563.098 473.735 565.636 475.44 568.655C470.651 569.931 466.421 569.905 465.965 569.905C466.629 566.729 468.777 564.087 471.64 562.733ZM465.744 572.013C465.744 571.909 465.744 571.805 465.744 571.701C466.187 571.714 471.158 571.779 476.273 570.243C476.573 570.816 476.846 571.401 477.106 571.987C476.976 572.026 476.833 572.065 476.703 572.104C471.419 573.809 468.607 578.469 468.373 578.859C466.746 577.05 465.744 574.642 465.744 572.013ZM476 582.256C473.631 582.256 471.445 581.449 469.714 580.095C469.896 579.718 471.978 575.709 477.757 573.692C477.783 573.679 477.796 573.679 477.822 573.666C479.267 577.401 479.853 580.538 480.009 581.436C478.772 581.97 477.419 582.256 476 582.256ZM481.714 580.499C481.61 579.874 481.063 576.881 479.722 573.197C482.937 572.69 485.748 573.523 486.1 573.64C485.657 576.49 484.017 578.95 481.714 580.499Z" fill="#A17FE0"/>
</g>
<path d="M181.413 428H189.717V411.777H206.572V428H214.857V388.727H206.572V404.931H189.717V388.727H181.413V428ZM234.857 428.575C243.793 428.575 249.354 422.458 249.354 413.388C249.354 404.26 243.793 398.162 234.857 398.162C225.921 398.162 220.36 404.26 220.36 413.388C220.36 422.458 225.921 428.575 234.857 428.575ZM234.896 422.247C230.773 422.247 228.663 418.469 228.663 413.33C228.663 408.191 230.773 404.394 234.896 404.394C238.942 404.394 241.051 408.191 241.051 413.33C241.051 418.469 238.942 422.247 234.896 422.247ZM259.738 428H268.368L273.43 409.476H273.794L278.857 428H287.505L295.502 398.545H287.256L282.769 418.22H282.52L277.687 398.545H269.576L264.82 418.335H264.551L259.988 398.545H251.723L259.738 428ZM321.351 428H329.444L336.903 402.323H337.21L344.689 428H352.781L364.018 388.727H354.948L348.447 416.072H348.102L340.949 388.727H333.183L326.011 416.015H325.685L319.184 388.727H310.114L321.351 428ZM378.568 428.575C385.855 428.575 390.764 425.028 391.915 419.562L384.359 419.064C383.535 421.308 381.425 422.477 378.702 422.477C374.618 422.477 372.029 419.773 372.029 415.382V415.363H392.087V413.119C392.087 403.109 386.028 398.162 378.242 398.162C369.574 398.162 363.956 404.317 363.956 413.407C363.956 422.746 369.498 428.575 378.568 428.575ZM372.029 410.3C372.202 406.945 374.752 404.26 378.376 404.26C381.924 404.26 384.378 406.791 384.398 410.3H372.029Z" fill="#A17FE0"/>
<g filter="url(#filter7_dd)">
<circle cx="376" cy="691" r="6" fill="#A17FE0"/>
</g>
<g filter="url(#filter8_d)">
<circle cx="340" cy="691" r="6" fill="#A17FE0"/>
</g>
<g filter="url(#filter9_i)">
<circle cx="340" cy="691" r="6" fill="#A17FE0"/>
</g>
<g filter="url(#filter10_dd)">
<circle cx="412" cy="691" r="6" fill="#A17FE0"/>
</g>
<g filter="url(#filter11_d)">
<circle cx="476" cy="597" r="3" fill="white"/>
</g>
<g filter="url(#filter12_dd)">
<circle cx="276" cy="171" r="40" fill="#A17FE0"/>
</g>
<g filter="url(#filter13_di)">
<circle cx="276" cy="171" r="30" fill="#A17FE0"/>
</g>
<g filter="url(#filter14_d)">
<rect x="274" y="158" width="4" height="26" rx="2" fill="#5D26C1"/>
<rect x="289" y="169" width="4" height="26" rx="2" transform="rotate(90 289 169)" fill="#5D26C1"/>
</g>
<g style="mix-blend-mode:overlay" opacity="0.05">
<path d="M443 104C443 103.448 443.448 103 444 103H531C538.18 103 544 108.82 544 116V604C544 623.882 527.882 640 508 640H443V104Z" fill="white"/>
</g>
<rect opacity="0.04" x="443" y="103" width="1" height="537" fill="white"/>
<defs>
<filter id="filter0_i" x="206" y="101" width="350" height="550" filterUnits="userSpaceOnUse" color-interpolation-filters="sRGB">
<feFlood flood-opacity="0" result="BackgroundImageFix"/>
<feBlend mode="normal" in="SourceGraphic" in2="BackgroundImageFix" result="shape"/>
<feColorMatrix in="SourceAlpha" type="matrix" values="0 0 0 0 0 0 0 0 0 0 0 0 0 0 0 0 0 0 127 0" result="hardAlpha"/>
<feOffset dx="10" dy="10"/>
<feGaussianBlur stdDeviation="15"/>
<feComposite in2="hardAlpha" operator="arithmetic" k2="-1" k3="1"/>
<feColorMatrix type="matrix" values="0 0 0 0 0 0 0 0 0 0.347813 0 0 0 0 0.6625 0 0 0 0.4 0"/>
<feBlend mode="multiply" in2="shape" result="effect1_innerShadow"/>
</filter>
<filter id="filter1_i" x="166" y="362" width="239" height="95" filterUnits="userSpaceOnUse" color-interpolation-filters="sRGB">
<feFlood flood-opacity="0" result="BackgroundImageFix"/>
<feBlend mode="normal" in="SourceGraphic" in2="BackgroundImageFix" result="shape"/>
<feColorMatrix in="SourceAlpha" type="matrix" values="0 0 0 0 0 0 0 0 0 0 0 0 0 0 0 0 0 0 127 0" result="hardAlpha"/>
<feOffset dy="2"/>
<feGaussianBlur stdDeviation="0.5"/>
<feComposite in2="hardAlpha" operator="arithmetic" k2="-1" k3="1"/>
<feColorMatrix type="matrix" values="0 0 0 0 1 0 0 0 0 1 0 0 0 0 1 0 0 0 0.5 0"/>
<feBlend mode="normal" in2="shape" result="effect1_innerShadow"/>
</filter>
<filter id="filter2_d" x="204" y="416" width="281" height="168" filterUnits="userSpaceOnUse" color-interpolation-filters="sRGB">
<feFlood flood-opacity="0" result="BackgroundImageFix"/>
<feColorMatrix in="SourceAlpha" type="matrix" values="0 0 0 0 0 0 0 0 0 0 0 0 0 0 0 0 0 0 127 0"/>
<feOffset dx="20" dy="20"/>
<feGaussianBlur stdDeviation="30"/>
<feColorMatrix type="matrix" values="0 0 0 0 0 0 0 0 0 0.347813 0 0 0 0 0.6625 0 0 0 0.4 0"/>
<feBlend mode="multiply" in2="BackgroundImageFix" result="effect1_dropShadow"/>
<feBlend mode="normal" in="SourceGraphic" in2="effect1_dropShadow" result="shape"/>
</filter>
<filter id="filter3_d" x="265" y="559" width="23" height="31.3824" filterUnits="userSpaceOnUse" color-interpolation-filters="sRGB">
<feFlood flood-opacity="0" result="BackgroundImageFix"/>
<feColorMatrix in="SourceAlpha" type="matrix" values="0 0 0 0 0 0 0 0 0 0 0 0 0 0 0 0 0 0 127 0"/>
<feOffset dx="1" dy="1"/>
<feGaussianBlur stdDeviation="1"/>
<feColorMatrix type="matrix" values="0 0 0 0 0.283333 0 0 0 0 0.828 0 0 0 0 1 0 0 0 0.25 0"/>
<feBlend mode="overlay" in2="BackgroundImageFix" result="effect1_dropShadow"/>
<feBlend mode="normal" in="SourceGraphic" in2="effect1_dropShadow" result="shape"/>
</filter>
<filter id="filter4_d" x="326" y="560" width="33.0002" height="28.2381" filterUnits="userSpaceOnUse" color-interpolation-filters="sRGB">
<feFlood flood-opacity="0" result="BackgroundImageFix"/>
<feColorMatrix in="SourceAlpha" type="matrix" values="0 0 0 0 0 0 0 0 0 0 0 0 0 0 0 0 0 0 127 0"/>
<feOffset dx="1" dy="1"/>
<feGaussianBlur stdDeviation="1"/>
<feColorMatrix type="matrix" values="0 0 0 0 0.283333 0 0 0 0 0.828 0 0 0 0 1 0 0 0 0.25 0"/>
<feBlend mode="overlay" in2="BackgroundImageFix" result="effect1_dropShadow"/>
<feBlend mode="normal" in="SourceGraphic" in2="effect1_dropShadow" result="shape"/>
</filter>
<filter id="filter5_d" x="393.812" y="559" width="28" height="28" filterUnits="userSpaceOnUse" color-interpolation-filters="sRGB">
<feFlood flood-opacity="0" result="BackgroundImageFix"/>
<feColorMatrix in="SourceAlpha" type="matrix" values="0 0 0 0 0 0 0 0 0 0 0 0 0 0 0 0 0 0 127 0"/>
<feOffset dx="1" dy="1"/>
<feGaussianBlur stdDeviation="1"/>
<feColorMatrix type="matrix" values="0 0 0 0 0.283333 0 0 0 0 0.828 0 0 0 0 1 0 0 0 0.25 0"/>
<feBlend mode="overlay" in2="BackgroundImageFix" result="effect1_dropShadow"/>
<feBlend mode="normal" in="SourceGraphic" in2="effect1_dropShadow" result="shape"/>
</filter>
<filter id="filter6_d" x="463" y="559" width="28" height="28" filterUnits="userSpaceOnUse" color-interpolation-filters="sRGB">
<feFlood flood-opacity="0" result="BackgroundImageFix"/>
<feColorMatrix in="SourceAlpha" type="matrix" values="0 0 0 0 0 0 0 0 0 0 0 0 0 0 0 0 0 0 127 0"/>
<feOffset dx="1" dy="1"/>
<feGaussianBlur stdDeviation="1"/>
<feColorMatrix type="matrix" values="0 0 0 0 0.283333 0 0 0 0 0.828 0 0 0 0 1 0 0 0 0.25 0"/>
<feBlend mode="overlay" in2="BackgroundImageFix" result="effect1_dropShadow"/>
<feBlend mode="normal" in="SourceGraphic" in2="effect1_dropShadow" result="shape"/>
</filter>
<filter id="filter7_dd" x="363" y="678" width="29" height="29" filterUnits="userSpaceOnUse" color-interpolation-filters="sRGB">
<feFlood flood-opacity="0" result="BackgroundImageFix"/>
<feColorMatrix in="SourceAlpha" type="matrix" values="0 0 0 0 0 0 0 0 0 0 0 0 0 0 0 0 0 0 127 0"/>
<feOffset dx="2" dy="2"/>
<feGaussianBlur stdDeviation="4"/>
<feColorMatrix type="matrix" values="0 0 0 0 0 0 0 0 0 0.347813 0 0 0 0 0.6625 0 0 0 1 0"/>
<feBlend mode="multiply" in2="BackgroundImageFix" result="effect1_dropShadow"/>
<feColorMatrix in="SourceAlpha" type="matrix" values="0 0 0 0 0 0 0 0 0 0 0 0 0 0 0 0 0 0 127 0"/>
<feOffset dx="-1" dy="-1"/>
<feGaussianBlur stdDeviation="3"/>
<feColorMatrix type="matrix" values="0 0 0 0 0.283333 0 0 0 0 0.828 0 0 0 0 1 0 0 0 1 0"/>
<feBlend mode="overlay" in2="effect1_dropShadow" result="effect2_dropShadow"/>
<feBlend mode="normal" in="SourceGraphic" in2="effect2_dropShadow" result="shape"/>
</filter>
<filter id="filter8_d" x="334" y="685" width="14" height="14" filterUnits="userSpaceOnUse" color-interpolation-filters="sRGB">
<feFlood flood-opacity="0" result="BackgroundImageFix"/>
<feColorMatrix in="SourceAlpha" type="matrix" values="0 0 0 0 0 0 0 0 0 0 0 0 0 0 0 0 0 0 127 0"/>
<feOffset dx="1" dy="1"/>
<feGaussianBlur stdDeviation="0.5"/>
<feColorMatrix type="matrix" values="0 0 0 0 0.283333 0 0 0 0 0.828 0 0 0 0 1 0 0 0 0.25 0"/>
<feBlend mode="overlay" in2="BackgroundImageFix" result="effect1_dropShadow"/>
<feBlend mode="normal" in="SourceGraphic" in2="effect1_dropShadow" result="shape"/>
</filter>
<filter id="filter9_i" x="334" y="685" width="13" height="13" filterUnits="userSpaceOnUse" color-interpolation-filters="sRGB">
<feFlood flood-opacity="0" result="BackgroundImageFix"/>
<feBlend mode="normal" in="SourceGraphic" in2="BackgroundImageFix" result="shape"/>
<feColorMatrix in="SourceAlpha" type="matrix" values="0 0 0 0 0 0 0 0 0 0 0 0 0 0 0 0 0 0 127 0" result="hardAlpha"/>
<feOffset dx="1" dy="1"/>
<feGaussianBlur stdDeviation="2"/>
<feComposite in2="hardAlpha" operator="arithmetic" k2="-1" k3="1"/>
<feColorMatrix type="matrix" values="0 0 0 0 0 0 0 0 0 0.347813 0 0 0 0 0.6625 0 0 0 0.5 0"/>
<feBlend mode="multiply" in2="shape" result="effect1_innerShadow"/>
</filter>
<filter id="filter10_dd" x="397" y="676" width="31" height="31" filterUnits="userSpaceOnUse" color-interpolation-filters="sRGB">
<feFlood flood-opacity="0" result="BackgroundImageFix"/>
<feColorMatrix in="SourceAlpha" type="matrix" values="0 0 0 0 0 0 0 0 0 0 0 0 0 0 0 0 0 0 127 0"/>
<feOffset dx="2" dy="2"/>
<feGaussianBlur stdDeviation="4"/>
<feColorMatrix type="matrix" values="0 0 0 0 0 0 0 0 0 0.347813 0 0 0 0 0.6625 0 0 0 1 0"/>
<feBlend mode="multiply" in2="BackgroundImageFix" result="effect1_dropShadow"/>
<feColorMatrix in="SourceAlpha" type="matrix" values="0 0 0 0 0 0 0 0 0 0 0 0 0 0 0 0 0 0 127 0"/>
<feOffset dx="-1" dy="-1"/>
<feGaussianBlur stdDeviation="4"/>
<feColorMatrix type="matrix" values="0 0 0 0 0.283333 0 0 0 0 0.828 0 0 0 0 1 0 0 0 1 0"/>
<feBlend mode="overlay" in2="effect1_dropShadow" result="effect2_dropShadow"/>
<feBlend mode="normal" in="SourceGraphic" in2="effect2_dropShadow" result="shape"/>
</filter>
<filter id="filter11_d" x="468" y="589" width="18" height="18" filterUnits="userSpaceOnUse" color-interpolation-filters="sRGB">
<feFlood flood-opacity="0" result="BackgroundImageFix"/>
<feColorMatrix in="SourceAlpha" type="matrix" values="0 0 0 0 0 0 0 0 0 0 0 0 0 0 0 0 0 0 127 0"/>
<feOffset dx="1" dy="1"/>
<feGaussianBlur stdDeviation="3"/>
<feColorMatrix type="matrix" values="0 0 0 0 0 0 0 0 0 0.347813 0 0 0 0 0.6625 0 0 0 0.25 0"/>
<feBlend mode="multiply" in2="BackgroundImageFix" result="effect1_dropShadow"/>
<feBlend mode="normal" in="SourceGraphic" in2="effect1_dropShadow" result="shape"/>
</filter>
<filter id="filter12_dd" x="162" y="57" width="234" height="234" filterUnits="userSpaceOnUse" color-interpolation-filters="sRGB">
<feFlood flood-opacity="0" result="BackgroundImageFix"/>
<feColorMatrix in="SourceAlpha" type="matrix" values="0 0 0 0 0 0 0 0 0 0 0 0 0 0 0 0 0 0 127 0"/>
<feOffset dx="20" dy="20"/>
<feGaussianBlur stdDeviation="30"/>
<feColorMatrix type="matrix" values="0 0 0 0 0.631373 0 0 0 0 0.498039 0 0 0 0 0.878431 0 0 0 1 0"/>
<feBlend mode="multiply" in2="BackgroundImageFix" result="effect1_dropShadow"/>
<feColorMatrix in="SourceAlpha" type="matrix" values="0 0 0 0 0 0 0 0 0 0 0 0 0 0 0 0 0 0 127 0"/>
<feOffset dx="-14" dy="-14"/>
<feGaussianBlur stdDeviation="30"/>
<feColorMatrix type="matrix" values="0 0 0 0 0.364706 0 0 0 0 0.14902 0 0 0 0 0.756863 0 0 0 1 0"/>
<feBlend mode="overlay" in2="effect1_dropShadow" result="effect2_dropShadow"/>
<feBlend mode="normal" in="SourceGraphic" in2="effect2_dropShadow" result="shape"/>
</filter>
<filter id="filter13_di" x="206" y="101" width="180" height="180" filterUnits="userSpaceOnUse" color-interpolation-filters="sRGB">
<feFlood flood-opacity="0" result="BackgroundImageFix"/>
<feColorMatrix in="SourceAlpha" type="matrix" values="0 0 0 0 0 0 0 0 0 0 0 0 0 0 0 0 0 0 127 0"/>
<feOffset dx="20" dy="20"/>
<feGaussianBlur stdDeviation="30"/>
<feColorMatrix type="matrix" values="0 0 0 0 0 0 0 0 0 0.347813 0 0 0 0 0.6625 0 0 0 0.4 0"/>
<feBlend mode="multiply" in2="BackgroundImageFix" result="effect1_dropShadow"/>
<feBlend mode="normal" in="SourceGraphic" in2="effect1_dropShadow" result="shape"/>
<feColorMatrix in="SourceAlpha" type="matrix" values="0 0 0 0 0 0 0 0 0 0 0 0 0 0 0 0 0 0 127 0" result="hardAlpha"/>
<feOffset dx="1" dy="1"/>
<feGaussianBlur stdDeviation="1"/>
<feComposite in2="hardAlpha" operator="arithmetic" k2="-1" k3="1"/>
<feColorMatrix type="matrix" values="0 0 0 0 1 0 0 0 0 1 0 0 0 0 1 0 0 0 0.5 0"/>
<feBlend mode="overlay" in2="shape" result="effect2_innerShadow"/>
</filter>
<filter id="filter14_d" x="262" y="157" width="30" height="30" filterUnits="userSpaceOnUse" color-interpolation-filters="sRGB">
<feFlood flood-opacity="0" result="BackgroundImageFix"/>
<feColorMatrix in="SourceAlpha" type="matrix" values="0 0 0 0 0 0 0 0 0 0 0 0 0 0 0 0 0 0 127 0"/>
<feOffset dx="1" dy="1"/>
<feGaussianBlur stdDeviation="1"/>
<feColorMatrix type="matrix" values="0 0 0 0 0.283333 0 0 0 0 0.828 0 0 0 0 1 0 0 0 0.25 0"/>
<feBlend mode="overlay" in2="BackgroundImageFix" result="effect1_dropShadow"/>
<feBlend mode="normal" in="SourceGraphic" in2="effect1_dropShadow" result="shape"/>
</filter>
<linearGradient id="paint0_linear" x1="350.5" y1="292" x2="350.5" y2="357" gradientUnits="userSpaceOnUse">
<stop stop-color="#A17FE0"/>
<stop offset="1" stop-color="white"/>
</linearGradient>
<linearGradient id="paint1_linear" x1="285.5" y1="362" x2="285.5" y2="456" gradientUnits="userSpaceOnUse">
<stop stop-color="#A17FE0"/>
<stop offset="1" stop-color="white"/>
</linearGradient>
<clipPath id="clip0">
<rect width="32" height="32" fill="white" transform="translate(260 558)"/>
</clipPath>
</defs>
</svg>
