<svg width="170" height="170" viewBox="0 0 170 170" fill="none" xmlns="http://www.w3.org/2000/svg">
<path d="M145.104 24.8959C129.05 8.84173 107.704 0 85 0C43.4695 0 4.86828 32.441 0.64315 74.4583C0.216486 77.929 0 81.4479 0 85C0 107.704 8.8414 129.05 24.8959 145.104C40.9504 161.159 62.2959 170 85 170C107.704 170 129.05 161.158 145.104 145.104C161.159 129.05 170 107.704 170 85C170 62.2955 161.159 40.9504 145.104 24.8959V24.8959ZM4.98051 85C4.98051 82.5008 5.1017 80.0298 5.32682 77.5883C7.82903 78.3776 10.3136 80.2469 10.3136 82.0027V92.2925C10.3136 94.9056 11.3313 97.3626 13.1791 99.2104L29.5344 115.566C31.3818 117.413 33.8389 118.431 36.452 118.431C39.1003 118.431 41.2545 120.586 41.2545 123.234V129.275C41.2545 134.67 45.6434 139.059 51.0376 139.059H57.0793C59.7276 139.059 61.8818 141.213 61.8818 143.861V161.61C28.9955 151.667 4.98051 121.088 4.98051 85V85ZM128.665 152.022L128.463 140.905C128.396 137.281 126.347 134.008 123.115 132.36L110.746 126.065C109.124 125.239 108.116 123.597 108.116 121.779V108.684C108.116 106.076 107.104 103.621 105.265 101.773L99.2061 95.6948C98.29 94.7479 97.8225 93.6159 97.8029 92.2984C97.8029 89.6475 99.9598 87.4906 102.611 87.4906H112.917C114.2 87.4906 115.409 87.992 116.319 88.8997L120.775 93.3556C123.988 96.5681 128.75 96.6009 132.612 94.9205C133.842 94.3053 134.34 92.8094 133.725 91.5792C133.109 90.3487 131.613 89.8507 130.384 90.4663C128.547 91.5162 126.519 91.3053 124.297 89.8337L119.839 85.3755C117.987 83.5278 115.529 82.5097 112.917 82.5097H102.611C97.2135 82.5097 92.8224 86.9009 92.8224 92.2981C92.8609 94.9789 93.8125 97.2826 95.6772 99.2091L101.736 105.287C102.638 106.194 103.135 107.401 103.135 108.684V121.779C103.135 125.48 105.186 128.823 108.487 130.503L120.854 136.798C122.443 137.607 123.45 139.216 123.483 140.996L123.737 154.996C109.714 162.788 93.2942 166.175 77.33 164.65L77.2195 159.348C77.2058 158.621 77.4907 157.911 78.0014 157.401L85.25 150.152C86.6735 148.729 87.4899 146.758 87.4899 144.746V121.138C87.4899 116.922 84.0597 113.491 79.8432 113.491H65.9376C65.407 113.491 64.8957 113.337 64.4554 113.042L54.7567 106.563C53.6125 105.799 52.0666 106.107 51.3025 107.251C50.5385 108.394 50.8463 109.941 51.9902 110.704L61.6852 117.18C62.9453 118.025 64.4159 118.472 65.9376 118.472H79.8432C81.3134 118.472 82.5094 119.668 82.5094 121.138V144.746C82.5094 145.447 82.2245 146.134 81.7281 146.631L74.4798 153.879C73.0176 155.342 72.2011 157.369 72.2399 159.447L72.3349 164.014C70.4895 163.719 68.6636 163.365 66.8623 162.946V143.862C66.8623 138.467 62.4735 134.079 57.0793 134.079H51.0376C48.3893 134.079 46.235 131.924 46.235 129.276V123.234C46.235 117.84 41.8462 113.451 36.452 113.451C35.169 113.451 33.9627 112.952 33.056 112.044L16.7006 95.6888C15.7935 94.782 15.2941 93.5758 15.2941 92.2928V82.0031C15.2941 77.2287 10.3787 73.7351 5.94075 72.6092C8.86265 53.8944 18.2951 37.3106 31.8394 25.2475L60.557 25.6353C61.9642 25.6556 63.2365 26.4452 63.8773 27.6963L70.9204 41.4641C72.4289 44.4069 75.4192 46.235 78.7246 46.235C81.0315 46.4512 82.2933 47.7129 82.5097 50.0202V58.0986C82.5097 60.1858 80.8117 61.8835 78.7246 61.8835H66.9838C65.9682 61.8835 65.0142 61.4864 64.2974 60.7655L57.7257 54.1541C56.0666 52.4859 53.8582 51.5672 51.5074 51.5672H50.0199C45.1865 51.5672 41.2542 55.4995 41.2542 60.3329V79.8395C41.2529 79.8628 41.2522 79.8863 41.2516 79.9096C41.2183 81.3676 40.0486 82.5094 38.588 82.5094C34.5594 82.5094 30.9412 85.9128 30.9412 90.1562V92.5564C30.9412 95.1154 32.2116 97.4921 34.3396 98.9139L42.9658 104.675C43.3908 104.958 43.8713 105.094 44.3464 105.094C45.1503 105.094 45.9395 104.706 46.4197 103.987C47.1833 102.843 46.8755 101.297 45.7317 100.533L37.1061 94.7724C36.3647 94.277 35.9217 93.4486 35.9217 92.5564V90.1562C35.9217 88.6759 37.1841 87.4899 38.588 87.4899C42.6932 87.4899 46.1115 84.1649 46.2297 80.0686C46.2334 79.9929 46.2347 60.3329 46.2347 60.3329C46.2347 58.2457 47.9327 56.5477 50.0199 56.5477H51.5074C52.5228 56.5477 53.477 56.9448 54.1939 57.6656L60.7652 64.2768C62.424 65.9449 64.6324 66.864 66.9838 66.864H78.7246C83.558 66.864 87.4902 62.9317 87.4902 58.0986V50.0202C86.9889 44.6771 84.067 41.7552 78.7246 41.2545C77.2968 41.2545 76.0045 40.4643 75.3534 39.1939L68.3106 25.4272C66.8275 22.5298 63.8836 20.7016 60.6261 20.6555L37.9066 20.3487C51.1292 10.6908 67.4092 4.98051 85 4.98051C90.0489 4.98051 94.9879 5.45565 99.7798 6.35413L96.9824 8.4476C94.3776 10.3953 92.8227 13.4992 92.8227 16.7504V19.9147C92.8227 25.1721 97.8119 29.6918 101.546 32.8896C102.696 34.2745 103.226 35.7836 103.136 37.4162C103.136 38.7918 104.251 39.9065 105.626 39.9065C107.001 39.9065 108.116 38.7918 108.116 37.4162C108.12 34.5159 107.152 31.4333 105.053 29.3535C102.657 27.6113 97.8032 23.2404 97.8032 19.9147V16.7504C97.8032 15.0614 98.6114 13.4487 99.9661 12.4357L106.135 7.81873C125.176 13.039 141.402 25.1316 151.97 41.2545H134.135C128.477 41.2545 123.765 45.9664 123.765 51.624C122.957 56.1293 120.358 57.7354 115.967 56.4421L111.097 54.0086C108.949 52.4242 107.955 50.5113 108.117 48.2704C108.117 46.8948 107.002 45.7802 105.626 45.7802C104.251 45.7802 103.136 46.8948 103.136 48.2704C103.186 52.3408 105.027 56.5424 108.87 58.4635L113.74 60.897C120.508 64.2818 128.746 59.2103 128.746 51.624C129.054 48.3395 130.85 46.5432 134.135 46.235H154.981C164.057 62.5532 167.108 81.9599 163.549 100.284L152.472 87.6111C149.269 83.9458 144.173 83.8425 140.09 85.6116C138.86 86.2269 138.361 87.7227 138.976 88.9529C139.592 90.1831 141.087 90.6808 142.318 90.0665C144.365 89.0462 147.064 88.9924 148.722 90.8893L162.15 106.252C156.904 125.274 144.795 141.478 128.665 152.022V152.022Z" fill="#6C757D"/>
</svg>
