<svg width="170" height="170" viewBox="0 0 170 170" fill="none" xmlns="http://www.w3.org/2000/svg">
<circle cx="85" cy="85" r="85" fill="url(#paint0_linear)"/>
<g filter="url(#filter0_f)">
<path d="M82.9585 28.8553C83.4654 27.297 85.6703 27.2972 86.1768 28.8556V28.8556C86.4032 29.5523 87.0525 30.0241 87.7851 30.0242V30.0242C89.4233 30.0242 90.1044 32.1205 88.7791 33.0834V33.0834C88.1864 33.5141 87.9384 34.2774 88.1648 34.9741V34.9741C88.671 36.5323 86.8863 37.827 85.5608 36.8642V36.8642C84.9681 36.4337 84.1653 36.4335 83.5726 36.8641V36.8641C82.2473 37.8269 80.464 36.5314 80.9702 34.9734V34.9734C81.1965 34.2766 80.9485 33.5134 80.3559 33.0827V33.0827C79.0306 32.1198 79.712 30.0235 81.3502 30.0235V30.0235C82.0826 30.0234 82.7319 29.5518 82.9585 28.8553V28.8553Z" fill="#FFCC00"/>
</g>
<g filter="url(#filter1_f)">
<path d="M82.9585 135.105C83.4654 133.547 85.6703 133.547 86.1768 135.106V135.106C86.4032 135.802 87.0525 136.274 87.7851 136.274V136.274C89.4233 136.274 90.1044 138.37 88.7791 139.333V139.333C88.1864 139.764 87.9384 140.527 88.1648 141.224V141.224C88.671 142.782 86.8863 144.077 85.5608 143.114V143.114C84.9681 142.684 84.1653 142.683 83.5726 143.114V143.114C82.2473 144.077 80.464 142.781 80.9702 141.223V141.223C81.1965 140.527 80.9485 139.763 80.3559 139.333V139.333C79.0306 138.37 79.712 136.274 81.3502 136.273V136.273C82.0826 136.273 82.7319 135.802 82.9585 135.105V135.105Z" fill="#FFCC00"/>
</g>
<g filter="url(#filter2_f)">
<path d="M136.083 81.9803C136.59 80.422 138.795 80.4222 139.302 81.9806V81.9806C139.528 82.6773 140.177 83.1491 140.91 83.1492V83.1492C142.548 83.1492 143.229 85.2455 141.904 86.2084V86.2084C141.311 86.6391 141.063 87.4024 141.29 88.0991V88.0991C141.796 89.6573 140.011 90.952 138.686 89.9892V89.9892C138.093 89.5587 137.29 89.5585 136.698 89.9891V89.9891C135.372 90.9519 133.589 89.6564 134.095 88.0984V88.0984C134.322 87.4016 134.074 86.6384 133.481 86.2077V86.2077C132.156 85.2448 132.837 83.1485 134.475 83.1485V83.1485C135.208 83.1484 135.857 82.6768 136.083 81.9803V81.9803Z" fill="#FFCC00"/>
</g>
<g filter="url(#filter3_f)">
<path d="M29.8335 81.9803C30.3404 80.422 32.5453 80.4222 33.0518 81.9806V81.9806C33.2782 82.6773 33.9275 83.1491 34.6601 83.1492V83.1492C36.2983 83.1492 36.9794 85.2455 35.6541 86.2084V86.2084C35.0614 86.6391 34.8134 87.4024 35.0398 88.0991V88.0991C35.546 89.6573 33.7613 90.952 32.4358 89.9892V89.9892C31.8431 89.5587 31.0403 89.5585 30.4476 89.9891V89.9891C29.1223 90.9519 27.339 89.6564 27.8452 88.0984V88.0984C28.0715 87.4016 27.8235 86.6384 27.2309 86.2077V86.2077C25.9056 85.2448 26.587 83.1485 28.2252 83.1485V83.1485C28.9576 83.1484 29.6069 82.6768 29.8335 81.9803V81.9803Z" fill="#FFCC00"/>
</g>
<g filter="url(#filter4_f)">
<path d="M56.396 128.022C56.9029 126.464 59.1078 126.464 59.6143 128.023V128.023C59.8407 128.719 60.49 129.191 61.2226 129.191V129.191C62.8608 129.191 63.5419 131.287 62.2166 132.25V132.25C61.6239 132.681 61.3759 133.444 61.6023 134.141V134.141C62.1085 135.699 60.3238 136.994 58.9983 136.031V136.031C58.4056 135.601 57.6028 135.6 57.0101 136.031V136.031C55.6848 136.994 53.9015 135.698 54.4077 134.14V134.14C54.634 133.444 54.386 132.68 53.7934 132.25V132.25C52.4681 131.287 53.1495 129.191 54.7877 129.19V129.19C55.5201 129.19 56.1694 128.719 56.396 128.022V128.022Z" fill="#FFCC00"/>
</g>
<g filter="url(#filter5_f)">
<path d="M109.521 35.9383C110.028 34.38 112.233 34.3802 112.739 35.9386V35.9386C112.966 36.6353 113.615 37.1072 114.348 37.1072V37.1072C115.986 37.1072 116.667 39.2035 115.342 40.1664V40.1664C114.749 40.5971 114.501 41.3604 114.727 42.0571V42.0571C115.233 43.6153 113.449 44.91 112.123 43.9472V43.9472C111.531 43.5167 110.728 43.5165 110.135 43.9471V43.9471C108.81 44.9099 107.027 43.6144 107.533 42.0564V42.0564C107.759 41.3596 107.511 40.5964 106.918 40.1657V40.1657C105.593 39.2028 106.274 37.1065 107.913 37.1065V37.1065C108.645 37.1064 109.294 36.6348 109.521 35.9383V35.9383Z" fill="#FFCC00"/>
</g>
<g filter="url(#filter6_f)">
<path d="M109.521 128.022C110.028 126.464 112.233 126.464 112.739 128.023V128.023C112.966 128.719 113.615 129.191 114.348 129.191V129.191C115.986 129.191 116.667 131.287 115.342 132.25V132.25C114.749 132.681 114.501 133.444 114.727 134.141V134.141C115.233 135.699 113.449 136.994 112.123 136.031V136.031C111.531 135.601 110.728 135.6 110.135 136.031V136.031C108.81 136.994 107.027 135.698 107.533 134.14V134.14C107.759 133.444 107.511 132.68 106.918 132.25V132.25C105.593 131.287 106.274 129.191 107.913 129.19V129.19C108.645 129.19 109.294 128.719 109.521 128.022V128.022Z" fill="#FFCC00"/>
</g>
<g filter="url(#filter7_f)">
<path d="M129 108.543C129.507 106.985 131.712 106.985 132.219 108.543V108.543C132.445 109.24 133.094 109.712 133.827 109.712V109.712C135.465 109.712 136.146 111.808 134.821 112.771V112.771C134.228 113.202 133.98 113.965 134.207 114.662V114.662C134.713 116.22 132.928 117.515 131.603 116.552V116.552C131.01 116.121 130.207 116.121 129.614 116.552V116.552C128.289 117.514 126.506 116.219 127.012 114.661V114.661C127.238 113.964 126.99 113.201 126.398 112.77V112.77C125.072 111.807 125.754 109.711 127.392 109.711V109.711C128.124 109.711 128.774 109.239 129 108.543V108.543Z" fill="#FFCC00"/>
</g>
<g filter="url(#filter8_f)">
<path d="M56.396 35.9383C56.9029 34.38 59.1078 34.3802 59.6143 35.9386V35.9386C59.8407 36.6353 60.49 37.1072 61.2226 37.1072V37.1072C62.8608 37.1072 63.5419 39.2035 62.2166 40.1664V40.1664C61.6239 40.5971 61.3759 41.3604 61.6023 42.0571V42.0571C62.1085 43.6153 60.3238 44.91 58.9983 43.9472V43.9472C58.4056 43.5167 57.6028 43.5165 57.0101 43.9471V43.9471C55.6848 44.9099 53.9015 43.6144 54.4077 42.0564V42.0564C54.634 41.3596 54.386 40.5964 53.7934 40.1657V40.1657C52.4681 39.2028 53.1495 37.1065 54.7877 37.1065V37.1065C55.5201 37.1064 56.1694 36.6348 56.396 35.9383V35.9383Z" fill="#FFCC00"/>
</g>
<g filter="url(#filter9_f)">
<path d="M129 55.4178C129.507 53.8595 131.712 53.8597 132.219 55.4181V55.4181C132.445 56.1148 133.094 56.5866 133.827 56.5867V56.5867C135.465 56.5867 136.146 58.683 134.821 59.6459V59.6459C134.228 60.0766 133.98 60.8399 134.207 61.5366V61.5366C134.713 63.0948 132.928 64.3895 131.603 63.4267V63.4267C131.01 62.9962 130.207 62.996 129.614 63.4266V63.4266C128.289 64.3894 126.506 63.0939 127.012 61.5359V61.5359C127.238 60.8391 126.99 60.0759 126.398 59.6452V59.6452C125.072 58.6823 125.754 56.586 127.392 56.586V56.586C128.124 56.5859 128.774 56.1143 129 55.4178V55.4178Z" fill="#FFCC00"/>
</g>
<g filter="url(#filter10_f)">
<path d="M36.917 108.543C37.4239 106.985 39.6288 106.985 40.1353 108.543V108.543C40.3617 109.24 41.011 109.712 41.7436 109.712V109.712C43.3818 109.712 44.0629 111.808 42.7376 112.771V112.771C42.1449 113.202 41.8969 113.965 42.1233 114.662V114.662C42.6295 116.22 40.8448 117.515 39.5193 116.552V116.552C38.9266 116.121 38.1238 116.121 37.5311 116.552V116.552C36.2058 117.514 34.4225 116.219 34.9287 114.661V114.661C35.155 113.964 34.907 113.201 34.3144 112.77V112.77C32.9891 111.807 33.6705 109.711 35.3087 109.711V109.711C36.0411 109.711 36.6904 109.239 36.917 108.543V108.543Z" fill="#FFCC00"/>
</g>
<g filter="url(#filter11_f)">
<path d="M36.917 55.4178C37.4239 53.8595 39.6288 53.8597 40.1353 55.4181V55.4181C40.3617 56.1148 41.011 56.5866 41.7436 56.5867V56.5867C43.3818 56.5867 44.0629 58.683 42.7376 59.6459V59.6459C42.1449 60.0766 41.8969 60.8399 42.1233 61.5366V61.5366C42.6295 63.0948 40.8448 64.3895 39.5193 63.4267V63.4267C38.9266 62.9962 38.1238 62.996 37.5311 63.4266V63.4266C36.2058 64.3894 34.4225 63.0939 34.9287 61.5359V61.5359C35.155 60.8391 34.907 60.0759 34.3144 59.6452V59.6452C32.9891 58.6823 33.6705 56.586 35.3087 56.586V56.586C36.0411 56.5859 36.6904 56.1143 36.917 55.4178V55.4178Z" fill="#FFCC00"/>
</g>
<defs>
<filter id="filter0_f" x="77.6558" y="25.6865" width="13.8237" height="13.5082" filterUnits="userSpaceOnUse" color-interpolation-filters="sRGB">
<feFlood flood-opacity="0" result="BackgroundImageFix"/>
<feBlend mode="normal" in="SourceGraphic" in2="BackgroundImageFix" result="shape"/>
<feGaussianBlur stdDeviation="1" result="effect1_foregroundBlur"/>
</filter>
<filter id="filter1_f" x="77.6558" y="131.937" width="13.8237" height="13.5082" filterUnits="userSpaceOnUse" color-interpolation-filters="sRGB">
<feFlood flood-opacity="0" result="BackgroundImageFix"/>
<feBlend mode="normal" in="SourceGraphic" in2="BackgroundImageFix" result="shape"/>
<feGaussianBlur stdDeviation="1" result="effect1_foregroundBlur"/>
</filter>
<filter id="filter2_f" x="130.781" y="78.8115" width="13.8237" height="13.5082" filterUnits="userSpaceOnUse" color-interpolation-filters="sRGB">
<feFlood flood-opacity="0" result="BackgroundImageFix"/>
<feBlend mode="normal" in="SourceGraphic" in2="BackgroundImageFix" result="shape"/>
<feGaussianBlur stdDeviation="1" result="effect1_foregroundBlur"/>
</filter>
<filter id="filter3_f" x="24.5308" y="78.8115" width="13.8237" height="13.5082" filterUnits="userSpaceOnUse" color-interpolation-filters="sRGB">
<feFlood flood-opacity="0" result="BackgroundImageFix"/>
<feBlend mode="normal" in="SourceGraphic" in2="BackgroundImageFix" result="shape"/>
<feGaussianBlur stdDeviation="1" result="effect1_foregroundBlur"/>
</filter>
<filter id="filter4_f" x="51.0933" y="124.854" width="13.8237" height="13.5082" filterUnits="userSpaceOnUse" color-interpolation-filters="sRGB">
<feFlood flood-opacity="0" result="BackgroundImageFix"/>
<feBlend mode="normal" in="SourceGraphic" in2="BackgroundImageFix" result="shape"/>
<feGaussianBlur stdDeviation="1" result="effect1_foregroundBlur"/>
</filter>
<filter id="filter5_f" x="104.218" y="32.7695" width="13.8237" height="13.5082" filterUnits="userSpaceOnUse" color-interpolation-filters="sRGB">
<feFlood flood-opacity="0" result="BackgroundImageFix"/>
<feBlend mode="normal" in="SourceGraphic" in2="BackgroundImageFix" result="shape"/>
<feGaussianBlur stdDeviation="1" result="effect1_foregroundBlur"/>
</filter>
<filter id="filter6_f" x="104.218" y="124.854" width="13.8237" height="13.5082" filterUnits="userSpaceOnUse" color-interpolation-filters="sRGB">
<feFlood flood-opacity="0" result="BackgroundImageFix"/>
<feBlend mode="normal" in="SourceGraphic" in2="BackgroundImageFix" result="shape"/>
<feGaussianBlur stdDeviation="1" result="effect1_foregroundBlur"/>
</filter>
<filter id="filter7_f" x="123.698" y="105.374" width="13.8237" height="13.5082" filterUnits="userSpaceOnUse" color-interpolation-filters="sRGB">
<feFlood flood-opacity="0" result="BackgroundImageFix"/>
<feBlend mode="normal" in="SourceGraphic" in2="BackgroundImageFix" result="shape"/>
<feGaussianBlur stdDeviation="1" result="effect1_foregroundBlur"/>
</filter>
<filter id="filter8_f" x="51.0933" y="32.7695" width="13.8237" height="13.5082" filterUnits="userSpaceOnUse" color-interpolation-filters="sRGB">
<feFlood flood-opacity="0" result="BackgroundImageFix"/>
<feBlend mode="normal" in="SourceGraphic" in2="BackgroundImageFix" result="shape"/>
<feGaussianBlur stdDeviation="1" result="effect1_foregroundBlur"/>
</filter>
<filter id="filter9_f" x="123.698" y="52.249" width="13.8237" height="13.5082" filterUnits="userSpaceOnUse" color-interpolation-filters="sRGB">
<feFlood flood-opacity="0" result="BackgroundImageFix"/>
<feBlend mode="normal" in="SourceGraphic" in2="BackgroundImageFix" result="shape"/>
<feGaussianBlur stdDeviation="1" result="effect1_foregroundBlur"/>
</filter>
<filter id="filter10_f" x="31.6143" y="105.374" width="13.8237" height="13.5082" filterUnits="userSpaceOnUse" color-interpolation-filters="sRGB">
<feFlood flood-opacity="0" result="BackgroundImageFix"/>
<feBlend mode="normal" in="SourceGraphic" in2="BackgroundImageFix" result="shape"/>
<feGaussianBlur stdDeviation="1" result="effect1_foregroundBlur"/>
</filter>
<filter id="filter11_f" x="31.6143" y="52.249" width="13.8237" height="13.5082" filterUnits="userSpaceOnUse" color-interpolation-filters="sRGB">
<feFlood flood-opacity="0" result="BackgroundImageFix"/>
<feBlend mode="normal" in="SourceGraphic" in2="BackgroundImageFix" result="shape"/>
<feGaussianBlur stdDeviation="1" result="effect1_foregroundBlur"/>
</filter>
<linearGradient id="paint0_linear" x1="30.9896" y1="21.6927" x2="140.339" y2="145.208" gradientUnits="userSpaceOnUse">
<stop stop-color="#A17FE0"/>
<stop offset="1" stop-color="#5D26C1"/>
</linearGradient>
</defs>
</svg>
