<svg width="70" height="70" viewBox="0 0 70 70" fill="none" xmlns="http://www.w3.org/2000/svg">
<g clip-path="url(#clip0)">
<path d="M41.4131 35.0573L68.6697 7.79987C70.4435 6.02689 70.4435 3.16022 68.6697 1.38723C66.8967 -0.385751 64.0301 -0.385751 62.2571 1.38723L34.9996 28.6447L7.743 1.38723C5.96919 -0.385751 3.10335 -0.385751 1.33036 1.38723C-0.443454 3.16022 -0.443454 6.02689 1.33036 7.79987L28.587 35.0573L1.33036 62.3147C-0.443454 64.0877 -0.443454 66.9544 1.33036 68.7274C2.21395 69.6118 3.37573 70.0561 4.53668 70.0561C5.69763 70.0561 6.85858 69.6118 7.743 68.7274L34.9996 41.4699L62.2571 68.7274C63.1415 69.6118 64.3024 70.0561 65.4634 70.0561C66.6243 70.0561 67.7853 69.6118 68.6697 68.7274C70.4435 66.9544 70.4435 64.0877 68.6697 62.3147L41.4131 35.0573Z" fill="white"/>
</g>
<defs>
<clipPath id="clip0">
<rect width="70" height="70" fill="white"/>
</clipPath>
</defs>
</svg>
