<svg width="32" height="32" viewBox="0 0 32 32" fill="none" xmlns="http://www.w3.org/2000/svg">
<path d="M16 32C24.8366 32 32 24.8366 32 16C32 7.16344 24.8366 0 16 0C7.16344 0 0 7.16344 0 16C0 24.8366 7.16344 32 16 32Z" fill="#1657FF"/>
<path fill-rule="evenodd" clip-rule="evenodd" d="M16 10.667C14.5511 10.667 14.3707 10.6732 13.8009 10.6999C11.8631 10.7888 10.7876 11.8634 10.6987 13.8012C10.6729 14.371 10.6667 14.5523 10.6667 16.0003C10.6667 17.4492 10.6729 17.6305 10.6987 18.1994C10.7876 20.1363 11.8631 21.2128 13.8009 21.3017C14.3707 21.3274 14.5511 21.3337 16 21.3337C17.4489 21.3337 17.6302 21.3274 18.2 21.3017C20.1342 21.2128 21.2142 20.1381 21.3014 18.1994C21.3271 17.6305 21.3334 17.4492 21.3334 16.0003C21.3334 14.5523 21.3271 14.371 21.3014 13.8012C21.2142 11.8661 20.1378 10.7879 18.2 10.6999C17.6302 10.6732 17.4489 10.667 16 10.667ZM16 11.6283C17.424 11.6283 17.5929 11.6337 18.1556 11.6595C19.6018 11.7252 20.2756 12.4106 20.3422 13.8452C20.3671 14.4079 20.3725 14.5759 20.3725 15.9999C20.3725 17.4239 20.3671 17.5928 20.3422 18.1546C20.2756 19.5883 19.6027 20.2755 18.1556 20.3412C17.5929 20.3661 17.4249 20.3723 16 20.3723C14.576 20.3723 14.4071 20.367 13.8454 20.3412C12.3965 20.2746 11.7254 19.5866 11.6587 18.1546C11.6338 17.5928 11.6276 17.4239 11.6276 15.9999C11.6276 14.5759 11.6338 14.407 11.6587 13.8452C11.7245 12.4097 12.3982 11.7243 13.8454 11.6586C14.4071 11.6328 14.576 11.6283 16 11.6283ZM13.2614 15.9998C13.2614 14.4869 14.488 13.2612 16 13.2612C17.512 13.2612 18.7387 14.4878 18.7387 15.9998C18.7387 17.5127 17.512 18.7385 16 18.7385C14.488 18.7385 13.2614 17.5127 13.2614 15.9998ZM15.9999 17.7777C15.0177 17.7777 14.2222 16.9821 14.2222 15.9999C14.2222 15.0185 15.0177 14.2221 15.9999 14.2221C16.9813 14.2221 17.7786 15.0177 17.7786 15.9999C17.7786 16.9821 16.9813 17.7777 15.9999 17.7777ZM18.2062 13.1545C18.2062 12.8007 18.4933 12.5145 18.8462 12.5145C19.2009 12.5145 19.4871 12.8007 19.4871 13.1545C19.4871 13.5083 19.2 13.7945 18.8462 13.7945C18.4924 13.7945 18.2062 13.5074 18.2062 13.1545Z" fill="white"/>
</svg>
