<svg width="447" height="307" viewBox="0 0 447 307" fill="none" xmlns="http://www.w3.org/2000/svg">
<g filter="url(#filter0_d)">
<rect x="74" y="50" width="299" height="159" rx="20" fill="white"/>
</g>
<g clip-path="url(#clip0)">
<path d="M183.736 95.9585C169.427 92.0378 155.034 85.9329 142.113 78.3039C141.426 77.8987 140.575 77.8987 139.888 78.3039C126.594 86.1521 112.979 91.9267 98.2635 95.9585C97.3129 96.2187 96.6539 97.0828 96.6539 98.0686V120.422C96.6539 143.44 107.273 158.677 116.182 167.406C125.772 176.803 136.944 182 141 182C145.056 182 156.228 176.803 165.819 167.406C174.727 158.677 185.346 143.441 185.346 120.422V98.0684C185.346 97.0828 184.687 96.2187 183.736 95.9585ZM180.971 120.421C180.971 141.921 171.066 156.138 162.757 164.28C153.325 173.521 143.242 177.624 141 177.624C138.759 177.624 128.675 173.521 119.244 164.28C110.934 156.138 101.029 141.921 101.029 120.421V99.7291C115.102 95.7336 128.207 90.1577 141.001 82.7227C153.476 89.9604 167.235 95.8137 180.971 99.7283V120.421Z" fill="url(#paint0_linear)"/>
<path d="M121.609 99.4844C121.166 98.3601 119.896 97.8078 118.772 98.2508C114.864 99.7907 110.852 101.208 106.849 102.464C105.937 102.75 105.316 103.595 105.316 104.551V112.999C105.316 114.207 106.296 115.187 107.504 115.187C108.712 115.187 109.692 114.207 109.692 112.999V106.15C113.283 104.988 116.87 103.703 120.376 102.321C121.5 101.879 122.052 100.609 121.609 99.4844Z" fill="url(#paint1_linear)"/>
<path d="M125.765 99.8994C126.058 99.8994 126.356 99.8403 126.642 99.7156L126.682 99.6981C127.789 99.2131 128.288 97.9247 127.803 96.8182C127.317 95.7114 126.021 95.2107 124.916 95.6954L124.881 95.7106C123.773 96.1942 123.273 97.4816 123.757 98.5887C124.116 99.4105 124.921 99.8994 125.765 99.8994Z" fill="url(#paint2_linear)"/>
<path d="M167.065 148.542C166.054 147.881 164.699 148.165 164.037 149.177C162.234 151.936 160.119 154.578 157.75 157.029C155.802 159.045 153.691 160.923 151.475 162.612C150.514 163.344 150.33 164.717 151.062 165.678C151.493 166.243 152.144 166.54 152.803 166.54C153.266 166.54 153.732 166.394 154.128 166.091C156.518 164.269 158.795 162.243 160.896 160.07C163.457 157.421 165.746 154.561 167.7 151.57C168.361 150.558 168.077 149.203 167.065 148.542Z" fill="url(#paint3_linear)"/>
<path d="M146.394 166.043L146.269 166.117C145.223 166.722 144.866 168.061 145.471 169.106C145.877 169.807 146.611 170.198 147.367 170.198C147.739 170.198 148.116 170.103 148.461 169.903L148.605 169.818C149.648 169.207 149.998 167.867 149.388 166.825C148.777 165.783 147.437 165.433 146.394 166.043Z" fill="url(#paint4_linear)"/>
<path d="M126.088 125.535C124.745 124.192 122.959 123.452 121.059 123.452C119.158 123.452 117.372 124.192 116.028 125.535C113.255 128.309 113.255 132.822 116.028 135.596L128.946 148.513C130.289 149.857 132.076 150.596 133.976 150.596C135.876 150.596 137.663 149.857 139.006 148.513L165.973 121.546C168.746 118.771 168.746 114.259 165.973 111.486C164.63 110.142 162.843 109.403 160.943 109.403C159.042 109.403 157.256 110.142 155.912 111.486L133.976 133.422L126.088 125.535ZM159.006 114.58C159.523 114.063 160.211 113.778 160.943 113.778C161.675 113.778 162.362 114.063 162.88 114.58C163.947 115.647 163.947 117.385 162.879 118.452L135.913 145.419C135.396 145.936 134.708 146.221 133.976 146.221C133.244 146.221 132.556 145.936 132.039 145.419L119.122 132.502C118.054 131.434 118.054 129.697 119.121 128.629C119.638 128.112 120.326 127.827 121.058 127.827C121.79 127.827 122.478 128.112 122.995 128.629L132.429 138.063C132.839 138.473 133.396 138.704 133.976 138.704C134.556 138.704 135.112 138.474 135.522 138.063L159.006 114.58Z" fill="url(#paint5_linear)"/>
</g>
<path d="M219.741 109H217.614V98.7256L214.477 99.7979V97.9961L219.469 96.1592H219.741V109ZM232.529 103.612C232.529 105.452 232.184 106.841 231.492 107.778C230.807 108.71 229.761 109.176 228.354 109.176C226.972 109.176 225.929 108.722 225.226 107.813C224.528 106.899 224.171 105.549 224.153 103.762V101.547C224.153 99.707 224.496 98.3271 225.182 97.4072C225.873 96.4873 226.925 96.0273 228.337 96.0273C229.737 96.0273 230.78 96.4756 231.466 97.3721C232.157 98.2686 232.512 99.6104 232.529 101.397V103.612ZM230.394 101.222C230.394 100.021 230.229 99.1416 229.901 98.585C229.573 98.0225 229.052 97.7412 228.337 97.7412C227.64 97.7412 227.127 98.0078 226.799 98.541C226.471 99.0684 226.298 99.8945 226.28 101.02V103.92C226.28 105.115 226.447 106.006 226.781 106.592C227.115 107.178 227.64 107.471 228.354 107.471C229.04 107.471 229.547 107.201 229.875 106.662C230.203 106.117 230.376 105.268 230.394 104.113V101.222ZM242.76 103.612C242.76 105.452 242.414 106.841 241.723 107.778C241.037 108.71 239.991 109.176 238.585 109.176C237.202 109.176 236.159 108.722 235.456 107.813C234.759 106.899 234.401 105.549 234.384 103.762V101.547C234.384 99.707 234.727 98.3271 235.412 97.4072C236.104 96.4873 237.155 96.0273 238.567 96.0273C239.968 96.0273 241.011 96.4756 241.696 97.3721C242.388 98.2686 242.742 99.6104 242.76 101.397V103.612ZM240.624 101.222C240.624 100.021 240.46 99.1416 240.132 98.585C239.804 98.0225 239.282 97.7412 238.567 97.7412C237.87 97.7412 237.357 98.0078 237.029 98.541C236.701 99.0684 236.528 99.8945 236.511 101.02V103.92C236.511 105.115 236.678 106.006 237.012 106.592C237.346 107.178 237.87 107.471 238.585 107.471C239.271 107.471 239.777 107.201 240.105 106.662C240.434 106.117 240.606 105.268 240.624 104.113V101.222ZM244.562 98.6641C244.562 97.8906 244.811 97.2578 245.309 96.7656C245.807 96.2676 246.46 96.0186 247.269 96.0186C248.089 96.0186 248.745 96.2676 249.237 96.7656C249.735 97.2578 249.984 97.9053 249.984 98.708V99.3408C249.984 100.108 249.735 100.738 249.237 101.23C248.745 101.723 248.095 101.969 247.286 101.969C246.495 101.969 245.842 101.729 245.326 101.248C244.816 100.762 244.562 100.108 244.562 99.2881V98.6641ZM246.056 99.3408C246.056 99.7451 246.167 100.073 246.39 100.325C246.618 100.571 246.917 100.694 247.286 100.694C247.649 100.694 247.942 100.571 248.165 100.325C248.388 100.073 248.499 99.7334 248.499 99.3057V98.6641C248.499 98.2598 248.385 97.9316 248.156 97.6797C247.934 97.4277 247.638 97.3018 247.269 97.3018C246.899 97.3018 246.604 97.4307 246.381 97.6885C246.164 97.9404 246.056 98.2744 246.056 98.6904V99.3408ZM250.714 105.862C250.714 105.077 250.969 104.441 251.479 103.955C251.988 103.469 252.639 103.226 253.43 103.226C254.227 103.226 254.877 103.469 255.381 103.955C255.891 104.441 256.146 105.098 256.146 105.924V106.548C256.146 107.31 255.899 107.939 255.407 108.438C254.921 108.93 254.268 109.176 253.447 109.176C252.627 109.176 251.965 108.933 251.461 108.446C250.963 107.954 250.714 107.307 250.714 106.504V105.862ZM252.208 106.548C252.208 106.946 252.322 107.274 252.551 107.532C252.785 107.784 253.084 107.91 253.447 107.91C253.822 107.91 254.115 107.79 254.326 107.55C254.543 107.304 254.651 106.961 254.651 106.521V105.862C254.651 105.452 254.537 105.124 254.309 104.878C254.08 104.632 253.787 104.509 253.43 104.509C253.066 104.509 252.771 104.632 252.542 104.878C252.319 105.124 252.208 105.464 252.208 105.897V106.548ZM247.726 108.042L246.627 107.409L252.876 97.4072L253.975 98.04L247.726 108.042ZM269.382 105.704C269.382 105.142 269.183 104.708 268.784 104.403C268.392 104.099 267.68 103.791 266.648 103.48C265.617 103.17 264.797 102.824 264.188 102.443C263.021 101.711 262.438 100.756 262.438 99.5781C262.438 98.5469 262.857 97.6973 263.695 97.0293C264.539 96.3613 265.632 96.0273 266.974 96.0273C267.864 96.0273 268.658 96.1914 269.355 96.5195C270.053 96.8477 270.601 97.3164 270.999 97.9258C271.397 98.5293 271.597 99.2002 271.597 99.9385H269.382C269.382 99.2705 269.171 98.749 268.749 98.374C268.333 97.9932 267.735 97.8027 266.956 97.8027C266.229 97.8027 265.664 97.958 265.26 98.2686C264.861 98.5791 264.662 99.0127 264.662 99.5693C264.662 100.038 264.879 100.431 265.312 100.747C265.746 101.058 266.461 101.362 267.457 101.661C268.453 101.954 269.253 102.291 269.856 102.672C270.46 103.047 270.902 103.48 271.184 103.973C271.465 104.459 271.605 105.03 271.605 105.687C271.605 106.753 271.195 107.603 270.375 108.235C269.561 108.862 268.453 109.176 267.053 109.176C266.127 109.176 265.274 109.006 264.495 108.666C263.722 108.32 263.118 107.846 262.685 107.242C262.257 106.639 262.043 105.936 262.043 105.133H264.267C264.267 105.859 264.507 106.422 264.987 106.82C265.468 107.219 266.156 107.418 267.053 107.418C267.826 107.418 268.406 107.263 268.793 106.952C269.186 106.636 269.382 106.22 269.382 105.704ZM281.036 103.287H275.78V107.225H281.924V109H273.557V96.2031H281.862V97.9961H275.78V101.529H281.036V103.287ZM293.499 104.834C293.37 106.199 292.866 107.266 291.987 108.033C291.108 108.795 289.939 109.176 288.48 109.176C287.461 109.176 286.562 108.936 285.782 108.455C285.009 107.969 284.411 107.28 283.989 106.39C283.567 105.499 283.348 104.465 283.33 103.287V102.092C283.33 100.885 283.544 99.8213 283.972 98.9014C284.399 97.9814 285.012 97.2725 285.809 96.7744C286.611 96.2764 287.537 96.0273 288.586 96.0273C289.998 96.0273 291.135 96.4111 291.996 97.1787C292.857 97.9463 293.358 99.0303 293.499 100.431H291.284C291.179 99.5107 290.909 98.8486 290.476 98.4443C290.048 98.0342 289.418 97.8291 288.586 97.8291C287.619 97.8291 286.875 98.1836 286.354 98.8926C285.838 99.5957 285.574 100.63 285.562 101.995V103.129C285.562 104.512 285.809 105.566 286.301 106.293C286.799 107.02 287.525 107.383 288.48 107.383C289.354 107.383 290.01 107.187 290.449 106.794C290.889 106.401 291.167 105.748 291.284 104.834H293.499ZM304.854 96.2031V104.755C304.854 106.114 304.418 107.192 303.545 107.989C302.678 108.78 301.521 109.176 300.073 109.176C298.608 109.176 297.445 108.786 296.584 108.007C295.723 107.222 295.292 106.135 295.292 104.746V96.2031H297.507V104.764C297.507 105.619 297.724 106.272 298.157 106.724C298.591 107.175 299.229 107.4 300.073 107.4C301.784 107.4 302.64 106.498 302.64 104.693V96.2031H304.854ZM311.938 104.069H309.46V109H307.236V96.2031H311.736C313.213 96.2031 314.353 96.5342 315.155 97.1963C315.958 97.8584 316.359 98.8164 316.359 100.07C316.359 100.926 316.151 101.644 315.735 102.224C315.325 102.798 314.751 103.24 314.013 103.551L316.887 108.886V109H314.505L311.938 104.069ZM309.46 102.285H311.745C312.495 102.285 313.081 102.098 313.503 101.723C313.925 101.342 314.136 100.823 314.136 100.167C314.136 99.4814 313.939 98.9512 313.547 98.5762C313.16 98.2012 312.58 98.0078 311.807 97.9961H309.46V102.285ZM325.948 103.287H320.692V107.225H326.836V109H318.469V96.2031H326.774V97.9961H320.692V101.529H325.948V103.287Z" fill="black"/>
<path d="M218.814 136.506L221.252 129.469H222.482L219.318 138H218.322L215.164 129.469H216.389L218.814 136.506ZM228.453 134.057H224.756V137.08H229.051V138H223.631V129.469H228.992V130.395H224.756V133.137H228.453V134.057ZM233.58 134.549H231.576V138H230.445V129.469H233.27C234.23 129.469 234.969 129.688 235.484 130.125C236.004 130.562 236.264 131.199 236.264 132.035C236.264 132.566 236.119 133.029 235.83 133.424C235.545 133.818 235.146 134.113 234.635 134.309L236.639 137.93V138H235.432L233.58 134.549ZM231.576 133.629H233.305C233.863 133.629 234.307 133.484 234.635 133.195C234.967 132.906 235.133 132.52 235.133 132.035C235.133 131.508 234.975 131.104 234.658 130.822C234.346 130.541 233.893 130.398 233.299 130.395H231.576V133.629ZM239.053 138H237.928V129.469H239.053V138ZM245.82 134.232H242.24V138H241.115V129.469H246.4V130.395H242.24V133.312H245.82V134.232ZM250.35 133.752L252.576 129.469H253.854L250.912 134.818V138H249.787V134.818L246.846 129.469H248.135L250.35 133.752ZM257.932 138V129.469H260.721C261.646 129.469 262.342 129.66 262.807 130.043C263.275 130.426 263.51 130.992 263.51 131.742C263.51 132.141 263.396 132.494 263.17 132.803C262.943 133.107 262.635 133.344 262.244 133.512C262.705 133.641 263.068 133.887 263.334 134.25C263.604 134.609 263.738 135.039 263.738 135.539C263.738 136.305 263.49 136.906 262.994 137.344C262.498 137.781 261.797 138 260.891 138H257.932ZM259.057 134.01V137.08H260.914C261.438 137.08 261.85 136.945 262.15 136.676C262.455 136.402 262.607 136.027 262.607 135.551C262.607 134.523 262.049 134.01 260.932 134.01H259.057ZM259.057 133.107H260.756C261.248 133.107 261.641 132.984 261.934 132.738C262.23 132.492 262.379 132.158 262.379 131.736C262.379 131.268 262.242 130.928 261.969 130.717C261.695 130.502 261.279 130.395 260.721 130.395H259.057V133.107ZM267.682 133.752L269.908 129.469H271.186L268.244 134.818V138H267.119V134.818L264.178 129.469H265.467L267.682 133.752ZM276.395 137.08H280.438V138H275.264V129.469H276.395V137.08ZM286.543 134.057H282.846V137.08H287.141V138H281.721V129.469H287.082V130.395H282.846V133.137H286.543V134.057ZM294.84 136.881C294.551 137.295 294.146 137.605 293.627 137.812C293.111 138.016 292.51 138.117 291.822 138.117C291.127 138.117 290.51 137.955 289.971 137.631C289.432 137.303 289.014 136.838 288.717 136.236C288.424 135.635 288.273 134.938 288.266 134.145V133.4C288.266 132.115 288.564 131.119 289.162 130.412C289.764 129.705 290.607 129.352 291.693 129.352C292.584 129.352 293.301 129.58 293.844 130.037C294.387 130.49 294.719 131.135 294.84 131.971H293.715C293.504 130.842 292.832 130.277 291.699 130.277C290.945 130.277 290.373 130.543 289.982 131.074C289.596 131.602 289.4 132.367 289.396 133.371V134.068C289.396 135.025 289.615 135.787 290.053 136.354C290.49 136.916 291.082 137.197 291.828 137.197C292.25 137.197 292.619 137.15 292.936 137.057C293.252 136.963 293.514 136.805 293.721 136.582V134.666H291.746V133.752H294.84V136.881ZM301.432 135.773H297.857L297.055 138H295.895L299.152 129.469H300.137L303.4 138H302.246L301.432 135.773ZM298.197 134.848H301.098L299.645 130.857L298.197 134.848ZM305.68 137.08H309.723V138H304.549V129.469H305.68V137.08ZM315.189 138H314.064V129.469H315.189V138ZM317.252 138V129.469H319.66C320.402 129.469 321.059 129.633 321.629 129.961C322.199 130.289 322.639 130.756 322.947 131.361C323.26 131.967 323.418 132.662 323.422 133.447V133.992C323.422 134.797 323.266 135.502 322.953 136.107C322.645 136.713 322.201 137.178 321.623 137.502C321.049 137.826 320.379 137.992 319.613 138H317.252ZM318.377 130.395V137.08H319.561C320.428 137.08 321.102 136.811 321.582 136.271C322.066 135.732 322.309 134.965 322.309 133.969V133.471C322.309 132.502 322.08 131.75 321.623 131.215C321.17 130.676 320.525 130.402 319.689 130.395H318.377ZM220.812 148.057H217.115V151.08H221.41V152H215.99V143.469H221.352V144.395H217.115V147.137H220.812V148.057ZM227.521 149.773H223.947L223.145 152H221.984L225.242 143.469H226.227L229.49 152H228.336L227.521 149.773ZM224.287 148.848H227.188L225.734 144.857L224.287 148.848ZM236.844 149.293C236.738 150.195 236.404 150.893 235.842 151.385C235.283 151.873 234.539 152.117 233.609 152.117C232.602 152.117 231.793 151.756 231.184 151.033C230.578 150.311 230.275 149.344 230.275 148.133V147.312C230.275 146.52 230.416 145.822 230.697 145.221C230.982 144.619 231.385 144.158 231.904 143.838C232.424 143.514 233.025 143.352 233.709 143.352C234.615 143.352 235.342 143.605 235.889 144.113C236.436 144.617 236.754 145.316 236.844 146.211H235.713C235.615 145.531 235.402 145.039 235.074 144.734C234.75 144.43 234.295 144.277 233.709 144.277C232.99 144.277 232.426 144.543 232.016 145.074C231.609 145.605 231.406 146.361 231.406 147.342V148.168C231.406 149.094 231.6 149.83 231.986 150.377C232.373 150.924 232.914 151.197 233.609 151.197C234.234 151.197 234.713 151.057 235.045 150.775C235.381 150.49 235.604 149.996 235.713 149.293H236.844ZM244.941 152H243.811V148.057H239.51V152H238.385V143.469H239.51V147.137H243.811V143.469H244.941V152ZM254.627 149.773H251.053L250.25 152H249.09L252.348 143.469H253.332L256.596 152H255.441L254.627 149.773ZM251.393 148.848H254.293L252.84 144.857L251.393 148.848ZM263.949 149.293C263.844 150.195 263.51 150.893 262.947 151.385C262.389 151.873 261.645 152.117 260.715 152.117C259.707 152.117 258.898 151.756 258.289 151.033C257.684 150.311 257.381 149.344 257.381 148.133V147.312C257.381 146.52 257.521 145.822 257.803 145.221C258.088 144.619 258.49 144.158 259.01 143.838C259.529 143.514 260.131 143.352 260.814 143.352C261.721 143.352 262.447 143.605 262.994 144.113C263.541 144.617 263.859 145.316 263.949 146.211H262.818C262.721 145.531 262.508 145.039 262.18 144.734C261.855 144.43 261.4 144.277 260.814 144.277C260.096 144.277 259.531 144.543 259.121 145.074C258.715 145.605 258.512 146.361 258.512 147.342V148.168C258.512 149.094 258.705 149.83 259.092 150.377C259.479 150.924 260.02 151.197 260.715 151.197C261.34 151.197 261.818 151.057 262.15 150.775C262.486 150.49 262.709 149.996 262.818 149.293H263.949ZM271.766 149.293C271.66 150.195 271.326 150.893 270.764 151.385C270.205 151.873 269.461 152.117 268.531 152.117C267.523 152.117 266.715 151.756 266.105 151.033C265.5 150.311 265.197 149.344 265.197 148.133V147.312C265.197 146.52 265.338 145.822 265.619 145.221C265.904 144.619 266.307 144.158 266.826 143.838C267.346 143.514 267.947 143.352 268.631 143.352C269.537 143.352 270.264 143.605 270.811 144.113C271.357 144.617 271.676 145.316 271.766 146.211H270.635C270.537 145.531 270.324 145.039 269.996 144.734C269.672 144.43 269.217 144.277 268.631 144.277C267.912 144.277 267.348 144.543 266.938 145.074C266.531 145.605 266.328 146.361 266.328 147.342V148.168C266.328 149.094 266.521 149.83 266.908 150.377C267.295 150.924 267.836 151.197 268.531 151.197C269.156 151.197 269.635 151.057 269.967 150.775C270.303 150.49 270.525 149.996 270.635 149.293H271.766ZM279.869 148.01C279.869 148.846 279.729 149.576 279.447 150.201C279.166 150.822 278.768 151.297 278.252 151.625C277.736 151.953 277.135 152.117 276.447 152.117C275.775 152.117 275.18 151.953 274.66 151.625C274.141 151.293 273.736 150.822 273.447 150.213C273.162 149.6 273.016 148.891 273.008 148.086V147.471C273.008 146.65 273.15 145.926 273.436 145.297C273.721 144.668 274.123 144.188 274.643 143.855C275.166 143.52 275.764 143.352 276.436 143.352C277.119 143.352 277.721 143.518 278.24 143.85C278.764 144.178 279.166 144.656 279.447 145.285C279.729 145.91 279.869 146.639 279.869 147.471V148.01ZM278.75 147.459C278.75 146.447 278.547 145.672 278.141 145.133C277.734 144.59 277.166 144.318 276.436 144.318C275.725 144.318 275.164 144.59 274.754 145.133C274.348 145.672 274.139 146.422 274.127 147.383V148.01C274.127 148.99 274.332 149.762 274.742 150.324C275.156 150.883 275.725 151.162 276.447 151.162C277.174 151.162 277.736 150.898 278.135 150.371C278.533 149.84 278.738 149.08 278.75 148.092V147.459ZM287.562 143.469V149.27C287.559 150.074 287.305 150.732 286.801 151.244C286.301 151.756 285.621 152.043 284.762 152.105L284.463 152.117C283.529 152.117 282.785 151.865 282.23 151.361C281.676 150.857 281.395 150.164 281.387 149.281V143.469H282.5V149.246C282.5 149.863 282.67 150.344 283.01 150.688C283.35 151.027 283.834 151.197 284.463 151.197C285.1 151.197 285.586 151.027 285.922 150.688C286.262 150.348 286.432 149.869 286.432 149.252V143.469H287.562ZM295.895 152H294.764L290.469 145.426V152H289.338V143.469H290.469L294.775 150.072V143.469H295.895V152ZM303.611 144.395H300.869V152H299.75V144.395H297.014V143.469H303.611V144.395ZM308.75 151.08H312.793V152H307.619V143.469H308.75V151.08ZM320.252 148.01C320.252 148.846 320.111 149.576 319.83 150.201C319.549 150.822 319.15 151.297 318.635 151.625C318.119 151.953 317.518 152.117 316.83 152.117C316.158 152.117 315.562 151.953 315.043 151.625C314.523 151.293 314.119 150.822 313.83 150.213C313.545 149.6 313.398 148.891 313.391 148.086V147.471C313.391 146.65 313.533 145.926 313.818 145.297C314.104 144.668 314.506 144.188 315.025 143.855C315.549 143.52 316.146 143.352 316.818 143.352C317.502 143.352 318.104 143.518 318.623 143.85C319.146 144.178 319.549 144.656 319.83 145.285C320.111 145.91 320.252 146.639 320.252 147.471V148.01ZM319.133 147.459C319.133 146.447 318.93 145.672 318.523 145.133C318.117 144.59 317.549 144.318 316.818 144.318C316.107 144.318 315.547 144.59 315.137 145.133C314.73 145.672 314.521 146.422 314.51 147.383V148.01C314.51 148.99 314.715 149.762 315.125 150.324C315.539 150.883 316.107 151.162 316.83 151.162C317.557 151.162 318.119 150.898 318.518 150.371C318.916 149.84 319.121 149.08 319.133 148.092V147.459ZM328.502 148.01C328.502 148.846 328.361 149.576 328.08 150.201C327.799 150.822 327.4 151.297 326.885 151.625C326.369 151.953 325.768 152.117 325.08 152.117C324.408 152.117 323.812 151.953 323.293 151.625C322.773 151.293 322.369 150.822 322.08 150.213C321.795 149.6 321.648 148.891 321.641 148.086V147.471C321.641 146.65 321.783 145.926 322.068 145.297C322.354 144.668 322.756 144.188 323.275 143.855C323.799 143.52 324.396 143.352 325.068 143.352C325.752 143.352 326.354 143.518 326.873 143.85C327.396 144.178 327.799 144.656 328.08 145.285C328.361 145.91 328.502 146.639 328.502 147.471V148.01ZM327.383 147.459C327.383 146.447 327.18 145.672 326.773 145.133C326.367 144.59 325.799 144.318 325.068 144.318C324.357 144.318 323.797 144.59 323.387 145.133C322.98 145.672 322.771 146.422 322.76 147.383V148.01C322.76 148.99 322.965 149.762 323.375 150.324C323.789 150.883 324.357 151.162 325.08 151.162C325.807 151.162 326.369 150.898 326.768 150.371C327.166 149.84 327.371 149.08 327.383 148.092V147.459ZM332.357 148.033L331.314 149.117V152H330.189V143.469H331.314V147.688L335.105 143.469H336.465L333.107 147.236L336.729 152H335.381L332.357 148.033ZM217.443 157.469L220.232 164.43L223.021 157.469H224.48V166H223.355V162.678L223.461 159.092L220.66 166H219.799L217.004 159.109L217.115 162.678V166H215.99V157.469H217.443ZM233.029 162.01C233.029 162.846 232.889 163.576 232.607 164.201C232.326 164.822 231.928 165.297 231.412 165.625C230.896 165.953 230.295 166.117 229.607 166.117C228.936 166.117 228.34 165.953 227.82 165.625C227.301 165.293 226.896 164.822 226.607 164.213C226.322 163.6 226.176 162.891 226.168 162.086V161.471C226.168 160.65 226.311 159.926 226.596 159.297C226.881 158.668 227.283 158.188 227.803 157.855C228.326 157.52 228.924 157.352 229.596 157.352C230.279 157.352 230.881 157.518 231.4 157.85C231.924 158.178 232.326 158.656 232.607 159.285C232.889 159.91 233.029 160.639 233.029 161.471V162.01ZM231.91 161.459C231.91 160.447 231.707 159.672 231.301 159.133C230.895 158.59 230.326 158.318 229.596 158.318C228.885 158.318 228.324 158.59 227.914 159.133C227.508 159.672 227.299 160.422 227.287 161.383V162.01C227.287 162.99 227.492 163.762 227.902 164.324C228.316 164.883 228.885 165.162 229.607 165.162C230.334 165.162 230.896 164.898 231.295 164.371C231.693 163.84 231.898 163.08 231.91 162.092V161.459ZM237.846 162.549H235.842V166H234.711V157.469H237.535C238.496 157.469 239.234 157.688 239.75 158.125C240.27 158.562 240.529 159.199 240.529 160.035C240.529 160.566 240.385 161.029 240.096 161.424C239.811 161.818 239.412 162.113 238.9 162.309L240.904 165.93V166H239.697L237.846 162.549ZM235.842 161.629H237.57C238.129 161.629 238.572 161.484 238.9 161.195C239.232 160.906 239.398 160.52 239.398 160.035C239.398 159.508 239.24 159.104 238.924 158.822C238.611 158.541 238.158 158.398 237.564 158.395H235.842V161.629ZM246.934 162.057H243.236V165.08H247.531V166H242.111V157.469H247.473V158.395H243.236V161.137H246.934V162.057ZM254.422 162.197C253.457 161.92 252.754 161.58 252.312 161.178C251.875 160.771 251.656 160.271 251.656 159.678C251.656 159.006 251.924 158.451 252.459 158.014C252.998 157.572 253.697 157.352 254.557 157.352C255.143 157.352 255.664 157.465 256.121 157.691C256.582 157.918 256.938 158.23 257.188 158.629C257.441 159.027 257.568 159.463 257.568 159.936H256.438C256.438 159.42 256.273 159.016 255.945 158.723C255.617 158.426 255.154 158.277 254.557 158.277C254.002 158.277 253.568 158.4 253.256 158.646C252.947 158.889 252.793 159.227 252.793 159.66C252.793 160.008 252.939 160.303 253.232 160.545C253.529 160.783 254.031 161.002 254.738 161.201C255.449 161.4 256.004 161.621 256.402 161.863C256.805 162.102 257.102 162.381 257.293 162.701C257.488 163.021 257.586 163.398 257.586 163.832C257.586 164.523 257.316 165.078 256.777 165.496C256.238 165.91 255.518 166.117 254.615 166.117C254.029 166.117 253.482 166.006 252.975 165.783C252.467 165.557 252.074 165.248 251.797 164.857C251.523 164.467 251.387 164.023 251.387 163.527H252.518C252.518 164.043 252.707 164.451 253.086 164.752C253.469 165.049 253.979 165.197 254.615 165.197C255.209 165.197 255.664 165.076 255.98 164.834C256.297 164.592 256.455 164.262 256.455 163.844C256.455 163.426 256.309 163.104 256.016 162.877C255.723 162.646 255.191 162.42 254.422 162.197ZM263.855 162.057H260.158V165.08H264.453V166H259.033V157.469H264.395V158.395H260.158V161.137H263.855V162.057ZM272.129 163.293C272.023 164.195 271.689 164.893 271.127 165.385C270.568 165.873 269.824 166.117 268.895 166.117C267.887 166.117 267.078 165.756 266.469 165.033C265.863 164.311 265.561 163.344 265.561 162.133V161.312C265.561 160.52 265.701 159.822 265.982 159.221C266.268 158.619 266.67 158.158 267.189 157.838C267.709 157.514 268.311 157.352 268.994 157.352C269.9 157.352 270.627 157.605 271.174 158.113C271.721 158.617 272.039 159.316 272.129 160.211H270.998C270.9 159.531 270.688 159.039 270.359 158.734C270.035 158.43 269.58 158.277 268.994 158.277C268.275 158.277 267.711 158.543 267.301 159.074C266.895 159.605 266.691 160.361 266.691 161.342V162.168C266.691 163.094 266.885 163.83 267.271 164.377C267.658 164.924 268.199 165.197 268.895 165.197C269.52 165.197 269.998 165.057 270.33 164.775C270.666 164.49 270.889 163.996 270.998 163.293H272.129ZM279.676 157.469V163.27C279.672 164.074 279.418 164.732 278.914 165.244C278.414 165.756 277.734 166.043 276.875 166.105L276.576 166.117C275.643 166.117 274.898 165.865 274.344 165.361C273.789 164.857 273.508 164.164 273.5 163.281V157.469H274.613V163.246C274.613 163.863 274.783 164.344 275.123 164.688C275.463 165.027 275.947 165.197 276.576 165.197C277.213 165.197 277.699 165.027 278.035 164.688C278.375 164.348 278.545 163.869 278.545 163.252V157.469H279.676ZM284.58 162.549H282.576V166H281.445V157.469H284.27C285.23 157.469 285.969 157.688 286.484 158.125C287.004 158.562 287.264 159.199 287.264 160.035C287.264 160.566 287.119 161.029 286.83 161.424C286.545 161.818 286.146 162.113 285.635 162.309L287.639 165.93V166H286.432L284.58 162.549ZM282.576 161.629H284.305C284.863 161.629 285.307 161.484 285.635 161.195C285.967 160.906 286.133 160.52 286.133 160.035C286.133 159.508 285.975 159.104 285.658 158.822C285.346 158.541 284.893 158.398 284.299 158.395H282.576V161.629ZM293.668 162.057H289.971V165.08H294.266V166H288.846V157.469H294.207V158.395H289.971V161.137H293.668V162.057Z" fill="black"/>
<defs>
<filter id="filter0_d" x="0" y="0" width="447" height="307" filterUnits="userSpaceOnUse" color-interpolation-filters="sRGB">
<feFlood flood-opacity="0" result="BackgroundImageFix"/>
<feColorMatrix in="SourceAlpha" type="matrix" values="0 0 0 0 0 0 0 0 0 0 0 0 0 0 0 0 0 0 127 0"/>
<feOffset dy="24"/>
<feGaussianBlur stdDeviation="37"/>
<feColorMatrix type="matrix" values="0 0 0 0 0 0 0 0 0 0 0 0 0 0 0 0 0 0 0.3 0"/>
<feBlend mode="normal" in2="BackgroundImageFix" result="effect1_dropShadow"/>
<feBlend mode="normal" in="SourceGraphic" in2="effect1_dropShadow" result="shape"/>
</filter>
<linearGradient id="paint0_linear" x1="96.6539" y1="83.3315" x2="192.352" y2="94.3262" gradientUnits="userSpaceOnUse">
<stop offset="0.00488889" stop-color="#A17FE0"/>
<stop offset="1" stop-color="#5D26C1"/>
</linearGradient>
<linearGradient id="paint1_linear" x1="105.316" y1="98.974" x2="122.998" y2="101.266" gradientUnits="userSpaceOnUse">
<stop offset="0.00488889" stop-color="#A17FE0"/>
<stop offset="1" stop-color="#5D26C1"/>
</linearGradient>
<linearGradient id="paint2_linear" x1="123.572" y1="95.7355" x2="128.313" y2="96.378" gradientUnits="userSpaceOnUse">
<stop offset="0.00488889" stop-color="#A17FE0"/>
<stop offset="1" stop-color="#5D26C1"/>
</linearGradient>
<linearGradient id="paint3_linear" x1="150.614" y1="149.126" x2="169.375" y2="151.528" gradientUnits="userSpaceOnUse">
<stop offset="0.00488889" stop-color="#A17FE0"/>
<stop offset="1" stop-color="#5D26C1"/>
</linearGradient>
<linearGradient id="paint4_linear" x1="145.177" y1="165.971" x2="150.018" y2="166.632" gradientUnits="userSpaceOnUse">
<stop offset="0.00488889" stop-color="#A17FE0"/>
<stop offset="1" stop-color="#5D26C1"/>
</linearGradient>
<linearGradient id="paint5_linear" x1="113.948" y1="111.515" x2="171.302" y2="121.663" gradientUnits="userSpaceOnUse">
<stop offset="0.00488889" stop-color="#A17FE0"/>
<stop offset="1" stop-color="#5D26C1"/>
</linearGradient>
<clipPath id="clip0">
<rect width="104" height="104" fill="white" transform="translate(89 78)"/>
</clipPath>
</defs>
</svg>
