<svg width="253" height="225" viewBox="0 0 253 225" fill="none" xmlns="http://www.w3.org/2000/svg">
<circle cx="25.9039" cy="20.0786" r="14.6322" fill="#5D26C1"/>
<circle cx="241.728" cy="152.987" r="10.9741" fill="#A17FE0"/>
<circle cx="5.78467" cy="160.913" r="5.48706" fill="#59C173"/>
<path d="M99.1707 27.6274C103.893 15.9349 106.254 10.0887 110.635 6.29838C114.398 3.04233 119.42 0.933955 124.379 0.527771C130.153 0.0549399 136.169 2.54181 148.202 7.51554L187.839 23.899C193.592 26.2771 196.469 27.4662 198.949 29.3518C201.075 30.969 203.087 33.1347 204.543 35.3747C206.241 37.9866 207.17 40.8051 209.027 46.4421C215.588 66.3528 225.691 99.637 225.691 115.788C225.691 132.115 211.787 157.003 202.963 171.155C200.742 174.715 199.632 176.496 197.851 178.333C196.398 179.832 194.308 181.45 192.494 182.483C190.27 183.749 188.009 184.461 183.488 185.884L145.339 197.896C134.19 201.406 128.616 203.161 123.307 202.444C118.757 201.83 114.148 199.732 110.695 196.705C106.667 193.173 104.414 188.012 99.9061 177.689C88.9608 152.623 75.4875 118.746 75.4875 103.866C75.4875 89.3175 88.367 54.3773 99.1707 27.6274Z" fill="#A17FE0"/>
<path d="M39.9502 47.1019C57.614 31.7568 68.3739 16.482 76.7402 12.0623C80.6577 9.99282 84.3856 8.14376 87.9071 6.49278C96.6942 2.37318 101.088 0.313388 108.133 1.29057C113.312 2.009 120.501 6.14366 123.726 10.2597C128.113 15.858 128.632 21.7043 129.669 33.3967C131.781 57.217 133.993 85.104 133.993 97.4392C133.993 115.094 129.462 168.094 127.176 193.702C126.818 197.717 127.714 187.68 123.452 193.219C122.065 195.021 110.483 201.92 108.238 202.28C101.337 203.389 128.98 215.32 117.923 210.548C114.014 208.86 108.557 206.042 100.999 201.599C74.5132 186.031 33.6523 160.45 15.2298 127.85C0.0174007 100.931 11.0119 72.2415 39.9502 47.1019Z" fill="#59C173"/>
<g filter="url(#filter0_d)">
<circle cx="119.794" cy="100.555" r="87.793" fill="#5D26C1"/>
</g>
<path fill-rule="evenodd" clip-rule="evenodd" d="M85.365 76.1685C85.365 91.6196 97.3862 104.326 112.602 105.497C112.602 101.33 115.957 98.2692 119.794 98.2692C123.635 98.2692 126.985 101.333 126.985 105.497C142.201 104.326 154.222 91.6196 154.222 76.1685V73.8822H138.591L135.255 63.8078C134.322 60.9905 131.694 59.0977 128.716 59.0977H110.872C107.893 59.0977 105.265 60.9905 104.333 63.8077L100.996 73.8822H85.365V76.1685ZM108.692 65.2401C109.003 64.301 109.879 63.6702 110.872 63.6702H128.715C129.708 63.6702 130.584 64.301 130.895 65.2402L133.757 73.8822H105.83L108.692 65.2401ZM80.7745 130.277V127.229H158.813V130.277C158.813 134.059 155.724 137.136 151.927 137.136H87.6602C83.8634 137.136 80.7745 134.059 80.7745 130.277ZM117.192 105.433V110.31C117.192 111.739 118.359 112.901 119.794 112.901C121.228 112.901 122.395 111.739 122.395 110.31V105.433C122.395 104.004 121.228 102.842 119.794 102.842C118.359 102.842 117.192 104.004 117.192 105.433ZM158.813 76.1685V122.656H80.7745V76.1685C80.7745 94.2647 94.8977 108.917 112.602 110.081V110.31C112.602 114.26 115.828 117.474 119.794 117.474C123.759 117.474 126.985 114.26 126.985 110.31V110.081C144.685 108.917 158.813 94.2685 158.813 76.1685Z" fill="white"/>
<defs>
<filter id="filter0_d" x="8.00061" y="0.762482" width="223.586" height="223.586" filterUnits="userSpaceOnUse" color-interpolation-filters="sRGB">
<feFlood flood-opacity="0" result="BackgroundImageFix"/>
<feColorMatrix in="SourceAlpha" type="matrix" values="0 0 0 0 0 0 0 0 0 0 0 0 0 0 0 0 0 0 127 0"/>
<feOffset dy="12"/>
<feGaussianBlur stdDeviation="12"/>
<feColorMatrix type="matrix" values="0 0 0 0 0 0 0 0 0 0 0 0 0 0 0 0 0 0 0.08 0"/>
<feBlend mode="normal" in2="BackgroundImageFix" result="effect1_dropShadow"/>
<feBlend mode="normal" in="SourceGraphic" in2="effect1_dropShadow" result="shape"/>
</filter>
</defs>
</svg>
