<svg width="332" height="241" viewBox="0 0 332 241" fill="none" xmlns="http://www.w3.org/2000/svg">
<circle cx="316.02" cy="104.176" r="15.98" fill="#5D26C1"/>
<circle cx="12.4" cy="85.5323" r="11.985" fill="#A17FE0"/>
<circle cx="26.3825" cy="140.796" r="5.9925" fill="#59C173"/>
<path d="M60.495 108.831C52.251 84.8619 48.1291 72.8774 48.7158 65.2455C49.3007 57.6376 51.0711 52.7685 55.5091 46.5616C59.9611 40.335 67.5666 35.7546 82.7775 26.5938C95.6892 18.8178 107.652 12.4421 113.301 11.6506C114.703 11.4542 116.367 11.1237 118.234 10.6851C141.984 5.10648 153.859 2.31715 161.936 4.02472C169.749 5.67641 175.065 8.58753 180.664 14.281C186.452 20.167 189.803 29.699 196.503 48.7629L225.129 130.205C235.774 160.492 241.097 175.635 237.942 186.88C235.176 196.738 228.537 204.927 219.464 209.672C209.114 215.085 193.112 212.998 161.108 208.824C134.489 205.353 110.899 202.431 103.754 201.994C100.419 201.791 95.6797 201.321 90.1345 200.684C65.4406 197.848 60.0384 162.781 64.7863 138.382C66.3605 130.293 64.2273 119.682 60.495 108.831Z" fill="#59C173"/>
<path d="M106.483 54.2759C103.746 35.0574 102.378 25.4482 105.406 18.456C108.077 12.2888 112.848 7.42153 118.96 4.62825C125.891 1.46131 135.606 2.64746 155.038 5.01976C183.606 8.50761 214.295 11.9447 224.294 11.9447C226.641 11.9447 229.37 12.0484 232.363 12.2319C250.736 13.3581 259.923 13.9212 265.564 17.2932C271.567 20.8814 273.936 23.6166 276.629 30.0707C279.16 36.136 278.002 50.1865 275.687 78.2876C275.455 81.1009 275.328 83.9413 275.328 86.7907C275.328 98.9386 276.533 118.973 283.604 144.379C287.929 159.916 290.091 167.685 289.112 173.584C287.853 181.167 283.059 188.254 276.489 192.243C271.377 195.346 267.921 195.727 261.009 196.488C256.127 197.026 250.984 197.346 245.657 197.346C225.436 197.346 185.492 192.736 157.121 189.099C145.838 187.652 140.196 186.929 135.556 184.284C131.511 181.979 128.019 178.535 125.658 174.523C122.949 169.92 122.133 164.188 120.5 152.724L106.483 54.2759Z" fill="#A17FE0"/>
<g filter="url(#filter0_d)">
<circle cx="169.537" cy="108.171" r="95.88" fill="#5D26C1"/>
</g>
<path fill-rule="evenodd" clip-rule="evenodd" d="M171.4 63.2533L173.974 64.302L209.008 78.5754C210.917 79.3406 212.15 81.1585 212.15 83.2094V89.6773C212.15 92.4316 209.901 94.6725 207.137 94.6725H131.937C129.172 94.6725 126.923 92.4316 126.923 89.6773V83.2094C126.923 81.1585 128.156 79.3406 130.065 78.5754L167.657 63.26C168.883 62.7683 170.207 62.778 171.399 63.253L171.4 63.2533ZM169.537 84.016C170.921 84.016 172.043 82.8977 172.043 81.5184V76.1902C172.043 74.8109 170.921 73.6926 169.537 73.6926C168.152 73.6926 167.03 74.8109 167.03 76.1902V81.5184C167.03 82.8977 168.152 84.016 169.537 84.016ZM161.682 99.6675H177.391V127.307H161.682V99.6675ZM188.42 99.6675H204.129V127.307H188.42V99.6675ZM131.937 132.303H207.137C209.901 132.303 212.15 134.543 212.15 137.298V143.125C212.15 145.88 209.901 148.121 207.137 148.121H131.937C129.172 148.121 126.923 145.88 126.923 143.125V137.298C126.923 134.543 129.172 132.303 131.937 132.303ZM150.653 99.6675H134.945V127.307H150.653V99.6675Z" fill="white"/>
<defs>
<filter id="filter0_d" x="49.6566" y="0.290649" width="239.76" height="239.76" filterUnits="userSpaceOnUse" color-interpolation-filters="sRGB">
<feFlood flood-opacity="0" result="BackgroundImageFix"/>
<feColorMatrix in="SourceAlpha" type="matrix" values="0 0 0 0 0 0 0 0 0 0 0 0 0 0 0 0 0 0 127 0"/>
<feOffset dy="12"/>
<feGaussianBlur stdDeviation="12"/>
<feColorMatrix type="matrix" values="0 0 0 0 0 0 0 0 0 0 0 0 0 0 0 0 0 0 0.08 0"/>
<feBlend mode="normal" in2="BackgroundImageFix" result="effect1_dropShadow"/>
<feBlend mode="normal" in="SourceGraphic" in2="effect1_dropShadow" result="shape"/>
</filter>
</defs>
</svg>
