<svg width="325" height="280" viewBox="0 0 325 280" fill="none" xmlns="http://www.w3.org/2000/svg">
<circle cx="309.337" cy="134.784" r="15.6627" fill="#1657FF"/>
<circle cx="11.747" cy="95.6271" r="11.747" fill="#181C33"/>
<circle cx="71.1345" cy="248.991" r="5.87349" fill="#FDBE34"/>
<path d="M63.306 70.6496C63.9628 63.4157 64.2912 59.7988 64.463 58.8185C67.511 41.4209 75.4622 35.9754 92.7853 39.4214C93.7615 39.6156 99.8964 41.3748 112.166 44.8931V44.8931C120.211 47.2 144.294 44.4275 169.27 40.4893C192.612 36.8085 204.283 34.9681 211.209 38.4816C217.402 41.6238 221.67 46.8581 223.501 53.5575C225.549 61.0485 221.518 71.7855 213.458 93.2594L164.982 222.4C158.066 240.825 154.608 250.038 149.006 254.242C143.855 258.107 138.28 259.621 131.882 258.891C124.923 258.098 116.765 251.481 100.45 238.248C87.9477 228.108 75.6933 219.416 68.1802 217.261C57.5337 214.208 47.6608 200.111 40.6378 187.286C37.1478 180.913 35.4028 177.726 34.6911 174.042C33.9889 170.407 34.0305 167.799 34.8482 164.189C35.677 160.529 38.7752 155.276 44.9715 144.77C49.097 137.776 53.2145 129.167 56.0399 119.314C59.2531 108.108 61.6237 89.177 63.306 70.6496Z" fill="#FDBE34"/>
<path d="M137.097 78.4089C142.308 72.1697 144.914 69.05 148.193 67.0127C151.205 65.1421 154.219 64.0649 157.733 63.6033C161.561 63.1006 166.217 63.9883 175.529 65.7636C184.054 67.3889 193.379 68.762 200.554 68.762C202.872 68.762 206.371 68.446 210.7 67.8973C234.862 64.835 246.943 63.3038 252.587 65.4779C260.166 68.3972 261.245 69.3479 265.094 76.4996C267.96 81.8255 267.96 100.229 267.96 137.036V137.036C267.96 156.216 270.545 175.837 272.798 189.296C273.936 196.09 274.504 199.488 274.09 202.919C273.762 205.634 272.62 209.186 271.306 211.583C269.643 214.613 267.985 216.264 264.669 219.564C257.24 226.958 247.264 234.718 238.119 234.718C228.678 234.718 206.402 243.271 187.921 251.132C177.161 255.709 171.78 257.998 166.825 257.973C162.405 257.95 158.214 256.761 154.441 254.458C150.212 251.876 147.07 247.433 140.788 238.549C120.437 209.768 90.5293 165.07 90.5293 150.949C90.5293 136.505 118.745 100.379 137.097 78.4089Z" fill="#181C33"/>
<g filter="url(#filter0_d)">
<circle cx="165.763" cy="149.141" r="93.9759" fill="#1657FF"/>
</g>
<path fill-rule="evenodd" clip-rule="evenodd" d="M207.53 135.026V129.117C207.53 125.045 204.237 121.732 200.188 121.732H131.338C127.29 121.732 123.996 125.045 123.996 129.117V135.026H207.53ZM181.263 152.916H192.031V158.497H181.263V152.916ZM123.996 139.95V169.165C123.996 173.237 127.29 176.551 131.338 176.551H200.188C204.237 176.551 207.53 173.237 207.53 169.165V139.95H123.996ZM160.542 163.42H139.659C138.307 163.42 137.211 162.318 137.211 160.958C137.211 159.599 138.307 158.497 139.659 158.497H160.542C161.894 158.497 162.989 159.599 162.989 160.958C162.989 162.318 161.894 163.42 160.542 163.42ZM139.659 152.916H160.542C161.894 152.916 162.989 151.814 162.989 150.454C162.989 149.095 161.894 147.992 160.542 147.992H139.659C138.307 147.992 137.211 149.095 137.211 150.454C137.211 151.814 138.307 152.916 139.659 152.916ZM196.925 160.958C196.925 162.318 195.829 163.42 194.478 163.42H178.815C177.464 163.42 176.368 162.318 176.368 160.958V150.454C176.368 149.095 177.464 147.992 178.815 147.992H194.478C195.829 147.992 196.925 149.095 196.925 150.454V160.958Z" fill="white"/>
<defs>
<filter id="filter0_d" x="47.7872" y="43.1652" width="235.952" height="235.952" filterUnits="userSpaceOnUse" color-interpolation-filters="sRGB">
<feFlood flood-opacity="0" result="BackgroundImageFix"/>
<feColorMatrix in="SourceAlpha" type="matrix" values="0 0 0 0 0 0 0 0 0 0 0 0 0 0 0 0 0 0 127 0"/>
<feOffset dy="12"/>
<feGaussianBlur stdDeviation="12"/>
<feColorMatrix type="matrix" values="0 0 0 0 0 0 0 0 0 0 0 0 0 0 0 0 0 0 0.08 0"/>
<feBlend mode="normal" in2="BackgroundImageFix" result="effect1_dropShadow"/>
<feBlend mode="normal" in="SourceGraphic" in2="effect1_dropShadow" result="shape"/>
</filter>
</defs>
</svg>
