<svg width="325" height="272" viewBox="0 0 325 272" fill="none" xmlns="http://www.w3.org/2000/svg">
<circle cx="309.337" cy="126.784" r="15.6627" fill="#5D26C1"/>
<circle cx="11.747" cy="87.6271" r="11.747" fill="#A17FE0"/>
<circle cx="71.1345" cy="240.991" r="5.87349" fill="#59C173"/>
<path d="M63.306 62.6496C63.9628 55.4157 64.2912 51.7988 64.463 50.8185C67.511 33.4209 75.4622 27.9754 92.7853 31.4214C93.7615 31.6156 99.8964 33.3748 112.166 36.8931C120.211 39.2 144.294 36.4275 169.27 32.4893C192.612 28.8085 204.283 26.9681 211.209 30.4816C217.402 33.6238 221.67 38.8581 223.501 45.5575C225.549 53.0485 221.518 63.7855 213.458 85.2594L164.982 214.4C158.066 232.825 154.608 242.038 149.006 246.242C143.855 250.107 138.28 251.621 131.882 250.891C124.923 250.098 116.765 243.481 100.45 230.248C87.9477 220.108 75.6933 211.416 68.1802 209.261C57.5337 206.208 47.6608 192.111 40.6378 179.286C37.1478 172.913 35.4028 169.726 34.6911 166.042C33.9889 162.407 34.0305 159.799 34.8482 156.189C35.677 152.529 38.7752 147.276 44.9715 136.77C49.097 129.776 53.2145 121.167 56.0399 111.314C59.2531 100.108 61.6237 81.177 63.306 62.6496Z" fill="#59C173"/>
<path d="M137.097 70.4089C142.308 64.1697 144.914 61.05 148.193 59.0127C151.205 57.1421 154.219 56.0649 157.733 55.6033C161.561 55.1006 166.217 55.9883 175.529 57.7636C184.054 59.3889 193.379 60.762 200.554 60.762C202.872 60.762 206.371 60.446 210.7 59.8973C234.862 56.835 246.943 55.3038 252.587 57.4779C260.166 60.3972 261.245 61.3479 265.094 68.4996C267.96 73.8255 267.96 92.2291 267.96 129.036C267.96 148.216 270.545 167.837 272.798 181.296C273.936 188.09 274.504 191.488 274.09 194.919C273.762 197.634 272.62 201.186 271.306 203.583C269.643 206.613 267.985 208.264 264.669 211.564C257.24 218.958 247.264 226.718 238.119 226.718C228.678 226.718 206.402 235.271 187.921 243.132C177.161 247.709 171.78 249.998 166.825 249.973C162.405 249.95 158.214 248.761 154.441 246.458C150.212 243.876 147.07 239.433 140.788 230.549C120.437 201.768 90.5293 157.07 90.5293 142.949C90.5293 128.505 118.745 92.3786 137.097 70.4089Z" fill="#A17FE0"/>
<g filter="url(#filter0_d)">
<circle cx="165.763" cy="141.141" r="93.9759" fill="#5D26C1"/>
</g>
<path fill-rule="evenodd" clip-rule="evenodd" d="M207.53 127.026V121.117C207.53 117.045 204.237 113.732 200.188 113.732H131.338C127.29 113.732 123.996 117.045 123.996 121.117V127.026H207.53ZM181.263 144.916H192.031V150.497H181.263V144.916ZM123.996 131.95V161.165C123.996 165.237 127.29 168.551 131.338 168.551H200.188C204.237 168.551 207.53 165.237 207.53 161.165V131.95H123.996ZM160.542 155.42H139.659C138.307 155.42 137.211 154.318 137.211 152.958C137.211 151.599 138.307 150.497 139.659 150.497H160.542C161.894 150.497 162.989 151.599 162.989 152.958C162.989 154.318 161.894 155.42 160.542 155.42ZM139.659 144.916H160.542C161.894 144.916 162.989 143.814 162.989 142.454C162.989 141.095 161.894 139.992 160.542 139.992H139.659C138.307 139.992 137.211 141.095 137.211 142.454C137.211 143.814 138.307 144.916 139.659 144.916ZM196.925 152.958C196.925 154.318 195.829 155.42 194.478 155.42H178.815C177.464 155.42 176.368 154.318 176.368 152.958V142.454C176.368 141.095 177.464 139.992 178.815 139.992H194.478C195.829 139.992 196.925 141.095 196.925 142.454V152.958Z" fill="white"/>
<defs>
<filter id="filter0_d" x="47.7872" y="35.1652" width="235.952" height="235.952" filterUnits="userSpaceOnUse" color-interpolation-filters="sRGB">
<feFlood flood-opacity="0" result="BackgroundImageFix"/>
<feColorMatrix in="SourceAlpha" type="matrix" values="0 0 0 0 0 0 0 0 0 0 0 0 0 0 0 0 0 0 127 0"/>
<feOffset dy="12"/>
<feGaussianBlur stdDeviation="12"/>
<feColorMatrix type="matrix" values="0 0 0 0 0 0 0 0 0 0 0 0 0 0 0 0 0 0 0.08 0"/>
<feBlend mode="normal" in2="BackgroundImageFix" result="effect1_dropShadow"/>
<feBlend mode="normal" in="SourceGraphic" in2="effect1_dropShadow" result="shape"/>
</filter>
</defs>
</svg>
