<svg width="897" height="882" viewBox="0 0 897 882" fill="none" xmlns="http://www.w3.org/2000/svg">
<mask id="mask0" mask-type="alpha" maskUnits="userSpaceOnUse" x="0" y="0" width="897" height="882">
<rect width="897" height="882" fill="#C4C4C4"/>
</mask>
<g mask="url(#mask0)">
<path d="M0.999834 953.286C131.86 875.189 169.88 688.265 272.037 632.678C374.194 577.091 287.189 931.564 452.862 704.393C585.4 522.656 640.444 534.385 670.775 579.685L884.631 927.455" stroke="#2156DE" stroke-width="70"/>
<path d="M91.9998 992.286C222.86 914.189 260.88 727.265 363.037 671.678C465.194 616.091 378.189 970.564 543.862 743.393C676.4 561.656 731.444 573.385 761.775 618.685L975.631 966.455" stroke="white" stroke-width="70"/>
<path fill-rule="evenodd" clip-rule="evenodd" d="M180.021 253.778C166.547 253.416 155.39 264.542 155.801 278.015C156.968 316.28 159 390.482 159 443.5C159 517.895 155 634 155 634H717C717 634 711 545.5 711 443.5C711 374.505 713.745 311.687 715.522 278.258C716.243 264.695 705.346 253.332 691.768 253.681C626.323 255.364 447.747 259.411 326 257C246.192 255.42 203.014 254.394 180.021 253.778Z" fill="#7711DD" stroke="#1C1C1D" stroke-width="2"/>
<path fill-rule="evenodd" clip-rule="evenodd" d="M176.401 277.861C174.668 277.837 173.318 279.225 173.402 280.956C174.246 298.255 178.247 383.222 178.247 439.851C178.247 496.528 174.24 581.591 173.4 598.79C173.316 600.504 174.686 601.885 176.403 601.885H695.668C697.358 601.885 698.716 600.546 698.67 598.857C698.216 582.099 696.054 499.51 696 444.5C695.943 386.092 698.205 298.323 698.67 280.889C698.716 279.184 697.449 277.834 695.744 277.856C671.643 278.171 508.172 280.247 400.5 280C319.641 279.815 197.489 278.155 176.401 277.861Z" fill="#962EFF" stroke="#40424C"/>
<path fill-rule="evenodd" clip-rule="evenodd" d="M435.5 272C437.433 272 439 270.433 439 268.5C439 266.567 437.433 265 435.5 265C433.567 265 432 266.567 432 268.5C432 270.433 433.567 272 435.5 272Z" fill="white" stroke="#1C1C1D"/>
<path fill-rule="evenodd" clip-rule="evenodd" d="M91.0002 646.457C91.0002 646.457 91.0076 646.921 91.0002 647.246C90.9696 648.579 94.7951 655 117.726 655C117.726 655 724.48 655 749.244 655C774.009 655 776.967 648.069 777 647.246C776.967 646.762 777 647.213 777 646.457C777 646.457 583.224 646.393 486.311 646.457C453.372 646.479 420.364 646.435 387.426 646.457C354.487 646.479 321.564 646.435 288.626 646.457C222.749 646.501 91.0002 646.457 91.0002 646.457Z" fill="#7711DD" stroke="#1C1C1D" stroke-width="2"/>
<path fill-rule="evenodd" clip-rule="evenodd" d="M91 634V646.857H777V634H91Z" fill="#962EFF" stroke="#1C1C1D" stroke-width="2"/>
<path d="M385.375 634.714C385.375 634.714 385.776 640.714 390.923 640.714C390.923 640.714 453.018 640.707 475.985 640.714C477.708 640.714 480.664 639.452 481.706 634.714H386.024" stroke="#1C1C1D" stroke-width="2"/>
<rect x="186" y="296" width="316" height="47" rx="10" fill="white" stroke="#1C1C1D" stroke-width="2"/>
<rect x="201" y="304" width="32" height="32" rx="16" fill="white" stroke="#1C1C1D"/>
<path d="M223.666 327.5V325.833C223.666 324.949 223.315 324.101 222.69 323.476C222.065 322.851 221.217 322.5 220.333 322.5H213.666C212.782 322.5 211.934 322.851 211.309 323.476C210.684 324.101 210.333 324.949 210.333 325.833V327.5" stroke="#1C1C1D" stroke-width="2" stroke-linecap="round" stroke-linejoin="round"/>
<path d="M217 319.167C218.841 319.167 220.334 317.674 220.334 315.833C220.334 313.992 218.841 312.5 217 312.5C215.159 312.5 213.667 313.992 213.667 315.833C213.667 317.674 215.159 319.167 217 319.167Z" stroke="#1C1C1D" stroke-width="2" stroke-linecap="round" stroke-linejoin="round"/>
<path d="M245.73 324.112C245.142 324.112 244.596 323.991 244.092 323.748C243.588 323.496 243.182 323.146 242.874 322.698L243.686 321.746C244.227 322.521 244.909 322.908 245.73 322.908C246.281 322.908 246.696 322.74 246.976 322.404C247.265 322.068 247.41 321.573 247.41 320.92V315.418H243.868V314.2H248.796V320.85C248.796 321.933 248.535 322.749 248.012 323.3C247.499 323.841 246.738 324.112 245.73 324.112ZM255.03 324.084C254.292 324.084 253.63 323.921 253.042 323.594C252.454 323.267 251.992 322.819 251.656 322.25C251.329 321.671 251.166 321.018 251.166 320.29C251.166 319.562 251.329 318.913 251.656 318.344C251.992 317.765 252.454 317.317 253.042 317C253.63 316.673 254.292 316.51 255.03 316.51C255.767 316.51 256.425 316.673 257.004 317C257.592 317.317 258.049 317.765 258.376 318.344C258.712 318.913 258.88 319.562 258.88 320.29C258.88 321.018 258.712 321.671 258.376 322.25C258.049 322.819 257.592 323.267 257.004 323.594C256.425 323.921 255.767 324.084 255.03 324.084ZM255.03 322.908C255.506 322.908 255.93 322.801 256.304 322.586C256.686 322.362 256.985 322.054 257.2 321.662C257.414 321.261 257.522 320.803 257.522 320.29C257.522 319.777 257.414 319.324 257.2 318.932C256.985 318.531 256.686 318.223 256.304 318.008C255.93 317.793 255.506 317.686 255.03 317.686C254.554 317.686 254.124 317.793 253.742 318.008C253.368 318.223 253.07 318.531 252.846 318.932C252.631 319.324 252.524 319.777 252.524 320.29C252.524 320.803 252.631 321.261 252.846 321.662C253.07 322.054 253.368 322.362 253.742 322.586C254.124 322.801 254.554 322.908 255.03 322.908ZM265.1 316.51C266.043 316.51 266.79 316.785 267.34 317.336C267.9 317.877 268.18 318.675 268.18 319.73V324H266.836V319.884C266.836 319.165 266.664 318.624 266.318 318.26C265.973 317.896 265.478 317.714 264.834 317.714C264.106 317.714 263.532 317.929 263.112 318.358C262.692 318.778 262.482 319.385 262.482 320.178V324H261.138V313.612H262.482V317.63C262.762 317.275 263.126 317 263.574 316.804C264.032 316.608 264.54 316.51 265.1 316.51ZM275.424 314.2H279.554C280.59 314.2 281.509 314.405 282.312 314.816C283.114 315.227 283.735 315.805 284.174 316.552C284.622 317.289 284.846 318.139 284.846 319.1C284.846 320.061 284.622 320.915 284.174 321.662C283.735 322.399 283.114 322.973 282.312 323.384C281.509 323.795 280.59 324 279.554 324H275.424V314.2ZM279.47 322.782C280.263 322.782 280.958 322.628 281.556 322.32C282.162 322.012 282.629 321.583 282.956 321.032C283.282 320.472 283.446 319.828 283.446 319.1C283.446 318.372 283.282 317.733 282.956 317.182C282.629 316.622 282.162 316.188 281.556 315.88C280.958 315.572 280.263 315.418 279.47 315.418H276.824V322.782H279.47ZM290.372 324.084C289.635 324.084 288.972 323.921 288.384 323.594C287.796 323.267 287.334 322.819 286.998 322.25C286.671 321.671 286.508 321.018 286.508 320.29C286.508 319.562 286.671 318.913 286.998 318.344C287.334 317.765 287.796 317.317 288.384 317C288.972 316.673 289.635 316.51 290.372 316.51C291.109 316.51 291.767 316.673 292.346 317C292.934 317.317 293.391 317.765 293.718 318.344C294.054 318.913 294.222 319.562 294.222 320.29C294.222 321.018 294.054 321.671 293.718 322.25C293.391 322.819 292.934 323.267 292.346 323.594C291.767 323.921 291.109 324.084 290.372 324.084ZM290.372 322.908C290.848 322.908 291.273 322.801 291.646 322.586C292.029 322.362 292.327 322.054 292.542 321.662C292.757 321.261 292.864 320.803 292.864 320.29C292.864 319.777 292.757 319.324 292.542 318.932C292.327 318.531 292.029 318.223 291.646 318.008C291.273 317.793 290.848 317.686 290.372 317.686C289.896 317.686 289.467 317.793 289.084 318.008C288.711 318.223 288.412 318.531 288.188 318.932C287.973 319.324 287.866 319.777 287.866 320.29C287.866 320.803 287.973 321.261 288.188 321.662C288.412 322.054 288.711 322.362 289.084 322.586C289.467 322.801 289.896 322.908 290.372 322.908ZM303.187 320.332C303.187 320.435 303.177 320.57 303.159 320.738H297.139C297.223 321.391 297.507 321.919 297.993 322.32C298.487 322.712 299.099 322.908 299.827 322.908C300.713 322.908 301.427 322.609 301.969 322.012L302.711 322.88C302.375 323.272 301.955 323.571 301.451 323.776C300.956 323.981 300.401 324.084 299.785 324.084C299.001 324.084 298.305 323.925 297.699 323.608C297.092 323.281 296.621 322.829 296.285 322.25C295.958 321.671 295.795 321.018 295.795 320.29C295.795 319.571 295.953 318.923 296.271 318.344C296.597 317.765 297.041 317.317 297.601 317C298.17 316.673 298.809 316.51 299.519 316.51C300.228 316.51 300.858 316.673 301.409 317C301.969 317.317 302.403 317.765 302.711 318.344C303.028 318.923 303.187 319.585 303.187 320.332ZM299.519 317.644C298.875 317.644 298.333 317.84 297.895 318.232C297.465 318.624 297.213 319.137 297.139 319.772H301.899C301.824 319.147 301.567 318.638 301.129 318.246C300.699 317.845 300.163 317.644 299.519 317.644Z" fill="#1C1C1D"/>
<path d="M483 318.5C483.003 319.82 482.695 321.122 482.1 322.3C481.394 323.712 480.31 324.899 478.967 325.729C477.625 326.559 476.078 326.999 474.5 327C473.18 327.003 471.878 326.695 470.7 326.1L465 328L466.9 322.3C466.305 321.122 465.997 319.82 466 318.5C466.001 316.922 466.441 315.375 467.271 314.033C468.101 312.69 469.288 311.606 470.7 310.9C471.878 310.305 473.18 309.997 474.5 310H475C477.084 310.115 479.053 310.995 480.529 312.471C482.005 313.947 482.885 315.916 483 318V318.5Z" stroke="#1C1C1D" stroke-width="2" stroke-linecap="round" stroke-linejoin="round"/>
<rect x="186" y="429" width="315.459" height="155.233" rx="10" fill="url(#paint0_linear)" stroke="#1C1C1D" stroke-width="2"/>
<rect x="221.883" y="449.03" width="10.6848" height="106.877" rx="4.28531" fill="white" stroke="#1C1C1D" stroke-width="2"/>
<rect x="338.159" y="449.03" width="10.6848" height="106.877" rx="4.28531" fill="white" stroke="#1C1C1D" stroke-width="2"/>
<rect x="245.138" y="495.541" width="10.6848" height="60.3667" rx="4.28531" fill="white" stroke="#1C1C1D" stroke-width="2"/>
<rect x="361.415" y="495.541" width="10.6848" height="60.3667" rx="4.28531" fill="white" stroke="#1C1C1D" stroke-width="2"/>
<rect x="431.181" y="477.57" width="10.6848" height="78.3368" rx="4.28531" fill="white" stroke="#1C1C1D" stroke-width="2"/>
<rect x="314.904" y="505.055" width="10.6848" height="50.8531" rx="4.28531" fill="white" stroke="#1C1C1D" stroke-width="2"/>
<rect x="454.437" y="505.055" width="10.6848" height="50.8531" rx="4.28531" fill="white" stroke="#1C1C1D" stroke-width="2"/>
<rect x="268.394" y="465.943" width="10.6848" height="89.9645" rx="4.28531" fill="white" stroke="#1C1C1D" stroke-width="2"/>
<rect x="384.671" y="465.943" width="10.6848" height="89.9645" rx="4.28531" fill="white" stroke="#1C1C1D" stroke-width="2"/>
<rect x="291.648" y="453.258" width="10.6848" height="102.649" rx="4.28531" fill="white" stroke="#1C1C1D" stroke-width="2"/>
<rect x="407.926" y="453.259" width="10.6848" height="102.649" rx="4.28531" fill="white" stroke="#1C1C1D" stroke-width="2"/>
<path d="M228.808 564.795V572.194H227.095V566.169H225.616V564.795H228.808Z" fill="#1C1C1D"/>
<path d="M253.633 570.798V572.193H248.041V571.083L250.895 568.388C251.198 568.099 251.402 567.852 251.508 567.648C251.614 567.437 251.667 567.229 251.667 567.024C251.667 566.728 251.564 566.503 251.36 566.348C251.163 566.186 250.87 566.105 250.483 566.105C250.159 566.105 249.866 566.168 249.605 566.295C249.345 566.415 249.126 566.598 248.95 566.845L247.703 566.041C247.992 565.611 248.39 565.277 248.897 565.037C249.405 564.79 249.986 564.667 250.641 564.667C251.191 564.667 251.67 564.759 252.079 564.942C252.495 565.118 252.815 565.372 253.041 565.703C253.273 566.027 253.39 566.411 253.39 566.855C253.39 567.257 253.305 567.634 253.136 567.986C252.967 568.339 252.639 568.74 252.153 569.191L250.451 570.798H253.633Z" fill="#1C1C1D"/>
<path d="M274.806 567.807C275.455 567.912 275.952 568.155 276.297 568.536C276.642 568.909 276.815 569.375 276.815 569.931C276.815 570.361 276.702 570.759 276.477 571.126C276.251 571.485 275.906 571.774 275.441 571.993C274.983 572.211 274.419 572.32 273.749 572.32C273.228 572.32 272.713 572.253 272.206 572.119C271.706 571.978 271.279 571.781 270.927 571.527L271.593 570.217C271.875 570.428 272.199 570.594 272.565 570.713C272.939 570.826 273.32 570.883 273.707 570.883C274.137 570.883 274.475 570.802 274.722 570.639C274.969 570.47 275.092 570.234 275.092 569.931C275.092 569.325 274.63 569.022 273.707 569.022H272.925V567.891L274.447 566.168H271.297V564.794H276.477V565.904L274.806 567.807Z" fill="#1C1C1D"/>
<path d="M300.364 570.639H299.159V572.193H297.489V570.639H293.504V569.487L296.992 564.794H298.789L295.555 569.244H297.542V567.859H299.159V569.244H300.364V570.639Z" fill="#1C1C1D"/>
<path d="M320.382 567.575C321.425 567.575 322.193 567.783 322.686 568.199C323.187 568.614 323.437 569.171 323.437 569.869C323.437 570.32 323.324 570.732 323.099 571.106C322.873 571.472 322.528 571.768 322.063 571.993C321.605 572.212 321.037 572.321 320.361 572.321C319.839 572.321 319.325 572.254 318.818 572.12C318.317 571.979 317.891 571.782 317.539 571.528L318.215 570.218C318.497 570.429 318.821 570.595 319.188 570.714C319.554 570.827 319.931 570.884 320.319 570.884C320.749 570.884 321.087 570.799 321.333 570.63C321.58 570.461 321.703 570.225 321.703 569.922C321.703 569.605 321.573 569.365 321.312 569.203C321.059 569.041 320.615 568.96 319.98 568.96H318.088L318.469 564.795H322.982V566.169H319.896L319.78 567.575H320.382Z" fill="#1C1C1D"/>
<path d="M344.44 567.554C344.913 567.554 345.342 567.649 345.73 567.839C346.118 568.03 346.424 568.301 346.65 568.653C346.875 568.998 346.988 569.4 346.988 569.858C346.988 570.352 346.865 570.785 346.618 571.158C346.371 571.532 346.033 571.821 345.603 572.025C345.18 572.223 344.708 572.321 344.187 572.321C343.151 572.321 342.34 572.004 341.755 571.37C341.171 570.736 340.878 569.83 340.878 568.653C340.878 567.815 341.037 567.096 341.354 566.497C341.671 565.898 342.111 565.443 342.675 565.133C343.246 564.823 343.905 564.668 344.652 564.668C345.046 564.668 345.423 564.714 345.783 564.805C346.149 564.89 346.459 565.013 346.713 565.175L346.079 566.433C345.712 566.187 345.251 566.063 344.694 566.063C344.067 566.063 343.57 566.247 343.204 566.613C342.837 566.979 342.64 567.512 342.612 568.209C343.049 567.772 343.658 567.554 344.44 567.554ZM344.092 571.042C344.458 571.042 344.754 570.943 344.979 570.746C345.212 570.549 345.328 570.281 345.328 569.943C345.328 569.605 345.212 569.337 344.979 569.139C344.754 568.935 344.451 568.833 344.07 568.833C343.697 568.833 343.39 568.939 343.151 569.15C342.911 569.354 342.791 569.619 342.791 569.943C342.791 570.267 342.908 570.531 343.14 570.736C343.373 570.94 343.69 571.042 344.092 571.042Z" fill="#1C1C1D"/>
<path d="M368.957 564.795V565.905L366.208 572.194H364.348L367.001 566.19H364.549V567.395H363.027V564.795H368.957Z" fill="#1C1C1D"/>
<path d="M392.328 568.304C392.695 568.488 392.973 568.727 393.163 569.023C393.361 569.319 393.459 569.661 393.459 570.048C393.459 570.507 393.329 570.908 393.068 571.254C392.807 571.592 392.441 571.856 391.969 572.046C391.497 572.23 390.951 572.321 390.33 572.321C389.71 572.321 389.164 572.23 388.692 572.046C388.227 571.856 387.864 571.592 387.603 571.254C387.349 570.908 387.223 570.507 387.223 570.048C387.223 569.661 387.318 569.319 387.508 569.023C387.705 568.727 387.984 568.488 388.343 568.304C388.068 568.135 387.857 567.924 387.709 567.67C387.561 567.409 387.487 567.113 387.487 566.782C387.487 566.352 387.607 565.979 387.846 565.662C388.086 565.345 388.421 565.101 388.851 564.932C389.28 564.756 389.774 564.668 390.33 564.668C390.894 564.668 391.391 564.756 391.821 564.932C392.258 565.101 392.596 565.345 392.836 565.662C393.075 565.979 393.195 566.352 393.195 566.782C393.195 567.113 393.121 567.409 392.973 567.67C392.825 567.924 392.61 568.135 392.328 568.304ZM390.33 565.926C389.985 565.926 389.707 566.011 389.495 566.18C389.291 566.342 389.189 566.567 389.189 566.856C389.189 567.138 389.291 567.36 389.495 567.522C389.7 567.684 389.978 567.765 390.33 567.765C390.683 567.765 390.965 567.684 391.176 567.522C391.387 567.36 391.493 567.138 391.493 566.856C391.493 566.567 391.387 566.342 391.176 566.18C390.965 566.011 390.683 565.926 390.33 565.926ZM390.33 571.063C390.76 571.063 391.099 570.968 391.345 570.778C391.599 570.581 391.726 570.32 391.726 569.996C391.726 569.671 391.599 569.414 391.345 569.224C391.099 569.034 390.76 568.939 390.33 568.939C389.908 568.939 389.573 569.034 389.326 569.224C389.08 569.414 388.956 569.671 388.956 569.996C388.956 570.327 389.08 570.588 389.326 570.778C389.573 570.968 389.908 571.063 390.33 571.063Z" fill="#1C1C1D"/>
<path d="M413.245 564.668C414.281 564.668 415.091 564.985 415.676 565.619C416.261 566.247 416.554 567.152 416.554 568.336C416.554 569.175 416.395 569.893 416.078 570.492C415.768 571.091 415.327 571.546 414.757 571.856C414.186 572.166 413.527 572.321 412.78 572.321C412.385 572.321 412.008 572.279 411.649 572.194C411.289 572.103 410.983 571.976 410.729 571.814L411.363 570.556C411.723 570.803 412.184 570.926 412.748 570.926C413.375 570.926 413.872 570.743 414.239 570.376C414.605 570.003 414.802 569.467 414.831 568.769C414.387 569.213 413.774 569.435 412.991 569.435C412.519 569.435 412.089 569.34 411.702 569.15C411.314 568.96 411.008 568.692 410.782 568.347C410.557 567.994 410.444 567.589 410.444 567.131C410.444 566.638 410.567 566.204 410.814 565.831C411.06 565.457 411.395 565.172 411.818 564.975C412.248 564.77 412.724 564.668 413.245 564.668ZM413.372 568.156C413.745 568.156 414.048 568.054 414.281 567.85C414.521 567.638 414.64 567.371 414.64 567.046C414.64 566.722 414.524 566.458 414.292 566.254C414.066 566.049 413.752 565.947 413.351 565.947C412.984 565.947 412.685 566.046 412.452 566.243C412.227 566.44 412.114 566.708 412.114 567.046C412.114 567.385 412.227 567.656 412.452 567.86C412.685 568.058 412.991 568.156 413.372 568.156Z" fill="#1C1C1D"/>
<path d="M433.58 564.795V572.194H431.867V566.169H430.387V564.795H433.58ZM438.459 572.321C437.846 572.321 437.3 572.17 436.821 571.867C436.341 571.564 435.964 571.127 435.69 570.556C435.422 569.978 435.288 569.291 435.288 568.495C435.288 567.698 435.422 567.015 435.69 566.444C435.964 565.866 436.341 565.426 436.821 565.123C437.3 564.82 437.846 564.668 438.459 564.668C439.072 564.668 439.618 564.82 440.097 565.123C440.577 565.426 440.95 565.866 441.218 566.444C441.493 567.015 441.63 567.698 441.63 568.495C441.63 569.291 441.493 569.978 441.218 570.556C440.95 571.127 440.577 571.564 440.097 571.867C439.618 572.17 439.072 572.321 438.459 572.321ZM438.459 570.873C438.91 570.873 439.262 570.679 439.516 570.292C439.777 569.904 439.907 569.305 439.907 568.495C439.907 567.684 439.777 567.085 439.516 566.698C439.262 566.31 438.91 566.116 438.459 566.116C438.015 566.116 437.663 566.31 437.402 566.698C437.148 567.085 437.021 567.684 437.021 568.495C437.021 569.305 437.148 569.904 437.402 570.292C437.663 570.679 438.015 570.873 438.459 570.873Z" fill="#1C1C1D"/>
<path d="M458.966 564.794V572.193H457.254V566.168H455.774V564.794H458.966ZM463.529 564.794V572.193H461.816V566.168H460.336V564.794H463.529Z" fill="#1C1C1D"/>
<rect x="512" y="297" width="169" height="117" rx="9" fill="white" stroke="#1C1C1D" stroke-width="2"/>
<path d="M535.214 320.437C535.214 319.999 535.059 319.662 534.749 319.425C534.444 319.188 533.89 318.949 533.088 318.707C532.286 318.465 531.648 318.197 531.174 317.9C530.267 317.331 529.813 316.588 529.813 315.672C529.813 314.87 530.139 314.209 530.791 313.689C531.447 313.17 532.297 312.91 533.341 312.91C534.034 312.91 534.651 313.038 535.193 313.293C535.736 313.548 536.162 313.913 536.472 314.387C536.782 314.856 536.937 315.378 536.937 315.952H535.214C535.214 315.433 535.05 315.027 534.722 314.735C534.398 314.439 533.933 314.291 533.327 314.291C532.762 314.291 532.322 314.412 532.008 314.653C531.698 314.895 531.543 315.232 531.543 315.665C531.543 316.03 531.712 316.335 532.049 316.581C532.386 316.823 532.942 317.06 533.717 317.292C534.492 317.52 535.114 317.782 535.583 318.078C536.052 318.37 536.396 318.707 536.615 319.09C536.834 319.468 536.943 319.912 536.943 320.423C536.943 321.252 536.624 321.913 535.986 322.405C535.353 322.893 534.492 323.137 533.402 323.137C532.682 323.137 532.019 323.005 531.413 322.74C530.812 322.471 530.342 322.102 530.005 321.633C529.672 321.163 529.506 320.617 529.506 319.992H531.235C531.235 320.557 531.422 320.995 531.796 321.305C532.17 321.615 532.705 321.77 533.402 321.77C534.004 321.77 534.455 321.649 534.756 321.407C535.061 321.161 535.214 320.838 535.214 320.437ZM540.467 323H538.806V315.604H540.467V323ZM538.704 313.683C538.704 313.427 538.783 313.215 538.943 313.047C539.107 312.878 539.339 312.794 539.64 312.794C539.941 312.794 540.173 312.878 540.337 313.047C540.502 313.215 540.584 313.427 540.584 313.683C540.584 313.933 540.502 314.143 540.337 314.312C540.173 314.476 539.941 314.558 539.64 314.558C539.339 314.558 539.107 314.476 538.943 314.312C538.783 314.143 538.704 313.933 538.704 313.683ZM542.392 319.247C542.392 318.099 542.661 317.183 543.198 316.499C543.741 315.811 544.459 315.467 545.352 315.467C546.195 315.467 546.858 315.761 547.341 316.349L547.416 315.604H548.913V322.774C548.913 323.745 548.61 324.511 548.004 325.071C547.403 325.632 546.589 325.912 545.564 325.912C545.021 325.912 544.49 325.798 543.971 325.57C543.456 325.347 543.064 325.053 542.795 324.688L543.581 323.69C544.092 324.297 544.721 324.6 545.468 324.6C546.019 324.6 546.455 324.449 546.774 324.148C547.093 323.852 547.252 323.415 547.252 322.836V322.337C546.774 322.87 546.136 323.137 545.338 323.137C544.472 323.137 543.764 322.793 543.212 322.104C542.665 321.416 542.392 320.464 542.392 319.247ZM544.046 319.391C544.046 320.133 544.196 320.719 544.497 321.147C544.803 321.571 545.224 321.783 545.762 321.783C546.432 321.783 546.929 321.496 547.252 320.922V317.668C546.938 317.107 546.446 316.827 545.776 316.827C545.229 316.827 544.803 317.044 544.497 317.477C544.196 317.91 544.046 318.548 544.046 319.391ZM552.567 315.604L552.615 316.458C553.162 315.797 553.88 315.467 554.768 315.467C556.309 315.467 557.093 316.349 557.12 318.112V323H555.459V318.208C555.459 317.739 555.356 317.392 555.151 317.169C554.951 316.941 554.62 316.827 554.16 316.827C553.49 316.827 552.991 317.13 552.663 317.736V323H551.002V315.604H552.567ZM565.091 323H563.368V313.047H565.091V323ZM568.998 315.604L569.046 316.458C569.592 315.797 570.31 315.467 571.199 315.467C572.739 315.467 573.523 316.349 573.55 318.112V323H571.889V318.208C571.889 317.739 571.787 317.392 571.582 317.169C571.381 316.941 571.051 316.827 570.59 316.827C569.921 316.827 569.421 317.13 569.093 317.736V323H567.432V315.604H568.998ZM576.117 323.854H574.812L578.729 313.047H580.034L576.117 323.854ZM590.835 320.437C590.835 319.999 590.68 319.662 590.371 319.425C590.065 319.188 589.511 318.949 588.709 318.707C587.907 318.465 587.269 318.197 586.795 317.9C585.888 317.331 585.435 316.588 585.435 315.672C585.435 314.87 585.761 314.209 586.412 313.689C587.069 313.17 587.919 312.91 588.962 312.91C589.655 312.91 590.273 313.038 590.815 313.293C591.357 313.548 591.783 313.913 592.093 314.387C592.403 314.856 592.558 315.378 592.558 315.952H590.835C590.835 315.433 590.671 315.027 590.343 314.735C590.02 314.439 589.555 314.291 588.949 314.291C588.384 314.291 587.944 314.412 587.629 314.653C587.319 314.895 587.164 315.232 587.164 315.665C587.164 316.03 587.333 316.335 587.67 316.581C588.008 316.823 588.564 317.06 589.338 317.292C590.113 317.52 590.735 317.782 591.204 318.078C591.674 318.37 592.018 318.707 592.237 319.09C592.455 319.468 592.565 319.912 592.565 320.423C592.565 321.252 592.246 321.913 591.608 322.405C590.974 322.893 590.113 323.137 589.024 323.137C588.304 323.137 587.641 323.005 587.035 322.74C586.433 322.471 585.964 322.102 585.626 321.633C585.294 321.163 585.127 320.617 585.127 319.992H586.857C586.857 320.557 587.044 320.995 587.417 321.305C587.791 321.615 588.327 321.77 589.024 321.77C589.625 321.77 590.077 321.649 590.377 321.407C590.683 321.161 590.835 320.838 590.835 320.437ZM596.089 323H594.428V315.604H596.089V323ZM594.325 313.683C594.325 313.427 594.405 313.215 594.564 313.047C594.729 312.878 594.961 312.794 595.262 312.794C595.562 312.794 595.795 312.878 595.959 313.047C596.123 313.215 596.205 313.427 596.205 313.683C596.205 313.933 596.123 314.143 595.959 314.312C595.795 314.476 595.562 314.558 595.262 314.558C594.961 314.558 594.729 314.476 594.564 314.312C594.405 314.143 594.325 313.933 594.325 313.683ZM598.013 319.247C598.013 318.099 598.282 317.183 598.82 316.499C599.362 315.811 600.08 315.467 600.973 315.467C601.816 315.467 602.479 315.761 602.963 316.349L603.038 315.604H604.535V322.774C604.535 323.745 604.232 324.511 603.626 325.071C603.024 325.632 602.211 325.912 601.185 325.912C600.643 325.912 600.112 325.798 599.592 325.57C599.077 325.347 598.685 325.053 598.417 324.688L599.203 323.69C599.713 324.297 600.342 324.6 601.089 324.6C601.641 324.6 602.076 324.449 602.395 324.148C602.714 323.852 602.874 323.415 602.874 322.836V322.337C602.395 322.87 601.757 323.137 600.96 323.137C600.094 323.137 599.385 322.793 598.834 322.104C598.287 321.416 598.013 320.464 598.013 319.247ZM599.668 319.391C599.668 320.133 599.818 320.719 600.119 321.147C600.424 321.571 600.846 321.783 601.383 321.783C602.053 321.783 602.55 321.496 602.874 320.922V317.668C602.559 317.107 602.067 316.827 601.397 316.827C600.85 316.827 600.424 317.044 600.119 317.477C599.818 317.91 599.668 318.548 599.668 319.391ZM608.189 315.604L608.237 316.458C608.783 315.797 609.501 315.467 610.39 315.467C611.93 315.467 612.714 316.349 612.741 318.112V323H611.08V318.208C611.08 317.739 610.978 317.392 610.773 317.169C610.572 316.941 610.242 316.827 609.781 316.827C609.112 316.827 608.613 317.13 608.284 317.736V323H606.623V315.604H608.189ZM626.167 313.047V319.698C626.167 320.756 625.828 321.594 625.149 322.214C624.474 322.829 623.574 323.137 622.449 323.137C621.309 323.137 620.405 322.834 619.735 322.228C619.065 321.617 618.73 320.771 618.73 319.691V313.047H620.453V319.705C620.453 320.37 620.621 320.879 620.958 321.229C621.296 321.58 621.792 321.756 622.449 321.756C623.779 321.756 624.445 321.054 624.445 319.65V313.047H626.167ZM634.736 319.377C634.736 320.521 634.477 321.435 633.957 322.118C633.438 322.797 632.74 323.137 631.865 323.137C631.054 323.137 630.405 322.87 629.917 322.337V325.844H628.256V315.604H629.787L629.855 316.355C630.343 315.763 631.006 315.467 631.845 315.467C632.747 315.467 633.453 315.804 633.964 316.479C634.479 317.148 634.736 318.08 634.736 319.274V319.377ZM633.082 319.233C633.082 318.495 632.934 317.91 632.638 317.477C632.346 317.044 631.927 316.827 631.38 316.827C630.701 316.827 630.213 317.107 629.917 317.668V320.949C630.218 321.523 630.71 321.811 631.394 321.811C631.922 321.811 632.335 321.599 632.631 321.175C632.932 320.746 633.082 320.099 633.082 319.233Z" fill="#1C1C1D"/>
<rect x="512" y="429" width="169" height="155" rx="9" fill="white" stroke="#1C1C1D" stroke-width="2"/>
<g opacity="0.5">
<mask id="path-42-inside-1" fill="white">
<path fill-rule="evenodd" clip-rule="evenodd" d="M525 568.5H668H525Z"/>
</mask>
<path d="M525 567.5C524.448 567.5 524 567.948 524 568.5C524 569.052 524.448 569.5 525 569.5V567.5ZM668 569.5C668.552 569.5 669 569.052 669 568.5C669 567.948 668.552 567.5 668 567.5V569.5ZM525 569.5H668V567.5H525V569.5Z" fill="#E7E7E7" mask="url(#path-42-inside-1)"/>
<mask id="path-44-inside-2" fill="white">
<path fill-rule="evenodd" clip-rule="evenodd" d="M525 540.5H668H525Z"/>
</mask>
<path d="M525 539.5C524.448 539.5 524 539.948 524 540.5C524 541.052 524.448 541.5 525 541.5V539.5ZM668 541.5C668.552 541.5 669 541.052 669 540.5C669 539.948 668.552 539.5 668 539.5V541.5ZM525 541.5H668V539.5H525V541.5Z" fill="#E7E7E7" mask="url(#path-44-inside-2)"/>
<mask id="path-46-inside-3" fill="white">
<path fill-rule="evenodd" clip-rule="evenodd" d="M525 516.5H668H525Z"/>
</mask>
<path d="M525 515.5C524.448 515.5 524 515.948 524 516.5C524 517.052 524.448 517.5 525 517.5V515.5ZM668 517.5C668.552 517.5 669 517.052 669 516.5C669 515.948 668.552 515.5 668 515.5V517.5ZM525 517.5H668V515.5H525V517.5Z" fill="#E7E7E7" mask="url(#path-46-inside-3)"/>
<mask id="path-48-inside-4" fill="white">
<path fill-rule="evenodd" clip-rule="evenodd" d="M525 492.5H668H525Z"/>
</mask>
<path d="M525 491.5C524.448 491.5 524 491.948 524 492.5C524 493.052 524.448 493.5 525 493.5V491.5ZM668 493.5C668.552 493.5 669 493.052 669 492.5C669 491.948 668.552 491.5 668 491.5V493.5ZM525 493.5H668V491.5H525V493.5Z" fill="#E7E7E7" mask="url(#path-48-inside-4)"/>
<mask id="path-50-inside-5" fill="white">
<path fill-rule="evenodd" clip-rule="evenodd" d="M525 466.5H668H525Z"/>
</mask>
<path d="M525 465.5C524.448 465.5 524 465.948 524 466.5C524 467.052 524.448 467.5 525 467.5V465.5ZM668 467.5C668.552 467.5 669 467.052 669 466.5C669 465.948 668.552 465.5 668 465.5V467.5ZM525 467.5H668V465.5H525V467.5Z" fill="#E7E7E7" mask="url(#path-50-inside-5)"/>
</g>
<path d="M525 568.076C525 568.076 541 534.135 552 534.135C563 534.135 563 565.135 576 550.135C589 535.135 596 485.135 605 498.135C614 511.135 618 523.135 632 519.135C646 515.135 667 519.076 667 519.076" stroke="#1C1C1D" stroke-width="2"/>
<path fill-rule="evenodd" clip-rule="evenodd" d="M602 501C604.209 501 606 499.209 606 497C606 494.791 604.209 493 602 493C599.791 493 598 494.791 598 497C598 499.209 599.791 501 602 501Z" fill="#F95A2C" stroke="#1C1C1D" stroke-width="2"/>
<path fill-rule="evenodd" clip-rule="evenodd" d="M571 557C573.209 557 575 555.209 575 553C575 550.791 573.209 549 571 549C568.791 549 567 550.791 567 553C567 555.209 568.791 557 571 557Z" fill="#F95A2C" stroke="#1C1C1D" stroke-width="2"/>
<path fill-rule="evenodd" clip-rule="evenodd" d="M658 522C660.209 522 662 520.209 662 518C662 515.791 660.209 514 658 514C655.791 514 654 515.791 654 518C654 520.209 655.791 522 658 522Z" fill="#F95A2C" stroke="#1C1C1D" stroke-width="2"/>
<rect x="186" y="356" width="305" height="13" rx="6.5" fill="white" stroke="#1C1C1D" stroke-width="1.40149"/>
<rect x="186" y="374" width="289" height="13" rx="6.5" fill="white" stroke="#1C1C1D" stroke-width="1.40149"/>
<rect x="186" y="392" width="210" height="13" rx="6.5" fill="white" stroke="#1C1C1D" stroke-width="1.40149"/>
<path d="M532.292 445.047V451.698C532.292 452.756 531.952 453.594 531.273 454.214C530.599 454.829 529.699 455.137 528.573 455.137C527.434 455.137 526.529 454.834 525.859 454.228C525.189 453.617 524.854 452.771 524.854 451.691V445.047H526.577V451.705C526.577 452.37 526.746 452.879 527.083 453.229C527.42 453.58 527.917 453.756 528.573 453.756C529.904 453.756 530.569 453.054 530.569 451.65V445.047H532.292ZM538.53 452.99C538.53 452.694 538.407 452.468 538.161 452.313C537.919 452.159 537.516 452.022 536.951 451.903C536.386 451.785 535.914 451.634 535.536 451.452C534.706 451.051 534.292 450.47 534.292 449.709C534.292 449.071 534.56 448.538 535.098 448.109C535.636 447.681 536.32 447.467 537.149 447.467C538.033 447.467 538.746 447.686 539.289 448.123C539.836 448.561 540.109 449.128 540.109 449.825H538.448C538.448 449.506 538.329 449.242 538.092 449.032C537.855 448.818 537.541 448.711 537.149 448.711C536.784 448.711 536.486 448.795 536.254 448.964C536.026 449.132 535.912 449.358 535.912 449.641C535.912 449.896 536.019 450.094 536.233 450.235C536.447 450.377 536.88 450.52 537.532 450.666C538.184 450.807 538.694 450.978 539.063 451.179C539.437 451.375 539.712 451.612 539.89 451.89C540.073 452.168 540.164 452.505 540.164 452.901C540.164 453.567 539.888 454.107 539.337 454.521C538.785 454.932 538.063 455.137 537.17 455.137C536.563 455.137 536.023 455.027 535.549 454.809C535.075 454.59 534.706 454.289 534.442 453.906C534.178 453.523 534.046 453.111 534.046 452.669H535.659C535.682 453.061 535.83 453.364 536.103 453.578C536.377 453.788 536.739 453.893 537.19 453.893C537.628 453.893 537.96 453.811 538.188 453.646C538.416 453.478 538.53 453.259 538.53 452.99ZM545.274 455.137C544.221 455.137 543.366 454.806 542.71 454.146C542.058 453.48 541.733 452.596 541.733 451.493V451.288C541.733 450.55 541.874 449.891 542.156 449.312C542.444 448.729 542.845 448.276 543.36 447.952C543.875 447.629 544.449 447.467 545.082 447.467C546.089 447.467 546.866 447.788 547.413 448.431C547.965 449.073 548.24 449.982 548.24 451.158V451.828H543.407C543.458 452.439 543.66 452.922 544.016 453.277C544.376 453.633 544.827 453.811 545.369 453.811C546.13 453.811 546.75 453.503 547.229 452.888L548.124 453.742C547.828 454.184 547.432 454.528 546.935 454.774C546.443 455.016 545.889 455.137 545.274 455.137ZM545.075 448.8C544.62 448.8 544.251 448.959 543.968 449.278C543.69 449.597 543.512 450.042 543.435 450.611H546.6V450.488C546.563 449.932 546.415 449.513 546.155 449.23C545.896 448.943 545.536 448.8 545.075 448.8ZM553.808 449.121C553.59 449.085 553.364 449.066 553.132 449.066C552.371 449.066 551.858 449.358 551.594 449.941V455H549.932V447.604H551.518L551.559 448.431C551.96 447.788 552.516 447.467 553.227 447.467C553.464 447.467 553.66 447.499 553.815 447.562L553.808 449.121ZM559.404 452.99C559.404 452.694 559.281 452.468 559.035 452.313C558.793 452.159 558.39 452.022 557.825 451.903C557.26 451.785 556.788 451.634 556.41 451.452C555.58 451.051 555.165 450.47 555.165 449.709C555.165 449.071 555.434 448.538 555.972 448.109C556.51 447.681 557.193 447.467 558.023 447.467C558.907 447.467 559.62 447.686 560.163 448.123C560.709 448.561 560.983 449.128 560.983 449.825H559.322C559.322 449.506 559.203 449.242 558.966 449.032C558.729 448.818 558.415 448.711 558.023 448.711C557.658 448.711 557.36 448.795 557.127 448.964C556.899 449.132 556.786 449.358 556.786 449.641C556.786 449.896 556.893 450.094 557.107 450.235C557.321 450.377 557.754 450.52 558.406 450.666C559.057 450.807 559.568 450.978 559.937 451.179C560.311 451.375 560.586 451.612 560.764 451.89C560.946 452.168 561.038 452.505 561.038 452.901C561.038 453.567 560.762 454.107 560.21 454.521C559.659 454.932 558.937 455.137 558.043 455.137C557.437 455.137 556.897 455.027 556.423 454.809C555.949 454.59 555.58 454.289 555.316 453.906C555.051 453.523 554.919 453.111 554.919 452.669H556.533C556.555 453.061 556.704 453.364 556.977 453.578C557.25 453.788 557.613 453.893 558.064 453.893C558.501 453.893 558.834 453.811 559.062 453.646C559.29 453.478 559.404 453.259 559.404 452.99ZM572.672 450.782H568.667V455H566.937V445.047H573.26V446.441H568.667V449.401H572.672V450.782ZM576.641 455H574.98V444.5H576.641V455ZM578.545 451.233C578.545 450.509 578.688 449.857 578.975 449.278C579.263 448.695 579.666 448.248 580.185 447.938C580.705 447.624 581.302 447.467 581.976 447.467C582.974 447.467 583.783 447.788 584.403 448.431C585.027 449.073 585.365 449.925 585.415 450.987L585.422 451.377C585.422 452.106 585.28 452.758 584.998 453.332C584.72 453.906 584.319 454.351 583.795 454.665C583.275 454.979 582.674 455.137 581.99 455.137C580.946 455.137 580.11 454.79 579.481 454.098C578.857 453.4 578.545 452.473 578.545 451.315V451.233ZM580.206 451.377C580.206 452.138 580.363 452.735 580.678 453.168C580.992 453.596 581.429 453.811 581.99 453.811C582.551 453.811 582.986 453.592 583.296 453.154C583.61 452.717 583.767 452.076 583.767 451.233C583.767 450.486 583.606 449.894 583.282 449.456C582.963 449.019 582.528 448.8 581.976 448.8C581.434 448.8 581.003 449.016 580.684 449.449C580.365 449.878 580.206 450.52 580.206 451.377ZM593.724 452.71L594.9 447.604H596.52L594.503 455H593.136L591.55 449.921L589.992 455H588.624L586.601 447.604H588.221L589.417 452.655L590.935 447.604H592.186L593.724 452.71Z" fill="#1C1C1D"/>
<rect x="528" y="330" width="119" height="13" rx="6.5" fill="white" stroke="#1C1C1D" stroke-width="1.40149"/>
<rect x="528" y="353" width="119" height="13" rx="6.5" fill="white" stroke="#1C1C1D" stroke-width="1.40149"/>
<rect x="528" y="377" width="119" height="13" rx="6.5" fill="white" stroke="#1C1C1D" stroke-width="1.40149"/>
</g>
<defs>
<linearGradient id="paint0_linear" x1="343.729" y1="429" x2="343.729" y2="584.233" gradientUnits="userSpaceOnUse">
<stop stop-color="#59C173"/>
<stop offset="0.484375" stop-color="#A17FE0" stop-opacity="0.515625"/>
<stop offset="1" stop-color="#5D26C1"/>
</linearGradient>
</defs>
</svg>
