<svg width="465" height="357" viewBox="0 0 465 357" fill="none" xmlns="http://www.w3.org/2000/svg">
<path d="M107.071 247.065L143.073 190.495L62.4452 139.267L20.8071 204.693L87.4961 247.065H107.071Z" fill="#F0F0F0"/>
<path d="M158.088 264.712H68.9104V246.776H158.088V264.712ZM70.0686 263.555H156.93V247.933H70.0686V263.555Z" fill="#FDBE34"/>
<path d="M147.086 261.53C150.284 261.53 152.877 258.939 152.877 255.744C152.877 252.548 150.284 249.958 147.086 249.958C143.888 249.958 141.295 252.548 141.295 255.744C141.295 258.939 143.888 261.53 147.086 261.53Z" fill="#FDBE34"/>
<path d="M130.872 261.53C134.07 261.53 136.663 258.939 136.663 255.744C136.663 252.548 134.07 249.958 130.872 249.958C127.674 249.958 125.081 252.548 125.081 255.744C125.081 258.939 127.674 261.53 130.872 261.53Z" fill="#FDBE34"/>
<path d="M114.657 261.53C117.856 261.53 120.448 258.939 120.448 255.744C120.448 252.548 117.856 249.958 114.657 249.958C111.459 249.958 108.867 252.548 108.867 255.744C108.867 258.939 111.459 261.53 114.657 261.53Z" fill="#FDBE34"/>
<path d="M98.4434 261.53C101.642 261.53 104.234 258.939 104.234 255.744C104.234 252.548 101.642 249.958 98.4434 249.958C95.2452 249.958 92.6526 252.548 92.6526 255.744C92.6526 258.939 95.2452 261.53 98.4434 261.53Z" fill="#FDBE34"/>
<path d="M82.2293 261.53C85.4274 261.53 88.0201 258.939 88.0201 255.744C88.0201 252.548 85.4274 249.958 82.2293 249.958C79.0311 249.958 76.4385 252.548 76.4385 255.744C76.4385 258.939 79.0311 261.53 82.2293 261.53Z" fill="#FDBE34"/>
<path d="M264.06 65.3825V21.4084H286.065V0H178.356V107.621H270.43V97.0985C270.43 95.137 270.816 93.1947 271.568 91.3825C272.319 89.5704 273.42 87.9238 274.808 86.5368C276.196 85.1499 277.844 84.0497 279.658 83.299C281.471 82.5484 283.415 82.1621 285.378 82.1621H286.065V65.3825H264.06Z" fill="#F0F0F0"/>
<path d="M383.35 277.731H311.544V292.775H383.35V277.731Z" fill="#FDBE34"/>
<path d="M398.985 203.669H293.593V217.556H398.985V203.669Z" fill="#F0F0F0"/>
<path d="M450.523 355.843H0V357H450.523V355.843Z" fill="#FDBE34"/>
<path d="M417.044 357H285.378C281.262 356.995 277.315 355.359 274.404 352.451C271.493 349.542 269.855 345.598 269.851 341.485V97.0985C269.855 92.9851 271.493 89.0415 274.404 86.1329C277.315 83.2243 281.262 81.5881 285.378 81.5835H417.044C421.161 81.5881 425.108 83.2243 428.019 86.1329C430.93 89.0415 432.567 92.9851 432.572 97.0985V341.485C432.567 345.598 430.929 349.542 428.018 352.451C425.107 355.359 421.161 356.995 417.044 357ZM285.378 82.7407C281.569 82.745 277.916 84.2591 275.222 86.9508C272.528 89.6424 271.013 93.2919 271.009 97.0985V341.485C271.013 345.292 272.528 348.941 275.222 351.633C277.916 354.324 281.569 355.838 285.378 355.843H417.044C420.854 355.838 424.506 354.324 427.2 351.633C429.894 348.941 431.409 345.292 431.413 341.485V97.0985C431.409 93.2919 429.894 89.6424 427.2 86.9508C424.506 84.2591 420.854 82.745 417.044 82.7407H285.378Z" fill="#FDBE34"/>
<path d="M335.576 93.1556C334.889 93.1556 334.217 92.952 333.646 92.5705C333.074 92.189 332.629 91.6469 332.366 91.0125C332.103 90.3781 332.034 89.6801 332.168 89.0067C332.302 88.3332 332.633 87.7146 333.119 87.2291C333.605 86.7436 334.224 86.413 334.898 86.279C335.572 86.1451 336.271 86.2138 336.906 86.4766C337.541 86.7393 338.083 87.1843 338.465 87.7552C338.847 88.3261 339.051 88.9973 339.051 89.6839C339.049 90.6044 338.683 91.4868 338.032 92.1377C337.38 92.7885 336.497 93.1546 335.576 93.1556ZM335.576 87.3695C335.118 87.3695 334.67 87.5053 334.289 87.7596C333.908 88.0139 333.611 88.3754 333.436 88.7983C333.261 89.2212 333.215 89.6865 333.304 90.1355C333.394 90.5844 333.614 90.9968 333.938 91.3205C334.262 91.6442 334.675 91.8646 335.124 91.9539C335.573 92.0432 336.039 91.9974 336.462 91.8222C336.886 91.647 337.247 91.3504 337.502 90.9698C337.756 90.5892 337.892 90.1417 337.892 89.6839C337.892 89.0703 337.647 88.482 337.213 88.0481C336.779 87.6142 336.19 87.3702 335.576 87.3695Z" fill="#FDBE34"/>
<path d="M369.742 89.1053H344.262V90.2626H369.742V89.1053Z" fill="#FDBE34"/>
<path d="M422.148 98.363V144.652C409.862 144.651 398.079 139.774 389.391 131.093C380.704 122.413 375.823 110.639 375.822 98.363H422.148Z" fill="#FDBE34"/>
<path d="M422.727 341.378H279.695V97.7844H422.727V341.378ZM280.853 340.22H421.569V98.9416H280.853V340.22Z" fill="#FDBE34"/>
<path opacity="0.1" d="M388.562 141.759C397.197 141.759 404.197 134.764 404.197 126.136C404.197 117.508 397.197 110.514 388.562 110.514C379.927 110.514 372.927 117.508 372.927 126.136C372.927 134.764 379.927 141.759 388.562 141.759Z" fill="black"/>
<path d="M386.245 143.494C394.88 143.494 401.88 136.5 401.88 127.872C401.88 119.244 394.88 112.25 386.245 112.25C377.61 112.25 370.61 119.244 370.61 127.872C370.61 136.5 377.61 143.494 386.245 143.494Z" fill="#FDBE34"/>
<path d="M308.07 107.621H286.065V115.721H308.07V107.621Z" fill="#FDBE34"/>
<path d="M320.23 184.575H298.225V192.676H320.23V184.575Z" fill="#FDBE34"/>
<path d="M404.776 214.663H298.225V199.619H404.776V214.663ZM299.383 213.506H403.618V200.776H299.383V213.506Z" fill="#FDBE34"/>
<path d="M398.985 247.643H293.593V261.53H398.985V247.643Z" fill="#F0F0F0"/>
<path d="M320.23 228.549H298.225V236.65H320.23V228.549Z" fill="#FDBE34"/>
<path d="M404.776 258.637H298.225V243.593H404.776V258.637ZM299.383 257.48H403.618V244.75H299.383V257.48Z" fill="#FDBE34"/>
<path d="M387.982 289.303H315.019V273.102H387.982V289.303ZM316.177 288.146H386.824V274.259H316.177V288.146Z" fill="#FDBE34"/>
<path d="M401.88 208.877C401.88 210.068 401.512 211.23 400.827 212.205C400.141 213.179 399.171 213.918 398.049 214.321C396.927 214.725 395.708 214.772 394.559 214.457C393.409 214.142 392.384 213.481 391.625 212.563L391.619 212.557C391.066 211.886 390.671 211.099 390.463 210.254C390.256 209.41 390.242 208.53 390.422 207.679C390.602 206.828 390.972 206.029 391.504 205.341C392.036 204.652 392.716 204.093 393.494 203.703C394.272 203.314 395.128 203.105 395.998 203.091C396.868 203.078 397.73 203.261 398.52 203.626C399.31 203.992 400.007 204.53 400.559 205.202C401.112 205.873 401.506 206.661 401.713 207.506C401.712 207.506 401.713 207.507 401.713 207.508C401.713 207.508 401.714 207.509 401.714 207.51C401.715 207.51 401.715 207.511 401.716 207.511C401.717 207.511 401.718 207.511 401.718 207.511C401.825 207.959 401.88 208.417 401.88 208.877Z" fill="#FDBE34"/>
<path opacity="0.1" d="M401.88 208.877C401.88 210.068 401.512 211.23 400.827 212.205C400.141 213.179 399.171 213.918 398.049 214.321C396.927 214.725 395.708 214.772 394.559 214.457C393.409 214.142 392.384 213.481 391.625 212.563L391.619 212.557C391.512 212.109 391.458 211.651 391.457 211.191C391.457 210 391.825 208.838 392.511 207.864C393.197 206.889 394.166 206.15 395.288 205.747C396.41 205.344 397.629 205.296 398.779 205.611C399.929 205.926 400.953 206.587 401.713 207.506C401.712 207.506 401.713 207.507 401.713 207.508C401.713 207.508 401.714 207.509 401.714 207.51C401.715 207.51 401.715 207.511 401.716 207.511C401.717 207.511 401.718 207.511 401.718 207.511C401.825 207.959 401.88 208.417 401.88 208.877Z" fill="black"/>
<path d="M398.406 218.135C401.604 218.135 404.197 215.544 404.197 212.348C404.197 209.153 401.604 206.562 398.406 206.562C395.208 206.562 392.615 209.153 392.615 212.348C392.615 215.544 395.208 218.135 398.406 218.135Z" fill="#FDBE34"/>
<path d="M401.88 252.851C401.88 254.042 401.512 255.204 400.827 256.179C400.141 257.153 399.171 257.892 398.049 258.295C396.927 258.699 395.708 258.746 394.559 258.431C393.409 258.117 392.384 257.455 391.625 256.537L391.619 256.531C391.066 255.86 390.671 255.073 390.463 254.228C390.256 253.384 390.242 252.504 390.422 251.653C390.602 250.802 390.972 250.003 391.504 249.315C392.036 248.627 392.716 248.067 393.494 247.677C394.272 247.288 395.128 247.079 395.998 247.066C396.868 247.052 397.73 247.235 398.52 247.6C399.31 247.966 400.007 248.504 400.559 249.176C401.112 249.847 401.506 250.635 401.713 251.48C401.712 251.48 401.713 251.481 401.713 251.482C401.713 251.483 401.714 251.483 401.714 251.484C401.715 251.484 401.715 251.485 401.716 251.485C401.717 251.485 401.718 251.485 401.718 251.485C401.825 251.933 401.88 252.391 401.88 252.851Z" fill="#FDBE34"/>
<path opacity="0.1" d="M401.88 252.851C401.88 254.042 401.512 255.204 400.827 256.179C400.141 257.153 399.171 257.892 398.049 258.295C396.927 258.699 395.708 258.746 394.559 258.431C393.409 258.116 392.384 257.455 391.625 256.537L391.619 256.531C391.512 256.084 391.458 255.625 391.457 255.165C391.457 253.974 391.825 252.812 392.511 251.838C393.197 250.863 394.166 250.124 395.288 249.721C396.41 249.318 397.629 249.27 398.779 249.585C399.929 249.9 400.953 250.561 401.713 251.48C401.712 251.48 401.713 251.481 401.713 251.482C401.713 251.483 401.714 251.483 401.714 251.484C401.715 251.484 401.715 251.485 401.716 251.485C401.717 251.485 401.718 251.485 401.718 251.485C401.825 251.933 401.88 252.391 401.88 252.851Z" fill="black"/>
<path d="M398.406 262.109C401.604 262.109 404.197 259.518 404.197 256.323C404.197 253.127 401.604 250.536 398.406 250.536C395.208 250.536 392.615 253.127 392.615 256.323C392.615 259.518 395.208 262.109 398.406 262.109Z" fill="#FDBE34"/>
<path d="M301.121 27.7731H271.009V57.8606H301.121V27.7731Z" fill="#F0F0F0"/>
<path d="M388.562 49.7602C387.187 49.7602 385.844 49.3529 384.701 48.59C383.558 47.8271 382.668 46.7427 382.142 45.4739C381.616 44.2052 381.478 42.8092 381.746 41.4623C382.014 40.1154 382.676 38.8783 383.648 37.9072C384.62 36.9362 385.858 36.2749 387.206 36.007C388.554 35.7391 389.951 35.8766 391.221 36.4021C392.491 36.9276 393.576 37.8176 394.34 38.9594C395.103 40.1012 395.511 41.4436 395.511 42.8169C395.509 44.6577 394.776 46.4226 393.473 47.7242C392.17 49.0259 390.404 49.7581 388.562 49.7602ZM388.562 37.0308C387.416 37.0308 386.297 37.3702 385.345 38.0059C384.392 38.6417 383.65 39.5454 383.212 40.6026C382.773 41.6599 382.659 42.8233 382.882 43.9457C383.106 45.0681 383.657 46.099 384.467 46.9082C385.277 47.7174 386.309 48.2685 387.432 48.4918C388.555 48.715 389.72 48.6004 390.778 48.1625C391.836 47.7246 392.74 46.983 393.377 46.0314C394.013 45.0799 394.352 43.9613 394.352 42.8169C394.351 41.2829 393.74 39.8122 392.654 38.7274C391.569 37.6427 390.097 37.0326 388.562 37.0308Z" fill="#FDBE34"/>
<path d="M235.685 146.387H220.629V131.344H235.685V146.387ZM221.787 145.23H234.527V132.501H221.787V145.23Z" fill="#FDBE34"/>
<path d="M465 258.637H449.944V243.593H465V258.637ZM451.102 257.48H463.842V244.75H451.102V257.48Z" fill="#FDBE34"/>
<path d="M167.934 157.766L170.518 159.157L179.31 163.891L193.503 171.532L201.774 156.198C202.553 154.758 203.04 153.177 203.207 151.548C203.374 149.919 203.218 148.273 202.748 146.705C202.278 145.136 201.502 143.675 200.466 142.406C199.431 141.137 198.154 140.085 196.711 139.309C193.626 137.645 190.092 137.002 186.618 137.473C183.144 137.944 179.91 139.505 177.38 141.93L177.376 141.934C176.132 143.129 175.081 144.51 174.263 146.028L167.934 157.766Z" fill="#2F2E41"/>
<path d="M206.673 314.147L204.939 333.205L198.436 334.072L194.101 312.414L206.673 314.147Z" fill="#FFB8B8"/>
<path d="M196.702 334.072C196.702 334.072 204.939 329.74 206.673 333.206C206.673 333.206 205.373 343.601 210.575 344.901C215.777 346.2 217.944 355.297 210.575 356.163C203.205 357.029 198.436 354.431 195.835 354.431C193.234 354.431 195.835 345.334 195.835 345.334L196.702 334.072Z" fill="#2F2E41"/>
<path d="M154.218 314.147L155.952 333.205L162.455 334.072L166.79 312.414L154.218 314.147Z" fill="#FFB8B8"/>
<path d="M164.189 334.072C164.189 334.072 155.952 329.74 154.218 333.206C154.218 333.206 155.519 343.601 150.316 344.901C145.114 346.2 142.947 355.297 150.316 356.163C157.686 357.029 162.455 354.431 165.056 354.431C167.657 354.431 165.056 345.334 165.056 345.334L164.189 334.072Z" fill="#2F2E41"/>
<path d="M189.766 161.24C195.991 161.24 201.037 156.198 201.037 149.978C201.037 143.758 195.991 138.716 189.766 138.716C183.541 138.716 178.495 143.758 178.495 149.978C178.495 156.198 183.541 161.24 189.766 161.24Z" fill="#FFB8B8"/>
<path d="M153.784 172.07L162.888 186.364L173.726 185.498L191.5 186.797C191.5 186.797 193.178 183.444 194.548 180.183C195.298 178.554 195.875 176.851 196.269 175.102C196.702 172.07 190.633 169.037 190.633 169.037C190.633 169.037 190.395 168.994 189.996 168.899C189.467 168.773 188.652 168.565 187.759 168.262C185.743 167.578 183.32 166.417 182.83 164.706C181.963 161.674 188.466 157.342 188.466 157.342L180.662 149.978C180.662 149.978 173.73 159.599 165.312 161.791C164.823 161.92 164.328 162.021 163.829 162.094C163.803 162.098 163.781 162.103 163.755 162.107C154.651 163.406 153.784 172.07 153.784 172.07Z" fill="#FFB8B8"/>
<path d="M158.553 168.171L153.784 172.07C153.784 172.07 149.883 190.695 151.183 195.893C152.484 201.091 150.75 205.856 150.75 206.722C150.75 207.589 146.848 240.076 146.848 240.076C146.848 240.076 139.045 257.402 147.282 255.67C155.518 253.937 152.484 236.611 152.484 236.611L162.455 206.289V180.733L158.553 168.171Z" fill="#FFB8B8"/>
<path d="M192.801 171.636L196.269 174.235L198.003 210.621L211.008 241.808C211.008 241.808 220.546 256.969 214.476 257.402C208.407 257.835 204.506 241.808 204.506 241.808L192.801 211.92L191.067 182.898L192.801 171.636Z" fill="#FFB8B8"/>
<path d="M171.125 174.235C171.125 174.235 179.795 180.3 193.668 178.134C193.668 178.134 197.569 185.931 195.402 190.262C193.234 194.594 198.003 204.99 198.87 206.289C199.737 207.589 209.708 234.445 213.176 263.466C216.644 292.488 226.181 312.414 217.945 315.013C209.708 317.612 192.801 320.644 191.067 318.045C189.333 315.446 186.732 250.905 186.732 250.905L181.963 275.595C181.963 275.595 188.466 317.612 183.697 318.478C178.928 319.344 149.016 316.745 149.883 311.547C150.75 306.349 159.42 279.06 159.42 279.06C159.42 279.06 158.987 224.482 167.657 214.086C167.657 214.086 171.125 208.455 166.356 201.091C161.588 193.728 162.021 182.032 162.021 182.032C162.021 182.032 165.489 182.032 171.125 174.235Z" fill="#2F2E41"/>
<path d="M163.829 162.094L171.125 178.134L172.859 177.268L165.311 161.79L163.829 162.094Z" fill="#2F2E41"/>
<path d="M187.759 168.262L193.234 180.3L194.548 180.183L194.101 178.134L189.996 168.899C189.467 168.773 188.652 168.565 187.759 168.262Z" fill="#2F2E41"/>
<path d="M170.518 159.157C170.935 160.497 171.738 161.684 172.827 162.57C173.917 163.456 175.243 164.001 176.641 164.137C178.039 164.273 179.446 163.994 180.685 163.335C181.925 162.675 182.942 161.665 183.61 160.43C178.126 153.266 182.83 148.765 191.739 145.361C192.41 144.116 192.695 142.701 192.558 141.294C192.422 139.887 191.869 138.552 190.971 137.46C188.516 137.146 186.021 137.385 183.67 138.158C181.318 138.932 179.169 140.22 177.38 141.93L177.376 141.934L171.047 153.665C170.596 154.498 170.317 155.414 170.226 156.357C170.135 157.301 170.235 158.253 170.518 159.157Z" fill="#2F2E41"/>
<path d="M183.047 153.877C183.885 153.877 184.564 152.713 184.564 151.278C184.564 149.842 183.885 148.679 183.047 148.679C182.209 148.679 181.529 149.842 181.529 151.278C181.529 152.713 182.209 153.877 183.047 153.877Z" fill="#FFB8B8"/>
<path d="M187.568 147.037L200.6 152.937L202.988 147.669C202.577 145.744 201.715 143.944 200.474 142.415L191.504 138.356L187.568 147.037Z" fill="#2F2E41"/>
<path d="M218.892 263.266C222.09 263.266 224.682 260.675 224.682 257.48C224.682 254.284 222.09 251.694 218.892 251.694C215.693 251.694 213.101 254.284 213.101 257.48C213.101 260.675 215.693 263.266 218.892 263.266Z" fill="#FDBE34"/>
<path d="M32.9825 297.662C35.0726 297.662 36.767 295.969 36.767 293.881C36.767 291.792 35.0726 290.099 32.9825 290.099C30.8924 290.099 29.198 291.792 29.198 293.881C29.198 295.969 30.8924 297.662 32.9825 297.662Z" fill="#FF6584"/>
<path d="M52.1027 313.589H50.9446V356.643H52.1027V313.589Z" fill="#FDBE34"/>
<path d="M51.5237 319.677C54.8891 319.677 57.6172 316.951 57.6172 313.589C57.6172 310.226 54.8891 307.5 51.5237 307.5C48.1583 307.5 45.4302 310.226 45.4302 313.589C45.4302 316.951 48.1583 319.677 51.5237 319.677Z" fill="#FDBE34"/>
<path d="M51.5237 340.124C51.5237 340.124 50.6532 321.417 32.8079 323.591L51.5237 340.124Z" fill="#FDBE34"/>
</svg>
