<svg width="32" height="32" viewBox="0 0 32 32" fill="none" xmlns="http://www.w3.org/2000/svg">
<path d="M16 32C24.8366 32 32 24.8366 32 16C32 7.16344 24.8366 0 16 0C7.16344 0 0 7.16344 0 16C0 24.8366 7.16344 32 16 32Z" fill="#1657FF"/>
<path d="M21.3334 13.0267C20.9414 13.2009 20.5191 13.3182 20.0765 13.3716C20.5289 13.1004 20.8747 12.672 21.0391 12.1609C20.616 12.4116 20.1476 12.5938 19.6489 12.6916C19.2507 12.2658 18.6809 12 18.0525 12C16.6391 12 15.6009 13.3182 15.92 14.6871C14.1022 14.5956 12.4889 13.7244 11.4098 12.4009C10.8365 13.384 11.1129 14.6711 12.0871 15.3227C11.7289 15.3111 11.392 15.2124 11.0969 15.0489C11.0729 16.0622 11.8 17.0107 12.8525 17.2222C12.5449 17.3058 12.2071 17.3253 11.864 17.2596C12.1422 18.1289 12.952 18.7609 13.9085 18.7787C12.9867 19.5004 11.8285 19.8231 10.6667 19.6862C11.6356 20.3076 12.7849 20.6693 14.0205 20.6693C18.0845 20.6693 20.3796 17.2373 20.2409 14.1591C20.6694 13.8516 21.04 13.4658 21.3334 13.0267V13.0267Z" fill="white"/>
</svg>
