<svg width="482" height="408" viewBox="0 0 482 408" fill="none" xmlns="http://www.w3.org/2000/svg">
<path d="M0 57C0 45.7989 0 40.1984 2.17987 35.9202C4.09734 32.1569 7.15695 29.0973 10.9202 27.1799C15.1984 25 20.7989 25 32 25H440C451.201 25 456.802 25 461.08 27.1799C464.843 29.0973 467.903 32.1569 469.82 35.9202C472 40.1984 472 45.7989 472 57V281C472 292.201 472 297.802 469.82 302.08C467.903 305.843 464.843 308.903 461.08 310.82C456.802 313 451.201 313 440 313H32C20.7989 313 15.1984 313 10.9202 310.82C7.15695 308.903 4.09734 305.843 2.17987 302.08C0 297.802 0 292.201 0 281V57Z" fill="#14091D"/>
<rect x="100.666" y="96.8398" width="192.972" height="138.816" rx="20" transform="rotate(25 100.666 96.8398)" fill="white"/>
<mask id="mask0" mask-type="alpha" maskUnits="userSpaceOnUse" x="42" y="96" width="234" height="209">
<rect x="100.666" y="96.8398" width="192.972" height="138.816" rx="20" transform="rotate(25 100.666 96.8398)" fill="white"/>
</mask>
<g mask="url(#mask0)">
<path opacity="0.3" d="M69.4382 209.05L59.3909 230.597C57.6892 234.246 59.2681 238.584 62.9173 240.285C66.5666 241.987 70.9044 240.408 72.6061 236.759L82.6534 215.213C84.3551 211.563 82.7762 207.225 79.127 205.524C75.4777 203.822 71.1399 205.401 69.4382 209.05Z" fill="#A17FE0"/>
<path opacity="0.3" d="M92.9401 213.854L80.5351 240.456C78.8334 244.106 80.4122 248.443 84.0615 250.145C87.7108 251.847 92.0486 250.268 93.7503 246.619L106.155 220.016C107.857 216.367 106.278 212.029 102.629 210.327C98.9796 208.626 94.6418 210.204 92.9401 213.854Z" fill="#A17FE0"/>
<path opacity="0.3" d="M106.127 240.778L101.679 250.316C99.9776 253.965 101.556 258.303 105.206 260.005C108.855 261.707 113.193 260.128 114.894 256.478L119.342 246.941C121.044 243.291 119.465 238.954 115.816 237.252C112.166 235.55 107.829 237.129 106.127 240.778Z" fill="#A17FE0"/>
<path opacity="0.3" d="M154.386 192.491L122.824 260.176C121.122 263.825 122.701 268.163 126.35 269.865C129.999 271.566 134.337 269.987 136.039 266.338L167.601 198.653C169.302 195.004 167.724 190.666 164.074 188.965C160.425 187.263 156.087 188.842 154.386 192.491Z" fill="#A17FE0"/>
<path opacity="0.3" d="M162.239 230.465L143.852 269.896C142.132 273.584 143.728 277.968 147.416 279.688C151.104 281.408 155.488 279.812 157.208 276.124L175.594 236.693C177.314 233.005 175.719 228.621 172.031 226.902C168.342 225.182 163.959 226.777 162.239 230.465Z" fill="#A17FE0"/>
<path opacity="0.3" d="M174.57 259.613L165.112 279.895C163.41 283.545 164.989 287.882 168.639 289.584C172.288 291.286 176.626 289.707 178.327 286.058L187.785 265.775C189.487 262.126 187.908 257.788 184.259 256.087C180.609 254.385 176.272 255.964 174.57 259.613Z" fill="#A17FE0"/>
<path d="M228.574 199.457L186.463 289.766C184.743 293.454 186.338 297.838 190.026 299.558C193.715 301.277 198.098 299.682 199.818 295.994L241.93 205.684C243.65 201.996 242.054 197.612 238.366 195.893C234.678 194.173 230.294 195.769 228.574 199.457Z" fill="#A17FE0"/>
</g>
<path d="M117.868 133.507C117.121 134.847 116.098 135.699 114.801 136.063C113.509 136.431 112.107 136.262 110.597 135.558C108.945 134.787 107.902 133.626 107.47 132.074C107.046 130.518 107.286 128.77 108.191 126.829L108.559 126.041C109.137 124.802 109.864 123.812 110.741 123.072C111.618 122.331 112.577 121.899 113.619 121.774C114.67 121.646 115.733 121.833 116.806 122.334C118.293 123.027 119.305 123.984 119.843 125.204C120.38 126.424 120.384 127.788 119.854 129.293L117.199 128.055C117.522 127.193 117.569 126.482 117.341 125.924C117.122 125.362 116.605 124.891 115.791 124.511C114.906 124.098 114.094 124.107 113.354 124.538C112.623 124.966 111.941 125.844 111.307 127.172L110.853 128.145C110.204 129.538 109.939 130.653 110.058 131.492C110.183 132.333 110.699 132.966 111.608 133.389C112.428 133.772 113.126 133.871 113.7 133.686C114.283 133.498 114.787 133.026 115.212 132.269L117.868 133.507ZM123.631 140.235C122.642 140.707 121.589 140.684 120.474 140.164C119.448 139.685 118.8 139.024 118.533 138.181C118.271 137.34 118.4 136.348 118.919 135.204L121.845 128.929L124.403 130.121L121.518 136.308C121.053 137.305 121.275 138.016 122.183 138.439C123.051 138.844 123.787 138.821 124.392 138.37L127.554 131.591L130.12 132.788L125.655 142.364L123.247 141.241L123.631 140.235ZM136.313 138.595C135.986 138.386 135.691 138.219 135.425 138.095C134.457 137.644 133.67 137.675 133.064 138.19L130.142 144.456L127.584 143.264L132.05 133.687L134.466 134.814L134.004 135.989C134.928 135.349 135.844 135.241 136.752 135.665C137.036 135.797 137.283 135.959 137.495 136.151L136.313 138.595ZM142.933 141.682C142.607 141.473 142.311 141.306 142.045 141.182C141.078 140.731 140.291 140.763 139.684 141.277L136.762 147.543L134.204 146.351L138.67 136.774L141.086 137.901L140.625 139.076C141.548 138.436 142.464 138.328 143.373 138.752C143.656 138.884 143.903 139.046 144.116 139.238L142.933 141.682ZM144.973 151.588C143.569 150.933 142.625 149.968 142.141 148.694C141.664 147.423 141.759 146.07 142.428 144.636L142.544 144.388C142.992 143.427 143.578 142.655 144.302 142.073C145.029 141.485 145.826 141.146 146.695 141.055C147.572 140.961 148.447 141.118 149.32 141.525C150.63 142.136 151.467 143.029 151.831 144.205C152.201 145.383 152.033 146.73 151.326 148.247L150.839 149.291L144.741 146.447C144.532 147.111 144.546 147.728 144.783 148.299C145.025 148.872 145.465 149.307 146.103 149.604C147.088 150.063 148.024 150.065 148.912 149.61L149.513 151.603C148.876 151.967 148.159 152.15 147.361 152.152C146.565 152.147 145.769 151.959 144.973 151.588ZM148.346 143.592C147.838 143.355 147.345 143.334 146.867 143.528C146.395 143.724 145.966 144.12 145.58 144.716L149.138 146.375L149.233 146.172C149.485 145.6 149.536 145.092 149.384 144.647C149.235 144.197 148.889 143.845 148.346 143.592ZM157.274 145.45L156.838 146.593C157.921 146.057 159.038 146.057 160.189 146.593C161.204 147.066 161.82 147.717 162.038 148.544C162.256 149.371 162.094 150.38 161.553 151.572L158.668 157.758L156.11 156.565L158.966 150.441C159.219 149.898 159.284 149.45 159.161 149.099C159.04 148.741 158.706 148.434 158.157 148.178C157.437 147.842 156.754 147.897 156.108 148.343L152.959 155.096L150.401 153.903L154.867 144.327L157.274 145.45ZM165.477 158.638C165.949 158.858 166.393 158.907 166.809 158.785C167.225 158.663 167.539 158.39 167.752 157.964L170.151 159.083C169.842 159.729 169.387 160.242 168.786 160.623C168.187 160.998 167.514 161.194 166.766 161.211C166.027 161.226 165.291 161.062 164.559 160.721C163.19 160.083 162.313 159.145 161.927 157.909C161.543 156.667 161.709 155.279 162.425 153.745L162.503 153.577C163.191 152.102 164.132 151.108 165.327 150.595C166.522 150.081 167.803 150.144 169.172 150.782C170.37 151.341 171.169 152.13 171.57 153.15C171.979 154.167 171.926 155.245 171.409 156.383L169.011 155.265C169.23 154.764 169.264 154.291 169.112 153.847C168.963 153.396 168.646 153.058 168.162 152.833C167.566 152.555 167.013 152.563 166.503 152.856C166.001 153.147 165.523 153.779 165.069 154.752L164.945 155.018C164.486 156.003 164.306 156.781 164.406 157.352C164.506 157.923 164.863 158.352 165.477 158.638ZM175.331 161.121L179.879 155.99L182.622 157.27L173.613 166.538L173.166 166.943C172.01 167.927 170.774 168.112 169.459 167.499C169.087 167.325 168.735 167.093 168.404 166.802L169.308 164.864L169.693 165.054C170.177 165.28 170.571 165.374 170.876 165.337C171.187 165.302 171.49 165.145 171.785 164.866L172.454 164.219L173.577 153.052L176.33 154.335L175.331 161.121Z" fill="#232D42"/>
<g filter="url(#filter0_d)">
<rect x="266.274" y="40" width="192.972" height="138.816" rx="20" transform="rotate(25 266.274 40)" fill="white"/>
</g>
<path opacity="0.5" d="M357.903 184.212L357.054 183.815L360.058 177.372L360.908 177.768L357.903 184.212ZM363.579 179.618L363.039 180.777L363.933 181.194L363.638 181.827L362.744 181.41L361.359 184.379C361.27 184.571 361.242 184.734 361.276 184.869C361.312 185 361.426 185.111 361.617 185.2C361.712 185.244 361.85 185.287 362.032 185.329L361.722 185.992C361.479 185.951 361.256 185.883 361.052 185.788C360.686 185.617 360.462 185.378 360.38 185.07C360.297 184.762 360.35 184.405 360.54 183.997L361.925 181.028L361.053 180.622L361.348 179.989L362.22 180.395L362.761 179.236L363.579 179.618ZM364.968 187.614C364.319 187.311 363.89 186.853 363.681 186.238C363.474 185.62 363.536 184.955 363.869 184.241L363.939 184.09C364.161 183.615 364.448 183.234 364.802 182.946C365.159 182.657 365.549 182.483 365.971 182.425C366.398 182.365 366.801 182.424 367.182 182.601C367.804 182.892 368.193 183.322 368.347 183.893C368.501 184.464 368.399 185.132 368.043 185.896L367.884 186.237L364.64 184.724C364.432 185.202 364.391 185.648 364.517 186.062C364.648 186.475 364.917 186.777 365.324 186.966C365.613 187.101 365.886 187.156 366.141 187.132C366.397 187.107 366.645 187.033 366.887 186.908L367.205 187.531C366.516 187.96 365.771 187.988 364.968 187.614ZM366.868 183.274C366.538 183.12 366.204 183.111 365.867 183.249C365.531 183.383 365.236 183.655 364.981 184.064L367.379 185.182L367.408 185.12C367.578 184.693 367.616 184.32 367.522 183.999C367.428 183.675 367.21 183.433 366.868 183.274ZM371.194 184.58L370.968 185.121C371.512 184.872 372.082 184.886 372.678 185.164C373.348 185.476 373.684 185.946 373.686 186.572C373.953 186.416 374.246 186.326 374.566 186.303C374.888 186.281 375.224 186.351 375.572 186.514C376.622 187.003 376.897 187.808 376.396 188.929L374.9 192.137L374.081 191.756L375.555 188.596C375.714 188.254 375.755 187.962 375.677 187.721C375.6 187.477 375.378 187.269 375.009 187.097C374.705 186.955 374.41 186.929 374.124 187.018C373.84 187.105 373.61 187.294 373.434 187.586L371.953 190.763L371.13 190.379L372.593 187.242C372.917 186.545 372.739 186.038 372.057 185.721C371.52 185.47 371.046 185.528 370.636 185.893L369.005 189.389L368.187 189.007L370.419 184.219L371.194 184.58ZM381.719 195.317L380.896 194.933L383.44 189.477L381.507 189.313L381.853 188.57L384.609 188.783L384.738 188.843L381.719 195.317Z" fill="#232D42"/>
<circle cx="349.16" cy="175.435" r="2.80691" transform="rotate(25 349.16 175.435)" fill="#7951F9"/>
<path opacity="0.5" d="M347.764 205.18L344.818 211.497L343.993 211.112L346.939 204.795L347.764 205.18ZM349.591 208.503L348.226 211.431C348.114 211.673 348.085 211.869 348.139 212.019C348.197 212.164 348.353 212.295 348.606 212.414L349.214 212.697L348.888 213.395L348.145 213.048C347.686 212.834 347.391 212.568 347.26 212.249C347.129 211.931 347.176 211.53 347.401 211.046L348.767 208.119L348.123 207.819L348.44 207.139L349.083 207.439L349.667 206.188L350.491 206.573L349.908 207.824L351.204 208.428L350.887 209.108L349.591 208.503ZM356.028 213.469C355.955 213.626 355.869 213.788 355.769 213.955L351.799 212.104C351.601 212.607 351.588 213.069 351.761 213.487C351.942 213.903 352.25 214.212 352.685 214.415C353.042 214.581 353.376 214.638 353.688 214.584C354.008 214.528 354.282 214.383 354.508 214.15L355.396 214.565C355.041 214.98 354.593 215.246 354.053 215.362C353.517 215.472 352.952 215.389 352.36 215.113C351.889 214.893 351.515 214.59 351.239 214.204C350.969 213.821 350.819 213.386 350.787 212.901C350.759 212.41 350.865 211.907 351.104 211.394C351.344 210.88 351.656 210.478 352.042 210.187C352.428 209.896 352.853 209.734 353.317 209.7C353.79 209.663 354.269 209.758 354.752 209.983C355.223 210.203 355.592 210.5 355.859 210.875C356.126 211.249 356.271 211.663 356.296 212.115C356.329 212.565 356.24 213.016 356.028 213.469ZM355.257 212.9C355.403 212.586 355.459 212.284 355.424 211.996C355.393 211.701 355.282 211.441 355.094 211.213C354.915 210.982 354.68 210.799 354.39 210.664C353.973 210.47 353.555 210.436 353.135 210.564C352.721 210.695 352.383 210.986 352.121 211.437L355.257 212.9ZM364.564 214.547C364.95 214.728 365.257 214.97 365.483 215.274C365.712 215.572 365.839 215.922 365.865 216.324C365.891 216.726 365.797 217.156 365.582 217.615L364.217 220.543L363.402 220.162L364.712 217.353C364.943 216.857 364.995 216.422 364.868 216.047C364.751 215.668 364.483 215.382 364.067 215.187C363.638 214.987 363.231 214.967 362.848 215.127C362.467 215.28 362.156 215.617 361.914 216.136L360.637 218.873L359.822 218.493L361.132 215.683C361.363 215.188 361.415 214.753 361.289 214.377C361.171 213.999 360.904 213.712 360.487 213.518C360.058 213.318 359.651 213.298 359.268 213.457C358.888 213.611 358.576 213.947 358.334 214.467L357.058 217.204L356.233 216.819L358.549 211.853L359.373 212.237L359.04 212.953C359.324 212.77 359.634 212.672 359.971 212.66C360.314 212.65 360.651 212.723 360.984 212.878C361.401 213.072 361.725 213.338 361.958 213.675C362.191 214.011 362.302 214.397 362.29 214.833C362.592 214.548 362.948 214.383 363.359 214.339C363.769 214.295 364.171 214.364 364.564 214.547ZM370.844 217.663C371.145 217.127 371.563 216.792 372.096 216.658C372.629 216.525 373.204 216.601 373.82 216.889C374.231 217.08 374.549 217.321 374.775 217.61C375.009 217.896 375.143 218.201 375.176 218.525C375.214 218.852 375.159 219.175 375.01 219.496C374.835 219.87 374.576 220.143 374.231 220.313C373.893 220.487 373.533 220.532 373.152 220.45L373.131 220.495C373.479 220.775 373.701 221.111 373.798 221.502C373.896 221.893 373.837 222.318 373.623 222.777C373.462 223.121 373.239 223.396 372.952 223.601C372.668 223.799 372.333 223.904 371.945 223.915C371.558 223.925 371.143 223.828 370.702 223.622C370.062 223.323 369.614 222.912 369.358 222.388C369.105 221.858 369.098 221.274 369.337 220.635L370.134 221.007C370.008 221.389 370.018 221.754 370.164 222.102C370.311 222.45 370.596 222.723 371.019 222.92C371.442 223.117 371.813 223.158 372.132 223.042C372.459 222.922 372.705 222.687 372.868 222.337C373.08 221.884 373.081 221.487 372.872 221.147C372.663 220.807 372.253 220.494 371.643 220.21L371.434 220.112L371.755 219.424L371.973 219.525C372.532 219.778 372.994 219.883 373.359 219.841C373.728 219.792 374 219.58 374.174 219.205C374.324 218.885 374.338 218.579 374.216 218.287C374.101 217.998 373.85 217.763 373.463 217.583C373.089 217.408 372.741 217.364 372.422 217.45C372.102 217.537 371.845 217.733 371.65 218.04L370.844 217.663Z" fill="#232D42"/>
<circle cx="335.519" cy="204.69" r="2.80691" transform="rotate(25 335.519 204.69)" fill="#25CADF"/>
<path opacity="0.5" d="M351.776 196.933L350.926 196.537L353.931 190.093L354.781 190.49L351.776 196.933ZM357.452 192.339L356.911 193.498L357.805 193.915L357.51 194.548L356.616 194.131L355.232 197.1C355.142 197.292 355.115 197.455 355.149 197.59C355.185 197.721 355.298 197.832 355.49 197.921C355.584 197.965 355.722 198.008 355.904 198.05L355.595 198.714C355.352 198.672 355.129 198.604 354.925 198.509C354.559 198.338 354.335 198.099 354.252 197.791C354.17 197.483 354.223 197.126 354.413 196.719L355.798 193.749L354.926 193.343L355.221 192.71L356.093 193.116L356.633 191.957L357.452 192.339ZM358.841 200.335C358.192 200.032 357.763 199.574 357.554 198.959C357.346 198.342 357.409 197.676 357.742 196.962L357.812 196.811C358.033 196.336 358.321 195.955 358.674 195.667C359.032 195.378 359.422 195.204 359.844 195.146C360.27 195.086 360.674 195.145 361.055 195.322C361.677 195.613 362.065 196.043 362.219 196.614C362.373 197.185 362.272 197.853 361.916 198.617L361.757 198.958L358.513 197.445C358.305 197.923 358.264 198.369 358.39 198.783C358.521 199.196 358.79 199.498 359.197 199.688C359.486 199.822 359.758 199.878 360.014 199.853C360.27 199.829 360.518 199.754 360.759 199.63L361.078 200.252C360.389 200.682 359.644 200.709 358.841 200.335ZM360.741 195.995C360.411 195.841 360.077 195.833 359.74 195.97C359.404 196.104 359.109 196.376 358.853 196.785L361.252 197.903L361.281 197.842C361.451 197.415 361.489 197.041 361.394 196.72C361.301 196.396 361.083 196.155 360.741 195.995ZM365.067 197.301L364.841 197.842C365.385 197.593 365.955 197.607 366.55 197.885C367.22 198.198 367.556 198.667 367.559 199.293C367.825 199.137 368.119 199.047 368.438 199.024C368.761 199.002 369.097 199.072 369.445 199.235C370.495 199.725 370.77 200.53 370.269 201.65L368.773 204.859L367.954 204.477L369.427 201.317C369.587 200.975 369.628 200.683 369.55 200.442C369.473 200.198 369.25 199.99 368.882 199.818C368.578 199.676 368.283 199.65 367.997 199.74C367.713 199.826 367.482 200.015 367.307 200.307L365.825 203.484L365.002 203.1L366.465 199.963C366.79 199.267 366.612 198.76 365.93 198.442C365.393 198.191 364.919 198.249 364.508 198.614L362.878 202.11L362.059 201.728L364.292 196.94L365.067 197.301ZM377.122 208.752L372.901 206.784L373.175 206.195L376.561 204.757C377.066 204.536 377.435 204.338 377.668 204.163C377.905 203.986 378.082 203.772 378.199 203.522C378.355 203.185 378.382 202.862 378.279 202.552C378.176 202.241 377.955 202.007 377.615 201.849C377.208 201.659 376.837 201.628 376.501 201.755C376.169 201.88 375.907 202.15 375.715 202.563L374.896 202.181C375.173 201.588 375.586 201.197 376.138 201.009C376.692 200.822 377.289 200.878 377.929 201.176C378.528 201.455 378.928 201.834 379.129 202.312C379.331 202.787 379.311 203.286 379.067 203.808C378.771 204.442 378.015 205.009 376.798 205.508L374.199 206.575L377.434 208.084L377.122 208.752Z" fill="#232D42"/>
<circle cx="342.339" cy="190.062" r="2.80691" transform="rotate(25 342.339 190.062)" fill="#EC9C27"/>
<circle cx="297.968" cy="131.432" r="42.8053" transform="rotate(25 297.968 131.432)" fill="#F9F7FF"/>
<path d="M340.579 127.355C341.417 136.116 339.535 144.921 335.188 152.574C330.842 160.226 324.242 166.352 316.288 170.119C308.335 173.885 299.413 175.109 290.739 173.623C282.065 172.137 274.06 168.013 267.814 161.814L297.968 131.432L340.579 127.355Z" fill="#5D26C1"/>
<path d="M283.328 91.2084C289.537 88.9482 296.186 88.1565 302.753 88.8952C309.32 89.6338 315.626 91.8829 321.179 95.4661C326.731 99.0493 331.378 103.869 334.757 109.549C338.135 115.228 340.153 121.613 340.651 128.202L297.968 131.432L283.328 91.2084Z" fill="#FD4C5C"/>
<path d="M268.098 162.093C263.807 157.913 260.441 152.878 258.218 147.315L297.968 131.432L268.098 162.093Z" fill="#FF5F00"/>
<g filter="url(#filter1_dd)">
<path d="M291.296 100.474C292.23 98.4722 294.61 97.606 296.612 98.5396L328.183 113.261C330.185 114.195 331.051 116.575 330.118 118.577L328.042 123.029C327.108 125.031 324.728 125.897 322.726 124.963L312.487 120.189L305.577 120.528L301.395 115.016L291.155 110.242C289.153 109.308 288.287 106.928 289.221 104.926L291.296 100.474Z" fill="white"/>
</g>
<path d="M305.201 111.18C305.06 111.483 304.852 111.731 304.577 111.927C304.308 112.125 303.986 112.247 303.612 112.293C303.243 112.342 302.854 112.293 302.444 112.146L302.102 112.88L301.513 112.605L301.855 111.871C301.313 111.552 300.937 111.16 300.727 110.694C300.517 110.229 300.528 109.748 300.759 109.253L301.865 109.768C301.773 110.012 301.757 110.244 301.817 110.463C301.879 110.676 302.025 110.862 302.253 111.019L303.182 109.025C302.825 108.734 302.544 108.478 302.338 108.257C302.135 108.03 301.996 107.759 301.922 107.445C301.854 107.134 301.913 106.779 302.099 106.38C302.333 105.878 302.701 105.546 303.204 105.383C303.709 105.214 304.258 105.235 304.852 105.446L305.194 104.711L305.783 104.986L305.441 105.72C305.95 106.017 306.297 106.384 306.482 106.824C306.676 107.26 306.677 107.738 306.485 108.26L305.38 107.744C305.449 107.548 305.454 107.348 305.395 107.144C305.338 106.934 305.217 106.752 305.031 106.599L304.118 108.557C304.478 108.842 304.759 109.099 304.962 109.326C305.168 109.547 305.305 109.813 305.373 110.124C305.444 110.43 305.387 110.782 305.201 111.18ZM303.176 106.816C303.06 107.063 303.042 107.291 303.123 107.497C303.209 107.706 303.368 107.917 303.601 108.128L304.454 106.298C304.18 106.207 303.928 106.203 303.698 106.287C303.474 106.374 303.3 106.55 303.176 106.816ZM302.842 111.294C303.127 111.376 303.385 111.367 303.615 111.268C303.848 111.164 304.02 110.99 304.133 110.749C304.246 110.507 304.258 110.285 304.169 110.081C304.088 109.875 303.932 109.666 303.7 109.454L302.842 111.294ZM307.46 112.709C308.274 112.478 308.922 112.279 309.404 112.114C309.894 111.946 310.333 111.738 310.72 111.492C311.107 111.246 311.382 110.948 311.546 110.597C311.715 110.235 311.759 109.91 311.68 109.623C311.607 109.338 311.386 109.11 311.017 108.938C310.661 108.772 310.329 108.757 310.023 108.894C309.725 109.027 309.481 109.282 309.292 109.657L308.295 109.192C308.634 108.511 309.085 108.082 309.647 107.902C310.217 107.72 310.808 107.771 311.418 108.055C312.076 108.362 312.506 108.783 312.705 109.317C312.911 109.855 312.873 110.425 312.591 111.029C312.388 111.464 312.08 111.832 311.668 112.133C311.265 112.43 310.834 112.667 310.377 112.844C309.928 113.017 309.371 113.202 308.705 113.399L308.128 113.572L311.001 114.911L310.6 115.772L306.195 113.718L306.546 112.966L307.46 112.709ZM318.754 112.723L315.718 111.307L314.877 113.111C315.083 113.001 315.336 112.946 315.637 112.947C315.945 112.95 316.24 113.018 316.524 113.151C317.032 113.387 317.392 113.688 317.605 114.052C317.824 114.418 317.922 114.799 317.9 115.193C317.884 115.59 317.79 115.973 317.618 116.342C317.41 116.789 317.136 117.147 316.797 117.416C316.468 117.681 316.084 117.833 315.647 117.872C315.215 117.914 314.752 117.819 314.257 117.588C313.598 117.281 313.145 116.871 312.899 116.359C312.652 115.847 312.615 115.303 312.787 114.729L313.793 115.198C313.727 115.513 313.77 115.809 313.92 116.085C314.074 116.355 314.323 116.571 314.667 116.731C315.096 116.931 315.477 116.951 315.81 116.789C316.148 116.631 316.418 116.337 316.618 115.908C316.82 115.473 316.867 115.09 316.756 114.759C316.649 114.422 316.383 114.155 315.96 113.958C315.664 113.82 315.378 113.778 315.102 113.834C314.835 113.886 314.597 114.017 314.389 114.229L313.41 113.773L315.189 109.957L319.177 111.817L318.754 112.723Z" fill="#232D42"/>
<path d="M389.179 114.762L385.221 123.25C384.563 124.66 383.601 125.569 382.333 125.977C381.072 126.387 379.677 126.236 378.148 125.523C376.644 124.821 375.635 123.866 375.121 122.657C374.607 121.448 374.666 120.142 375.298 118.742L379.301 110.157L381.957 111.395L377.99 119.9C377.597 120.744 377.51 121.454 377.73 122.031C377.958 122.604 378.429 123.057 379.143 123.39C380.636 124.086 381.76 123.655 382.516 122.096L386.515 113.52L389.179 114.762ZM391.599 128.358C391.745 128.045 391.703 127.728 391.473 127.405C391.251 127.079 390.831 126.685 390.213 126.225C388.158 124.685 387.471 123.186 388.15 121.728C388.546 120.879 389.228 120.334 390.194 120.095C391.169 119.853 392.226 119.998 393.364 120.529C394.58 121.096 395.417 121.834 395.876 122.745C396.341 123.659 396.36 124.573 395.933 125.487L393.376 124.294C393.546 123.929 393.569 123.573 393.443 123.227C393.319 122.875 393.007 122.582 392.505 122.348C392.075 122.147 391.696 122.089 391.369 122.174C391.042 122.258 390.809 122.451 390.668 122.752C390.536 123.035 390.562 123.327 390.745 123.628C390.936 123.926 391.321 124.288 391.897 124.715C392.477 125.136 392.948 125.528 393.31 125.891C394.43 127.017 394.705 128.19 394.136 129.412C393.729 130.285 393.024 130.818 392.021 131.012C391.022 131.199 389.929 131.016 388.743 130.463C387.94 130.089 387.292 129.615 386.799 129.04C386.314 128.462 386.01 127.842 385.887 127.182C385.767 126.515 385.842 125.893 386.112 125.314L388.537 126.445C388.349 126.91 388.354 127.337 388.554 127.725C388.754 128.112 389.117 128.429 389.642 128.674C390.132 128.902 390.543 128.983 390.876 128.915C391.218 128.845 391.459 128.659 391.599 128.358ZM398.832 135.168C397.428 134.513 396.484 133.549 396.001 132.275C395.523 131.003 395.619 129.651 396.288 128.217L396.403 127.969C396.852 127.007 397.438 126.235 398.162 125.653C398.888 125.066 399.686 124.726 400.554 124.636C401.431 124.542 402.307 124.698 403.18 125.106C404.49 125.717 405.327 126.61 405.691 127.785C406.061 128.963 405.892 130.311 405.185 131.827L404.698 132.872L398.6 130.028C398.391 130.692 398.405 131.309 398.642 131.879C398.885 132.452 399.325 132.887 399.962 133.184C400.948 133.644 401.884 133.646 402.772 133.191L403.372 135.184C402.736 135.548 402.018 135.731 401.22 135.732C400.425 135.728 399.629 135.54 398.832 135.168ZM402.205 127.173C401.698 126.936 401.205 126.915 400.727 127.108C400.254 127.305 399.826 127.701 399.44 128.297L402.998 129.956L403.093 129.752C403.345 129.18 403.395 128.672 403.243 128.228C403.094 127.777 402.748 127.426 402.205 127.173ZM413.042 132.84C412.716 132.631 412.42 132.464 412.155 132.34C411.187 131.889 410.4 131.921 409.794 132.435L406.872 138.701L404.314 137.509L408.779 127.932L411.196 129.059L410.734 130.234C411.657 129.594 412.573 129.486 413.482 129.91C413.765 130.042 414.013 130.204 414.225 130.396L413.042 132.84ZM417.355 140.368C417.501 140.055 417.458 139.737 417.228 139.415C417.007 139.089 416.587 138.695 415.968 138.235C413.914 136.695 413.226 135.196 413.906 133.738C414.302 132.889 414.983 132.344 415.949 132.105C416.924 131.863 417.981 132.008 419.12 132.539C420.335 133.105 421.173 133.844 421.631 134.755C422.096 135.669 422.115 136.583 421.689 137.497L419.131 136.304C419.302 135.939 419.324 135.583 419.198 135.237C419.075 134.885 418.762 134.592 418.261 134.358C417.83 134.157 417.451 134.099 417.125 134.183C416.798 134.268 416.564 134.461 416.424 134.762C416.292 135.045 416.317 135.337 416.5 135.638C416.692 135.936 417.076 136.298 417.653 136.725C418.232 137.146 418.703 137.538 419.065 137.901C420.186 139.027 420.461 140.2 419.891 141.422C419.484 142.295 418.779 142.828 417.777 143.022C416.777 143.209 415.684 143.026 414.498 142.473C413.696 142.099 413.048 141.625 412.554 141.05C412.07 140.472 411.766 139.852 411.643 139.192C411.523 138.525 411.597 137.902 411.867 137.324L414.292 138.455C414.104 138.92 414.11 139.347 414.31 139.735C414.51 140.122 414.872 140.439 415.397 140.684C415.887 140.912 416.298 140.992 416.632 140.925C416.973 140.855 417.214 140.669 417.355 140.368Z" fill="#232D42"/>
<defs>
<filter id="filter0_d" x="47.6075" y="0" width="433.559" height="407.364" filterUnits="userSpaceOnUse" color-interpolation-filters="sRGB">
<feFlood flood-opacity="0" result="BackgroundImageFix"/>
<feColorMatrix in="SourceAlpha" type="matrix" values="0 0 0 0 0 0 0 0 0 0 0 0 0 0 0 0 0 0 127 0"/>
<feOffset dx="-60" dy="60"/>
<feGaussianBlur stdDeviation="50"/>
<feColorMatrix type="matrix" values="0 0 0 0 0.62862 0 0 0 0 0.557604 0 0 0 0 0.841667 0 0 0 0.3 0"/>
<feBlend mode="normal" in2="BackgroundImageFix" result="effect1_dropShadow"/>
<feBlend mode="normal" in="SourceGraphic" in2="effect1_dropShadow" result="shape"/>
</filter>
<filter id="filter1_dd" x="262.166" y="76.8491" width="93.6422" height="80.7302" filterUnits="userSpaceOnUse" color-interpolation-filters="sRGB">
<feFlood flood-opacity="0" result="BackgroundImageFix"/>
<feColorMatrix in="SourceAlpha" type="matrix" values="0 0 0 0 0 0 0 0 0 0 0 0 0 0 0 0 0 0 127 0"/>
<feOffset dy="4"/>
<feGaussianBlur stdDeviation="12"/>
<feColorMatrix type="matrix" values="0 0 0 0 0 0 0 0 0 0 0 0 0 0 0 0 0 0 0.08 0"/>
<feBlend mode="normal" in2="BackgroundImageFix" result="effect1_dropShadow"/>
<feColorMatrix in="SourceAlpha" type="matrix" values="0 0 0 0 0 0 0 0 0 0 0 0 0 0 0 0 0 0 127 0"/>
<feOffset dy="2"/>
<feGaussianBlur stdDeviation="2"/>
<feColorMatrix type="matrix" values="0 0 0 0 0 0 0 0 0 0 0 0 0 0 0 0 0 0 0.08 0"/>
<feBlend mode="normal" in2="effect1_dropShadow" result="effect2_dropShadow"/>
<feBlend mode="normal" in="SourceGraphic" in2="effect2_dropShadow" result="shape"/>
</filter>
</defs>
</svg>
