<svg width="470" height="470" viewBox="0 0 470 470" fill="none" xmlns="http://www.w3.org/2000/svg">
<g clip-path="url(#clip0)">
<path d="M448.004 236.639V170.674C448.004 148.306 430.654 130.115 408.733 128.351L347.473 21.3509C341.796 11.4549 332.629 4.38193 321.66 1.44493C310.743 -1.47207 299.327 0.0599351 289.556 5.74693L79.553 128.007H42.67C19.139 128.007 0.00299072 147.142 0.00299072 170.674V426.674C0.00299072 450.205 19.138 469.341 42.67 469.341H405.337C428.868 469.341 448.004 450.206 448.004 426.674V360.709C460.393 356.291 469.337 344.562 469.337 330.674V266.674C469.337 252.786 460.393 241.057 448.004 236.639ZM383.944 128.007H290.973L360.702 87.4109L383.944 128.007ZM350.103 68.8979L248.574 128.007H206.461L339.573 50.5069L350.103 68.8979ZM300.295 24.1839C305.118 21.3609 310.753 20.6109 316.139 22.0489C321.587 23.5069 326.129 27.0279 328.952 31.9549L328.974 31.9939L164.064 128.007H121.953L300.295 24.1839ZM426.67 426.674C426.67 438.434 417.097 448.007 405.337 448.007H42.67C30.91 448.007 21.337 438.434 21.337 426.674V170.674C21.337 158.914 30.91 149.341 42.67 149.341H405.337C417.097 149.341 426.67 158.914 426.67 170.674V234.674H362.67C327.378 234.674 298.67 263.382 298.67 298.674C298.67 333.966 327.378 362.674 362.67 362.674H426.67V426.674V426.674ZM448.004 330.674C448.004 336.559 443.223 341.341 437.337 341.341H362.67C339.139 341.341 320.003 322.206 320.003 298.674C320.003 275.143 339.138 256.007 362.67 256.007H437.337C443.222 256.007 448.004 260.788 448.004 266.674V330.674V330.674Z" fill="#469D89"/>
<path d="M362.67 277.341C350.91 277.341 341.337 286.914 341.337 298.674C341.337 310.434 350.91 320.007 362.67 320.007C374.43 320.007 384.003 310.434 384.003 298.674C384.004 286.914 374.431 277.341 362.67 277.341Z" fill="#469D89"/>
</g>
<defs>
<clipPath id="clip0">
<rect width="469.341" height="469.341" fill="white"/>
</clipPath>
</defs>
</svg>
