<svg width="473" height="288" viewBox="0 0 473 288" fill="none" xmlns="http://www.w3.org/2000/svg">
<path d="M0.285767 32C0.285767 20.7989 0.285767 15.1984 2.46564 10.9202C4.3831 7.15695 7.44271 4.09734 11.206 2.17987C15.4842 0 21.0847 0 32.2858 0H440.286C451.487 0 457.087 0 461.366 2.17987C465.129 4.09734 468.188 7.15695 470.106 10.9202C472.286 15.1984 472.286 20.7989 472.286 32V256C472.286 267.201 472.286 272.802 470.106 277.08C468.188 280.843 465.129 283.903 461.366 285.82C457.087 288 451.487 288 440.286 288H32.2858C21.0847 288 15.4842 288 11.206 285.82C7.44271 283.903 4.3831 280.843 2.46564 277.08C0.285767 272.802 0.285767 267.201 0.285767 256V32Z" fill="#14091D"/>
<rect x="42.4144" y="24.8572" width="385.784" height="234.857" rx="10" fill="url(#paint0_linear)"/>
<g clip-path="url(#clip0)">
<g filter="url(#filter0_ii)">
<path d="M382.783 160.438L365.152 174.997C346.845 190.114 319.186 183.808 309.241 162.249L282.061 103.332C272.951 83.5838 243.443 89.4864 242.63 111.219L241.575 139.44C240.907 157.324 215.772 160.622 210.512 143.516V143.516C207.085 132.373 193.224 128.592 184.614 136.451L141.701 175.625C116.269 198.842 75.2375 185.682 68.0526 152.004V152.004" stroke="#5200FF" stroke-width="52" stroke-linecap="round" stroke-linejoin="round"/>
</g>
<g filter="url(#filter1_dii)">
<path d="M394.276 161.275L373.168 142.829C364.564 135.31 351.41 136.564 344.381 145.573V145.573C337.616 154.243 325.101 155.784 316.436 149.013L292.546 130.346C285.014 124.46 274.043 126.397 268.982 134.506L268.063 135.977C261.048 147.217 244.038 144.855 240.35 132.129V132.129C235.791 116.394 213.043 117.831 210.5 134.014L207.237 154.773C205.1 168.368 190.189 175.792 178.053 169.303L152.483 155.631C139.967 148.938 124.864 149.267 112.651 156.498L93.6907 167.725" stroke="#FFCEF4" stroke-width="52" stroke-linecap="round" stroke-linejoin="round"/>
</g>
<path d="M69.6056 76.8572V59.7947H74.8556C76.3556 59.7947 77.6954 60.1345 78.8751 60.8142C80.0626 61.4861 80.9884 62.447 81.6525 63.697C82.3165 64.9392 82.6486 66.3533 82.6486 67.9392V68.7244C82.6486 70.3103 82.3204 71.7205 81.6642 72.9548C81.0157 74.1892 80.0978 75.1462 78.9103 75.8259C77.7228 76.5056 76.3829 76.8494 74.8907 76.8572H69.6056ZM73.1212 62.6423V74.033H74.8204C76.1954 74.033 77.2462 73.5837 77.9728 72.6853C78.6993 71.7869 79.0704 70.5017 79.0861 68.8298V67.9275C79.0861 66.1931 78.7267 64.8806 78.0079 63.99C77.2892 63.0916 76.2384 62.6423 74.8556 62.6423H73.1212ZM88.4665 76.8572H85.0681V64.1775H88.4665V76.8572ZM84.8689 60.8962C84.8689 60.3884 85.0368 59.9705 85.3728 59.6423C85.7165 59.3142 86.1814 59.1501 86.7673 59.1501C87.3454 59.1501 87.8064 59.3142 88.1501 59.6423C88.4939 59.9705 88.6657 60.3884 88.6657 60.8962C88.6657 61.4119 88.49 61.8337 88.1384 62.1619C87.7947 62.49 87.3376 62.6541 86.7673 62.6541C86.197 62.6541 85.7361 62.49 85.3845 62.1619C85.0407 61.8337 84.8689 61.4119 84.8689 60.8962ZM98.0345 73.3533C98.0345 72.9392 97.8275 72.615 97.4134 72.3806C97.0072 72.1384 96.3509 71.9236 95.4447 71.7361C92.429 71.1033 90.9212 69.822 90.9212 67.8923C90.9212 66.7673 91.3861 65.8298 92.3157 65.0798C93.2532 64.322 94.4759 63.9431 95.9837 63.9431C97.5931 63.9431 98.8782 64.322 99.8392 65.0798C100.808 65.8376 101.292 66.822 101.292 68.033H97.9056C97.9056 67.5486 97.7493 67.1501 97.4368 66.8376C97.1243 66.5173 96.6361 66.3572 95.972 66.3572C95.4017 66.3572 94.9603 66.4861 94.6478 66.7439C94.3353 67.0017 94.179 67.3298 94.179 67.7283C94.179 68.1033 94.3548 68.408 94.7064 68.6423C95.0657 68.8689 95.6673 69.0681 96.5111 69.24C97.3548 69.4041 98.0657 69.5916 98.6439 69.8025C100.433 70.4587 101.327 71.5955 101.327 73.2126C101.327 74.3689 100.831 75.3064 99.8392 76.0251C98.847 76.7361 97.5657 77.0916 95.9954 77.0916C94.9329 77.0916 93.9876 76.9041 93.1595 76.5291C92.3392 76.1462 91.6947 75.6267 91.2259 74.9705C90.7572 74.3064 90.5228 73.5916 90.5228 72.8259H93.7337C93.765 73.4275 93.9876 73.8884 94.4017 74.2087C94.8157 74.5291 95.3704 74.6892 96.0657 74.6892C96.7142 74.6892 97.2025 74.5681 97.5306 74.3259C97.8665 74.0759 98.0345 73.7517 98.0345 73.3533ZM107.474 61.0603V64.1775H109.642V66.6619H107.474V72.99C107.474 73.4587 107.563 73.7947 107.743 73.9978C107.923 74.2009 108.267 74.3025 108.774 74.3025C109.149 74.3025 109.481 74.2751 109.77 74.2205V76.7869C109.106 76.99 108.423 77.0916 107.72 77.0916C105.345 77.0916 104.134 75.8923 104.087 73.4939V66.6619H102.235V64.1775H104.087V61.0603H107.474ZM118.553 67.3533C118.092 67.2908 117.686 67.2595 117.334 67.2595C116.053 67.2595 115.213 67.6931 114.815 68.5603V76.8572H111.428V64.1775H114.627L114.721 65.6892C115.401 64.5251 116.342 63.9431 117.545 63.9431C117.92 63.9431 118.272 63.9939 118.6 64.0955L118.553 67.3533ZM68.8556 98.4001C68.8556 97.1423 69.0978 96.0212 69.5822 95.0369C70.0665 94.0525 70.7618 93.2908 71.6681 92.7517C72.5822 92.2126 73.6407 91.9431 74.8439 91.9431C76.5548 91.9431 77.9493 92.4666 79.0275 93.5134C80.1134 94.5603 80.7189 95.9822 80.8439 97.7791L80.8673 98.6462C80.8673 100.592 80.3243 102.154 79.2384 103.334C78.1525 104.506 76.6954 105.092 74.8673 105.092C73.0392 105.092 71.5782 104.506 70.4845 103.334C69.3986 102.162 68.8556 100.568 68.8556 98.5525V98.4001ZM72.2423 98.6462C72.2423 99.8494 72.4689 100.771 72.922 101.412C73.3751 102.045 74.0236 102.361 74.8673 102.361C75.6876 102.361 76.3282 102.049 76.7892 101.424C77.2501 100.791 77.4806 99.783 77.4806 98.4001C77.4806 97.2205 77.2501 96.3064 76.7892 95.658C76.3282 95.0095 75.6798 94.6853 74.8439 94.6853C74.0157 94.6853 73.3751 95.0095 72.922 95.658C72.4689 96.2986 72.2423 97.2947 72.2423 98.6462ZM83.029 103.193C83.029 102.654 83.2087 102.217 83.5681 101.881C83.9353 101.545 84.3923 101.377 84.9392 101.377C85.4939 101.377 85.9509 101.545 86.3103 101.881C86.6775 102.217 86.8611 102.654 86.8611 103.193C86.8611 103.724 86.6814 104.158 86.322 104.494C85.9626 104.822 85.5017 104.986 84.9392 104.986C84.3845 104.986 83.9275 104.822 83.5681 104.494C83.2087 104.158 83.029 103.724 83.029 103.193Z" fill="white"/>
</g>
<g filter="url(#filter2_dii)">
<path d="M75.5817 171.394V156.651H70.0417C69.4585 156.651 68.9202 156.955 68.9202 157.738C68.9202 158.521 69.4585 158.825 70.0417 158.825H73.3388V171.394H70.0417C69.4585 171.394 68.9202 171.699 68.9202 172.482C68.9202 173.265 69.4585 173.569 70.0417 173.569H78.8788C79.462 173.569 80.0003 173.265 80.0003 172.482V167.002C80.0003 166.371 79.7087 165.914 78.8788 165.914C78.0489 165.914 77.7573 166.371 77.7573 167.002V171.394H75.5817Z" fill="#F1F1F1"/>
<path d="M87.3061 166.197H93.6311C94.3713 166.197 94.8872 166.088 95.4479 165.588C96.0759 165.023 96.1432 164.436 96.1432 163.653V159.195C96.1432 158.412 96.0759 157.825 95.4479 157.26C94.8872 156.759 94.3713 156.651 93.6311 156.651H86.1846C85.6015 156.651 85.0632 156.955 85.0632 157.738C85.0632 158.521 85.6015 158.825 86.1846 158.825H93.9003V164.023H87.5977C85.9155 164.023 85.0632 164.849 85.0632 166.48V173.569H95.0218C95.6049 173.569 96.1432 173.265 96.1432 172.482C96.1432 171.699 95.6049 171.394 95.0218 171.394H87.3061V166.197Z" fill="#F1F1F1"/>
<path d="M110.043 158.825V162.435C110.043 163.653 109.55 164.023 108.922 164.023H104.526C103.942 164.023 103.404 164.327 103.404 165.11C103.404 165.893 103.942 166.197 104.526 166.197H108.922C109.55 166.197 110.043 166.567 110.043 167.785V171.394H102.328C101.744 171.394 101.206 171.699 101.206 172.482C101.206 173.265 101.744 173.569 102.328 173.569H110.043C111.322 173.569 112.286 172.634 112.286 171.394V167.219C112.286 166.349 112.107 165.719 111.411 165.11C112.107 164.501 112.286 163.87 112.286 163V158.825C112.286 157.586 111.322 156.651 110.043 156.651H102.328C101.744 156.651 101.206 156.955 101.206 157.738C101.206 158.521 101.744 158.825 102.328 158.825H110.043Z" fill="#F1F1F1"/>
<path d="M120.713 165.871V157.738C120.713 157.194 120.444 156.651 119.592 156.651C118.74 156.651 118.471 157.194 118.471 157.738V168.046H125.065V172.482C125.065 173.178 125.379 173.569 126.186 173.569C126.994 173.569 127.308 173.178 127.308 172.482V168.046C127.891 168.046 128.429 167.741 128.429 166.958C128.429 166.175 127.891 165.871 127.308 165.871V159.586C127.308 159.043 127.039 158.499 126.186 158.499C125.334 158.499 125.065 159.043 125.065 159.586V165.871H120.713Z" fill="#F1F1F1"/>
<path d="M154.098 158.825H159.594C160.177 158.825 160.715 158.521 160.715 157.738C160.715 156.955 160.177 156.651 159.594 156.651H151.855V166.197H158.472V171.394H153.291C152.932 171.394 152.416 171.09 152.102 170.96L151.429 170.677C151.183 170.568 150.981 170.503 150.712 170.503C150.128 170.503 149.635 171.025 149.635 171.59C149.635 172.351 150.308 172.547 150.913 172.808L151.766 173.178C152.326 173.417 152.663 173.569 153.246 173.569H158.225C159.033 173.569 159.616 173.482 160.177 172.83C160.648 172.286 160.715 171.808 160.715 171.133V166.48C160.715 165.719 160.648 165.197 160.02 164.631C159.481 164.131 158.943 164.023 158.225 164.023H154.098V158.825Z" fill="#F1F1F1"/>
<path d="M168.021 158.825C168.671 158.825 169.142 158.39 169.142 157.738C169.142 157.173 168.671 156.651 168.088 156.651H166.742C165.957 156.651 165.778 157.238 165.778 157.738V172.199C165.778 173.199 166.182 173.569 167.236 173.569H175.4C176.409 173.569 176.858 173.221 176.858 172.199V167.328C176.858 166.328 176.634 165.871 175.512 165.871H168.021V158.825ZM174.615 168.046V171.394H168.021V168.046H174.615Z" fill="#F1F1F1"/>
<path d="M190.758 158.825V161.826C190.758 162.783 190.803 162.761 190.063 163.392L186.967 165.98C186.407 166.458 186.384 166.523 186.384 167.241V172.482C186.384 173.178 186.698 173.569 187.506 173.569C188.313 173.569 188.627 173.178 188.627 172.482V168.263C188.627 167.502 188.672 167.458 189.255 166.958L192.395 164.327C193.023 163.805 193.001 163.718 193.001 162.957V156.651H183.042C182.325 156.651 181.921 157.26 181.921 157.738V158.825C181.921 159.304 182.325 159.913 183.042 159.913C183.76 159.913 184.164 159.304 184.164 158.825H190.758Z" fill="#F1F1F1"/>
<path d="M202.55 164.023V158.825H204.658V164.023H202.55ZM201.428 156.651C200.666 156.651 200.307 157.173 200.307 157.738V164.023C199.611 164.023 199.073 164.262 198.669 164.631C198.266 165.001 198.064 165.545 198.064 166.219V171.394C198.064 172.721 198.916 173.569 200.307 173.569H206.901C208.292 173.569 209.144 172.721 209.144 171.394V166.219C209.144 165.545 208.942 165.001 208.538 164.631C208.135 164.262 207.596 164.023 206.901 164.023V157.738C206.901 157.173 206.542 156.651 205.779 156.651H201.428ZM200.307 171.394V166.197H206.901V171.394H200.307Z" fill="#F1F1F1"/>
<path d="M239.187 171.394C238.536 171.394 238.065 171.829 238.065 172.482C238.065 173.069 238.514 173.569 239.187 173.569H240.308C240.981 173.569 241.43 173.069 241.43 172.482V157.738C241.43 157.173 240.936 156.651 240.308 156.651H231.471C230.843 156.651 230.35 157.173 230.35 157.738V163.305C230.35 163.87 230.843 164.392 231.471 164.392H239.187V171.394ZM232.593 162.218V158.825H239.187V162.218H232.593Z" fill="#F1F1F1"/>
<path d="M248.736 156.651C247.502 156.651 246.493 157.629 246.493 158.825V171.394C246.493 172.612 247.457 173.569 248.736 173.569H255.33C256.608 173.569 257.573 172.612 257.573 171.394V158.825C257.573 157.629 256.563 156.651 255.33 156.651H248.736ZM248.736 171.394V158.825H255.33V171.394H248.736Z" fill="#F1F1F1"/>
<path d="M264.879 156.651C263.645 156.651 262.636 157.629 262.636 158.825V171.394C262.636 172.612 263.6 173.569 264.879 173.569H271.473C272.751 173.569 273.716 172.612 273.716 171.394V158.825C273.716 157.629 272.706 156.651 271.473 156.651H264.879ZM264.879 171.394V158.825H271.473V171.394H264.879Z" fill="#F1F1F1"/>
<path d="M281.022 156.651C279.788 156.651 278.779 157.629 278.779 158.825V171.394C278.779 172.612 279.743 173.569 281.022 173.569H287.616C288.894 173.569 289.859 172.612 289.859 171.394V158.825C289.859 157.629 288.849 156.651 287.616 156.651H281.022ZM281.022 171.394V158.825H287.616V171.394H281.022Z" fill="#F1F1F1"/>
<path d="M313.307 156.651C312.074 156.651 311.064 157.629 311.064 158.825V171.394C311.064 172.612 312.029 173.569 313.307 173.569H319.902C321.18 173.569 322.145 172.612 322.145 171.394V158.825C322.145 157.629 321.135 156.651 319.902 156.651H313.307ZM313.307 171.394V158.825H319.902V171.394H313.307Z" fill="#F1F1F1"/>
<path d="M329.45 156.651C328.217 156.651 327.207 157.629 327.207 158.825V171.394C327.207 172.612 328.172 173.569 329.45 173.569H336.045C337.323 173.569 338.287 172.612 338.287 171.394V158.825C338.287 157.629 337.278 156.651 336.045 156.651H329.45ZM329.45 171.394V158.825H336.045V171.394H329.45Z" fill="#F1F1F1"/>
<path d="M345.593 156.651C344.36 156.651 343.35 157.629 343.35 158.825V171.394C343.35 172.612 344.315 173.569 345.593 173.569H352.188C353.466 173.569 354.43 172.612 354.43 171.394V158.825C354.43 157.629 353.421 156.651 352.188 156.651H345.593ZM345.593 171.394V158.825H352.188V171.394H345.593Z" fill="#F1F1F1"/>
<path d="M361.736 156.651C360.503 156.651 359.493 157.629 359.493 158.825V171.394C359.493 172.612 360.458 173.569 361.736 173.569H368.33C369.609 173.569 370.573 172.612 370.573 171.394V158.825C370.573 157.629 369.564 156.651 368.33 156.651H361.736ZM361.736 171.394V158.825H368.33V171.394H361.736Z" fill="#F1F1F1"/>
</g>
<g filter="url(#filter3_bi)">
<path d="M356.284 65.1817C356.643 65.6167 356.912 66.1386 357.092 66.6605C357.271 67.1824 357.361 67.7912 357.361 68.4001C357.361 69.009 357.271 69.6179 357.092 70.1398C356.912 70.6617 356.643 71.1836 356.284 71.6185C355.836 72.2274 355.925 73.0973 356.553 73.5322C357.181 73.9671 358.079 73.8801 358.527 73.2712C359.065 72.5754 359.424 71.8795 359.783 71.0097C360.142 70.1398 360.232 69.27 360.232 68.4001C360.232 67.5303 360.052 66.6605 359.783 65.7906C359.514 65.0078 359.065 64.2249 358.527 63.529C358.079 62.9201 357.181 62.8332 356.553 63.2681C355.925 63.703 355.836 64.5728 356.284 65.1817Z" fill="white"/>
<path d="M361.219 62.6592C362.295 64.3119 362.923 66.3125 362.923 68.4001C362.923 70.4877 362.295 72.4884 361.219 74.1411C360.77 74.75 361.039 75.6198 361.667 76.0547C362.385 76.4896 363.192 76.2287 363.641 75.6198C364.987 73.5322 365.794 71.0966 365.794 68.4001C365.794 65.7906 364.987 63.2681 363.641 61.1805C363.192 60.5716 362.295 60.3106 361.667 60.7455C361.039 61.1805 360.77 61.9633 361.219 62.6592Z" fill="white"/>
<path d="M366.422 60.0497C367.947 62.4852 368.755 65.3557 368.755 68.4001C368.755 71.4446 367.858 74.315 366.422 76.7506C366.063 77.4465 366.243 78.2293 366.961 78.6642C367.678 79.0122 368.486 78.8382 368.934 78.1423C370.729 75.2719 371.716 71.9665 371.716 68.4001C371.716 64.8338 370.729 61.5284 368.934 58.6579C368.575 57.9621 367.678 57.7881 366.961 58.136C366.243 58.5709 366.063 59.3538 366.422 60.0497Z" fill="white"/>
<path d="M371.626 57.4402C373.51 60.6586 374.676 64.3989 374.676 68.4001C374.676 72.4014 373.6 76.1417 371.626 79.3601C371.267 80.056 371.446 80.8388 372.164 81.2738C372.882 81.6217 373.689 81.4477 374.138 80.7519C376.291 77.0985 377.547 72.9233 377.547 68.4001C377.547 63.877 376.291 59.7017 374.138 56.0484C373.779 55.3525 372.882 55.1786 372.164 55.5265C371.446 55.8744 371.267 56.7443 371.626 57.4402Z" fill="white"/>
</g>
<g filter="url(#filter4_d)">
<path d="M76.5953 218.434H74.5445L70.5523 211.885V218.434H68.5015V208.481H70.5523L74.5513 215.043V208.481H76.5953V218.434ZM80.4669 218.434H78.4162V208.481H80.4669V218.434ZM90.0876 215.118C90.0102 216.189 89.6137 217.032 88.8982 217.648C88.1873 218.263 87.2485 218.571 86.0818 218.571C84.8057 218.571 83.8009 218.142 83.0671 217.285C82.338 216.424 81.9734 215.244 81.9734 213.744V213.136C81.9734 212.179 82.142 211.336 82.4792 210.607C82.8165 209.878 83.2973 209.319 83.9216 208.932C84.5505 208.54 85.2797 208.344 86.1091 208.344C87.2576 208.344 88.1827 208.652 88.8845 209.267C89.5863 209.882 89.9919 210.746 90.1013 211.858H88.0505C88.0004 211.215 87.8204 210.75 87.5105 210.463C87.2052 210.171 86.738 210.026 86.1091 210.026C85.4255 210.026 84.9128 210.272 84.571 210.764C84.2338 211.252 84.0606 212.01 84.0515 213.04V213.792C84.0515 214.868 84.2133 215.654 84.5369 216.151C84.865 216.647 85.38 216.896 86.0818 216.896C86.7152 216.896 87.1869 216.752 87.4968 216.465C87.8113 216.173 87.9913 215.725 88.0369 215.118H90.0876ZM94.4515 214.442L93.3851 215.59V218.434H91.3343V208.481H93.3851V212.992L94.2874 211.755L96.8236 208.481H99.346L95.8119 212.904L99.4486 218.434H97.0082L94.4515 214.442ZM111.683 213.683C111.683 214.663 111.51 215.522 111.164 216.26C110.817 216.998 110.321 217.568 109.673 217.969C109.031 218.37 108.293 218.571 107.459 218.571C106.634 218.571 105.898 218.372 105.251 217.976C104.603 217.579 104.102 217.014 103.747 216.281C103.391 215.542 103.211 214.695 103.207 213.738V213.245C103.207 212.266 103.382 211.404 103.733 210.661C104.088 209.914 104.587 209.342 105.23 208.946C105.877 208.545 106.615 208.344 107.445 208.344C108.274 208.344 109.01 208.545 109.653 208.946C110.3 209.342 110.799 209.914 111.15 210.661C111.505 211.404 111.683 212.263 111.683 213.239V213.683ZM109.605 213.232C109.605 212.188 109.418 211.395 109.044 210.853C108.671 210.31 108.138 210.039 107.445 210.039C106.757 210.039 106.226 210.308 105.852 210.846C105.478 211.379 105.289 212.163 105.285 213.198V213.683C105.285 214.699 105.472 215.488 105.845 216.048C106.219 216.609 106.757 216.889 107.459 216.889C108.147 216.889 108.675 216.62 109.044 216.082C109.414 215.54 109.6 214.752 109.605 213.717V213.232ZM121.174 218.434H119.123V214.168H115.124V218.434H113.073V208.481H115.124V212.514H119.123V208.481H121.174V218.434ZM125.552 208.481L128.108 215.699L130.651 208.481H133.344V218.434H131.287V215.713L131.492 211.017L128.805 218.434H127.397L124.718 211.024L124.923 215.713V218.434H122.872V208.481H125.552ZM138.276 212.965L140.347 208.481H142.589L139.322 214.824V218.434H137.237V214.824L133.969 208.481H136.218L138.276 212.965Z" fill="white"/>
</g>
<g filter="url(#filter5_d)">
<path d="M179.171 214.319C179.171 215.695 178.886 216.748 178.317 217.477C177.747 218.206 176.913 218.571 175.815 218.571C174.73 218.571 173.901 218.213 173.326 217.497C172.752 216.782 172.458 215.756 172.444 214.421V212.589C172.444 211.199 172.732 210.144 173.306 209.424C173.885 208.704 174.716 208.344 175.801 208.344C176.886 208.344 177.715 208.702 178.289 209.417C178.863 210.128 179.157 211.151 179.171 212.487V214.319ZM177.195 212.309C177.195 211.484 177.082 210.885 176.854 210.511C176.63 210.133 176.279 209.944 175.801 209.944C175.336 209.944 174.992 210.124 174.769 210.484C174.55 210.839 174.434 211.397 174.42 212.158V214.578C174.42 215.39 174.529 215.993 174.748 216.39C174.971 216.782 175.327 216.978 175.815 216.978C176.298 216.978 176.646 216.789 176.86 216.41C177.075 216.032 177.186 215.453 177.195 214.674V212.309ZM180.705 213.539L181.279 208.481H186.857V210.128H182.899L182.653 212.268C183.122 212.017 183.621 211.892 184.15 211.892C185.098 211.892 185.841 212.186 186.379 212.774C186.916 213.362 187.185 214.184 187.185 215.241C187.185 215.884 187.049 216.461 186.775 216.971C186.506 217.477 186.119 217.871 185.613 218.154C185.107 218.432 184.51 218.571 183.822 218.571C183.22 218.571 182.662 218.45 182.147 218.208C181.632 217.962 181.224 217.618 180.924 217.176C180.627 216.734 180.47 216.23 180.452 215.665H182.407C182.448 216.08 182.592 216.404 182.838 216.636C183.088 216.864 183.414 216.978 183.815 216.978C184.262 216.978 184.606 216.818 184.847 216.499C185.089 216.176 185.21 215.72 185.21 215.132C185.21 214.567 185.071 214.134 184.793 213.833C184.515 213.532 184.121 213.382 183.61 213.382C183.141 213.382 182.76 213.505 182.468 213.751L182.277 213.929L180.705 213.539ZM192.44 219.288H190.971L194.635 208.481H196.104L192.44 219.288ZM207.081 218.434H200.259V217.08L203.479 213.649C203.921 213.166 204.247 212.744 204.456 212.384C204.67 212.024 204.777 211.682 204.777 211.359C204.777 210.917 204.666 210.57 204.443 210.32C204.219 210.064 203.9 209.937 203.485 209.937C203.039 209.937 202.686 210.092 202.426 210.402C202.171 210.707 202.043 211.11 202.043 211.612H200.061C200.061 211.005 200.204 210.452 200.491 209.95C200.783 209.449 201.193 209.057 201.722 208.775C202.25 208.488 202.85 208.344 203.52 208.344C204.545 208.344 205.34 208.59 205.905 209.082C206.475 209.574 206.76 210.269 206.76 211.167C206.76 211.659 206.632 212.161 206.377 212.671C206.122 213.182 205.684 213.776 205.065 214.455L202.802 216.841H207.081V218.434ZM214.043 214.688H215.171V216.281H214.043V218.434H212.067V216.281H207.986L207.897 215.036L212.047 208.481H214.043V214.688ZM209.866 214.688H212.067V211.174L211.937 211.4L209.866 214.688Z" fill="white"/>
</g>
<defs>
<filter id="filter0_ii" x="42.6248" y="42.2673" width="366.159" height="191.07" filterUnits="userSpaceOnUse" color-interpolation-filters="sRGB">
<feFlood flood-opacity="0" result="BackgroundImageFix"/>
<feBlend mode="normal" in="SourceGraphic" in2="BackgroundImageFix" result="shape"/>
<feColorMatrix in="SourceAlpha" type="matrix" values="0 0 0 0 0 0 0 0 0 0 0 0 0 0 0 0 0 0 127 0" result="hardAlpha"/>
<feOffset dy="-26"/>
<feGaussianBlur stdDeviation="11.5"/>
<feComposite in2="hardAlpha" operator="arithmetic" k2="-1" k3="1"/>
<feColorMatrix type="matrix" values="0 0 0 0 0.10049 0 0 0 0 0 0 0 0 0 0.3125 0 0 0 1 0"/>
<feBlend mode="normal" in2="shape" result="effect1_innerShadow"/>
<feColorMatrix in="SourceAlpha" type="matrix" values="0 0 0 0 0 0 0 0 0 0 0 0 0 0 0 0 0 0 127 0" result="hardAlpha"/>
<feOffset dy="31"/>
<feGaussianBlur stdDeviation="10"/>
<feComposite in2="hardAlpha" operator="arithmetic" k2="-1" k3="1"/>
<feColorMatrix type="matrix" values="0 0 0 0 0.892392 0 0 0 0 0.807843 0 0 0 0 1 0 0 0 0.5 0"/>
<feBlend mode="normal" in2="effect1_innerShadow" result="effect2_innerShadow"/>
</filter>
<filter id="filter1_dii" x="53.6867" y="72.0669" width="380.59" height="167.637" filterUnits="userSpaceOnUse" color-interpolation-filters="sRGB">
<feFlood flood-opacity="0" result="BackgroundImageFix"/>
<feColorMatrix in="SourceAlpha" type="matrix" values="0 0 0 0 0 0 0 0 0 0 0 0 0 0 0 0 0 0 127 0"/>
<feOffset dy="28"/>
<feGaussianBlur stdDeviation="7"/>
<feColorMatrix type="matrix" values="0 0 0 0 0.109804 0 0 0 0 0.0509804 0 0 0 0 0.152941 0 0 0 0.4 0"/>
<feBlend mode="normal" in2="BackgroundImageFix" result="effect1_dropShadow"/>
<feBlend mode="normal" in="SourceGraphic" in2="effect1_dropShadow" result="shape"/>
<feColorMatrix in="SourceAlpha" type="matrix" values="0 0 0 0 0 0 0 0 0 0 0 0 0 0 0 0 0 0 127 0" result="hardAlpha"/>
<feOffset dy="-28"/>
<feGaussianBlur stdDeviation="11.5"/>
<feComposite in2="hardAlpha" operator="arithmetic" k2="-1" k3="1"/>
<feColorMatrix type="matrix" values="0 0 0 0 0.5625 0 0 0 0 0.175781 0 0 0 0 0.475686 0 0 0 0.92 0"/>
<feBlend mode="normal" in2="shape" result="effect2_innerShadow"/>
<feColorMatrix in="SourceAlpha" type="matrix" values="0 0 0 0 0 0 0 0 0 0 0 0 0 0 0 0 0 0 127 0" result="hardAlpha"/>
<feOffset dy="27"/>
<feGaussianBlur stdDeviation="8"/>
<feComposite in2="hardAlpha" operator="arithmetic" k2="-1" k3="1"/>
<feColorMatrix type="matrix" values="0 0 0 0 1 0 0 0 0 1 0 0 0 0 1 0 0 0 0.6 0"/>
<feBlend mode="normal" in2="effect2_innerShadow" result="effect3_innerShadow"/>
</filter>
<filter id="filter2_dii" x="67.9202" y="154.651" width="303.653" height="20.9184" filterUnits="userSpaceOnUse" color-interpolation-filters="sRGB">
<feFlood flood-opacity="0" result="BackgroundImageFix"/>
<feColorMatrix in="SourceAlpha" type="matrix" values="0 0 0 0 0 0 0 0 0 0 0 0 0 0 0 0 0 0 127 0"/>
<feOffset dy="1"/>
<feGaussianBlur stdDeviation="0.5"/>
<feColorMatrix type="matrix" values="0 0 0 0 0 0 0 0 0 0 0 0 0 0 0 0 0 0 0.2 0"/>
<feBlend mode="normal" in2="BackgroundImageFix" result="effect1_dropShadow"/>
<feBlend mode="normal" in="SourceGraphic" in2="effect1_dropShadow" result="shape"/>
<feColorMatrix in="SourceAlpha" type="matrix" values="0 0 0 0 0 0 0 0 0 0 0 0 0 0 0 0 0 0 127 0" result="hardAlpha"/>
<feOffset dy="1"/>
<feGaussianBlur stdDeviation="0.5"/>
<feComposite in2="hardAlpha" operator="arithmetic" k2="-1" k3="1"/>
<feColorMatrix type="matrix" values="0 0 0 0 1 0 0 0 0 1 0 0 0 0 1 0 0 0 1 0"/>
<feBlend mode="normal" in2="shape" result="effect2_innerShadow"/>
<feColorMatrix in="SourceAlpha" type="matrix" values="0 0 0 0 0 0 0 0 0 0 0 0 0 0 0 0 0 0 127 0" result="hardAlpha"/>
<feOffset dy="-2"/>
<feGaussianBlur stdDeviation="1"/>
<feComposite in2="hardAlpha" operator="arithmetic" k2="-1" k3="1"/>
<feColorMatrix type="matrix" values="0 0 0 0 0 0 0 0 0 0 0 0 0 0 0 0 0 0 0.35 0"/>
<feBlend mode="normal" in2="effect2_innerShadow" result="effect3_innerShadow"/>
</filter>
<filter id="filter3_bi" x="324.004" y="23.3525" width="85.5433" height="90.0952" filterUnits="userSpaceOnUse" color-interpolation-filters="sRGB">
<feFlood flood-opacity="0" result="BackgroundImageFix"/>
<feGaussianBlur in="BackgroundImage" stdDeviation="16"/>
<feComposite in2="SourceAlpha" operator="in" result="effect1_backgroundBlur"/>
<feBlend mode="normal" in="SourceGraphic" in2="effect1_backgroundBlur" result="shape"/>
<feColorMatrix in="SourceAlpha" type="matrix" values="0 0 0 0 0 0 0 0 0 0 0 0 0 0 0 0 0 0 127 0" result="hardAlpha"/>
<feOffset dy="2"/>
<feGaussianBlur stdDeviation="0.5"/>
<feComposite in2="hardAlpha" operator="arithmetic" k2="-1" k3="1"/>
<feColorMatrix type="matrix" values="0 0 0 0 1 0 0 0 0 1 0 0 0 0 1 0 0 0 0.49 0"/>
<feBlend mode="normal" in2="shape" result="effect2_innerShadow"/>
</filter>
<filter id="filter4_d" x="67.5015" y="208.344" width="76.0877" height="12.2266" filterUnits="userSpaceOnUse" color-interpolation-filters="sRGB">
<feFlood flood-opacity="0" result="BackgroundImageFix"/>
<feColorMatrix in="SourceAlpha" type="matrix" values="0 0 0 0 0 0 0 0 0 0 0 0 0 0 0 0 0 0 127 0"/>
<feOffset dy="1"/>
<feGaussianBlur stdDeviation="0.5"/>
<feColorMatrix type="matrix" values="0 0 0 0 0 0 0 0 0 0 0 0 0 0 0 0 0 0 0.2 0"/>
<feBlend mode="normal" in2="BackgroundImageFix" result="effect1_dropShadow"/>
<feBlend mode="normal" in="SourceGraphic" in2="effect1_dropShadow" result="shape"/>
</filter>
<filter id="filter5_d" x="171.444" y="208.344" width="44.7262" height="12.9443" filterUnits="userSpaceOnUse" color-interpolation-filters="sRGB">
<feFlood flood-opacity="0" result="BackgroundImageFix"/>
<feColorMatrix in="SourceAlpha" type="matrix" values="0 0 0 0 0 0 0 0 0 0 0 0 0 0 0 0 0 0 127 0"/>
<feOffset dy="1"/>
<feGaussianBlur stdDeviation="0.5"/>
<feColorMatrix type="matrix" values="0 0 0 0 0 0 0 0 0 0 0 0 0 0 0 0 0 0 0.2 0"/>
<feBlend mode="normal" in2="BackgroundImageFix" result="effect1_dropShadow"/>
<feBlend mode="normal" in="SourceGraphic" in2="effect1_dropShadow" result="shape"/>
</filter>
<linearGradient id="paint0_linear" x1="42.4144" y1="41.7695" x2="418.497" y2="65.9914" gradientUnits="userSpaceOnUse">
<stop stop-color="#59C173"/>
<stop offset="0.479167" stop-color="#A17FE0" stop-opacity="0.520833"/>
<stop offset="1" stop-color="#5D26C1" stop-opacity="0.79"/>
</linearGradient>
<clipPath id="clip0">
<rect width="385.784" height="234.857" fill="white" transform="translate(39.7621 24)"/>
</clipPath>
</defs>
</svg>
